<?xml version="1.0" encoding="iso-8859-1"?>
<!-- Generator: Adobe Illustrator 19.0.0, SVG Export Plug-In . SVG Version: 6.00 Build 0)  -->
<svg version="1.1" id="Capa_1" xmlns="http://www.w3.org/2000/svg" xmlns:xlink="http://www.w3.org/1999/xlink" x="0px" y="0px"
	 viewBox="0 0 512 512" style="enable-background:new 0 0 512 512;" xml:space="preserve">
<path style="fill:#B5B5B5;" d="M512,52.966h-52.966c0-14.627,11.855-26.483,26.483-26.483S512,38.338,512,52.966z"/>
<path style="fill:#E6E6E6;" d="M79.448,26.483h406.069c-14.627,0-26.483,11.855-26.483,26.483v291.31h-61.793v-35.31l-0.177-0.353
	l22.775-10.417l-13.771-24.541l13.771-24.541l-25.6-11.741l-3.266-27.983l-27.63,5.473l-19.068-20.657l-19.068,20.657l-27.63-5.473
	l-3.266,27.983l-25.6,11.741l13.771,24.541l-13.771,24.541l22.775,10.417l-0.177,0.353v35.31H52.966V52.966
	C52.966,38.338,64.821,26.483,79.448,26.483z"/>
<path style="fill:#B5B5B5;" d="M397.241,344.276h61.793c0,14.627-11.855,26.483-26.483,26.483h-35.31V344.276z"/>
<path style="fill:#FF8030;" d="M419.84,249.114l-13.771,24.541l13.771,24.541l-22.775,10.417l-2.825,1.324l-3.266,27.983
	l-27.63-5.473l-19.068,20.657l-19.068-20.657l-27.63,5.473l-3.266-27.983l-2.825-1.324l-22.775-10.417l13.771-24.541l-13.771-24.541
	l25.6-11.741l3.266-27.983l27.63,5.473l19.068-20.657l19.068,20.657l27.63-5.473l3.266,27.983L419.84,249.114z M379.586,273.655
	c0-19.5-15.81-35.31-35.31-35.31c-19.5,0-35.31,15.81-35.31,35.31c0,19.5,15.81,35.31,35.31,35.31
	C363.776,308.966,379.586,293.155,379.586,273.655z"/>
<polygon style="fill:#FB5968;" points="397.241,370.759 397.241,485.517 344.276,432.552 291.31,485.517 291.31,370.759 
	291.31,344.276 291.31,308.966 291.487,308.612 294.312,309.937 297.578,337.92 325.208,332.447 344.276,353.103 363.343,332.447 
	390.974,337.92 394.24,309.937 397.065,308.612 397.241,308.966 397.241,344.276 "/>
<circle style="fill:#FFDB6F;" cx="344.276" cy="273.655" r="35.31"/>
<path style="fill:#B5B5B5;" d="M291.31,344.276v26.483H26.483C11.855,370.759,0,358.903,0,344.276H291.31z"/>
<g>
	<rect x="185.379" y="70.621" style="fill:#454545;" width="141.241" height="17.655"/>
	<rect x="97.103" y="123.586" style="fill:#454545;" width="317.793" height="17.655"/>
	<rect x="97.103" y="158.897" style="fill:#454545;" width="317.793" height="17.655"/>
	<rect x="105.931" y="273.655" style="fill:#454545;" width="114.759" height="17.655"/>
</g>
<g>
</g>
<g>
</g>
<g>
</g>
<g>
</g>
<g>
</g>
<g>
</g>
<g>
</g>
<g>
</g>
<g>
</g>
<g>
</g>
<g>
</g>
<g>
</g>
<g>
</g>
<g>
</g>
<g>
</g>
</svg>
