<svg height="512pt" viewBox="0 0 512.00003 512" width="512pt" xmlns="http://www.w3.org/2000/svg"><path d="m512 125.789062-353.21875 353.21875-158.78125 32.984376 32.992188-158.773438 353.21875-353.21875zm0 0" fill="#08f"/><path d="m512 125.789062-353.21875 353.21875-158.78125 32.984376 449.101562-449.101563zm0 0" fill="#006ef4"/><path d="m158.929688 478.859375-.148438.148437-158.78125 32.984376 32.992188-158.773438.148437-.148438zm0 0" fill="#ffdaa8"/><path d="m316.832031 69.375 69.375-69.37109375 125.789063 125.78906275-69.375 69.371093zm0 0" fill="#e60020"/><path d="m410.957031 226.832031-21.207031 21.207031-52.292969-52.292968-230.824219 230.820312-21.203124-21.207031 230.816406-230.820313-52.285156-52.289062 21.207031-21.207031zm0 0" fill="#ffaf12"/><path d="m96.03125 415.960938 62.898438 62.898437-.148438.148437-158.78125 32.984376zm0 0" fill="#ffc373"/><path d="m379.722656 132.269531 69.375-69.375 62.898438 62.898438-69.375 69.375zm0 0" fill="#c1001b"/><path d="m348.058594 163.933594 62.898437 62.898437-21.207031 21.207031-52.292969-52.292968-230.824219 230.820312-10.601562-10.605468zm0 0" fill="#f80"/><path d="m308.5 77.710938 21.203125-21.207032 125.792969 125.789063-21.207032 21.207031zm0 0" fill="#e0e0e2"/><path d="m371.390625 140.601562 21.207031-21.207031 62.898438 62.898438-21.207032 21.207031zm0 0" fill="#d8d8da"/><path d="m49.382812 501.742188-49.382812 10.25 10.257812-49.375zm0 0" fill="#896746"/><path d="m29.816406 482.175781 19.566406 19.566407-49.382812 10.25zm0 0" fill="#715539"/></svg>