<?xml version="1.0" encoding="UTF-8" standalone="no"?>
<!DOCTYPE svg PUBLIC "-//W3C//DTD SVG 1.1//EN" "http://www.w3.org/Graphics/SVG/1.1/DTD/svg11.dtd">
<svg version="1.1" xmlns="http://www.w3.org/2000/svg" xmlns:xlink="http://www.w3.org/1999/xlink" preserveAspectRatio="xMidYMid meet" viewBox="0 0 640 640" width="640" height="640"><defs><path d="M124.22 408.7L123.78 408.74L123.37 408.83L122.97 408.98L122.61 409.18L122.28 409.43L121.99 409.72L121.74 410.05L121.54 410.41L121.39 410.8L121.3 411.22L121.26 411.66L121.26 412.18L121.29 412.61L121.39 413.03L121.54 413.42L121.74 413.78L121.98 414.11L122.27 414.4L122.6 414.65L122.97 414.85L123.36 415L123.77 415.09L124.21 415.12L129.21 415.11L129.2 420.67L124.2 420.68L123.76 420.71L123.34 420.81L122.95 420.96L122.59 421.16L122.26 421.41L121.97 421.7L121.72 422.03L121.52 422.39L121.37 422.78L121.28 423.2L121.24 423.64L121.24 424.16L121.27 424.59L121.37 425.01L121.51 425.4L121.71 425.76L121.96 426.09L122.25 426.38L122.58 426.63L122.94 426.83L123.33 426.98L123.75 427.07L124.18 427.1L129.19 427.09L129.18 432.65L124.17 432.66L123.74 432.69L123.32 432.79L122.93 432.94L122.57 433.14L122.24 433.39L121.95 433.68L121.7 434.01L121.5 434.37L121.35 434.76L121.25 435.18L121.22 435.62L121.22 436.14L121.25 436.57L121.34 436.99L121.49 437.38L121.69 437.74L121.94 438.07L122.23 438.36L122.56 438.61L122.92 438.81L123.31 438.96L123.73 439.05L124.16 439.08L129.17 439.07L129.16 444.63L124.15 444.64L123.72 444.67L123.3 444.77L122.91 444.92L122.55 445.12L122.22 445.37L121.92 445.66L121.68 445.99L121.47 446.35L121.32 446.74L121.23 447.16L121.2 447.6L121.2 448.12L121.23 448.55L121.32 448.97L121.47 449.36L121.67 449.72L121.92 450.05L122.21 450.34L122.54 450.59L122.9 450.79L123.29 450.94L123.71 451.03L124.14 451.06L129.15 451.05L129.14 456.61L124.13 456.62L123.69 456.65L123.28 456.75L122.89 456.9L122.52 457.1L122.19 457.35L121.9 457.64L121.65 457.97L121.45 458.33L121.3 458.72L121.21 459.14L121.18 459.58L121.18 460.1L121.21 460.53L121.3 460.95L121.45 461.34L121.65 461.7L121.9 462.03L122.19 462.32L122.52 462.57L122.88 462.77L123.27 462.91L123.68 463.01L124.12 463.04L129.12 463.03L129.11 469.13L124.11 469.14L123.67 469.17L123.26 469.27L122.86 469.42L122.5 469.62L122.17 469.87L121.88 470.16L121.63 470.49L121.43 470.85L121.28 471.24L121.19 471.66L121.15 472.1L121.15 472.62L121.18 473.05L121.28 473.47L121.42 473.86L121.63 474.22L121.87 474.55L122.16 474.84L122.49 475.09L122.85 475.29L123.25 475.44L123.66 475.53L124.1 475.56L129.1 475.55L129.09 481.11L124.09 481.12L123.65 481.15L123.23 481.25L122.84 481.4L122.48 481.6L122.15 481.85L121.86 482.14L121.61 482.47L121.41 482.83L121.26 483.22L121.16 483.64L121.13 484.08L121.13 484.6L121.16 485.03L121.25 485.45L121.4 485.84L121.6 486.2L121.85 486.53L122.14 486.82L122.47 487.07L122.83 487.27L123.22 487.41L123.64 487.51L124.07 487.54L129.08 487.53L129.07 493.09L124.06 493.1L123.63 493.13L123.21 493.23L122.82 493.38L122.46 493.58L122.13 493.83L121.84 494.12L121.59 494.45L121.39 494.81L121.24 495.2L121.14 495.62L121.11 496.05L121.11 496.57L121.14 497.01L121.23 497.43L121.38 497.82L121.58 498.18L121.83 498.51L122.12 498.8L122.45 499.05L122.81 499.25L123.2 499.39L123.62 499.49L124.05 499.52L129.06 499.51L129.05 505.01L123.98 505.02L123.54 505.05L123.12 505.14L122.73 505.29L122.36 505.5L122.03 505.75L121.74 506.04L121.49 506.37L121.29 506.74L121.14 507.13L121.04 507.55L121.01 507.99L121.01 508.56L121.04 509L121.13 509.41L121.28 509.81L121.48 510.17L121.73 510.5L122.03 510.79L122.36 511.04L122.72 511.25L123.11 511.39L123.53 511.49L123.97 511.52L129.03 511.51L129.01 522.28L57.46 522.43L57.01 522.42L56.56 522.4L56.12 522.35L55.68 522.29L55.24 522.21L54.82 522.12L54.4 522.01L53.98 521.88L53.58 521.73L53.18 521.58L52.79 521.4L52.41 521.21L52.03 521.01L51.67 520.79L51.31 520.56L50.97 520.32L50.63 520.06L50.3 519.8L49.99 519.51L49.69 519.22L49.39 518.92L49.11 518.6L48.84 518.28L48.59 517.94L48.34 517.59L48.11 517.24L47.9 516.87L47.69 516.5L47.5 516.12L47.33 515.73L47.17 515.33L47.03 514.92L46.9 514.51L46.79 514.09L46.69 513.66L46.61 513.23L46.55 512.79L46.51 512.35L46.48 511.9L46.47 511.45L46.67 406.05L46.68 405.6L46.7 405.15L46.75 404.7L46.81 404.26L46.89 403.83L46.99 403.4L47.1 402.98L47.23 402.57L47.38 402.16L47.54 401.76L47.71 401.37L47.9 400.99L48.11 400.61L48.32 400.25L48.56 399.89L48.8 399.54L49.06 399.21L49.33 398.88L49.61 398.56L49.9 398.26L50.21 397.97L50.52 397.68L50.85 397.41L51.19 397.16L51.53 396.91L51.89 396.68L52.26 396.46L52.63 396.26L53.01 396.07L53.41 395.89L53.8 395.73L54.21 395.59L54.63 395.46L55.05 395.35L55.47 395.25L55.91 395.17L56.35 395.11L56.79 395.06L57.24 395.03L57.69 395.02L129.25 394.87L129.22 408.69L124.22 408.7ZM210.04 394.74L210.49 394.78L210.92 394.85L211.36 394.92L211.78 395.02L212.2 395.13L212.62 395.26L213.02 395.4L213.42 395.56L213.81 395.74L214.19 395.92L214.57 396.13L214.93 396.34L215.29 396.57L215.63 396.82L215.97 397.07L216.3 397.34L216.61 397.62L216.92 397.92L217.21 398.22L217.49 398.53L217.76 398.86L218.01 399.2L218.26 399.54L218.49 399.9L218.7 400.26L218.91 400.64L219.1 401.02L219.27 401.41L219.43 401.81L219.57 402.21L219.7 402.63L219.81 403.05L219.91 403.47L219.99 403.91L220.05 404.34L220.09 404.79L220.12 405.24L220.13 405.69L219.94 511.08L219.93 511.54L219.9 511.99L219.85 512.43L219.79 512.87L219.71 513.31L219.61 513.73L219.5 514.15L219.37 514.57L219.22 514.97L219.06 515.37L218.89 515.77L218.7 516.15L218.49 516.52L218.28 516.89L218.05 517.25L217.8 517.59L217.54 517.93L217.27 518.26L216.99 518.57L216.7 518.88L216.39 519.17L216.08 519.45L215.75 519.72L215.41 519.98L215.07 520.22L214.71 520.46L214.35 520.67L213.97 520.88L213.59 521.07L213.2 521.24L212.8 521.4L212.39 521.55L211.98 521.68L211.55 521.79L211.13 521.89L210.69 521.97L210.26 522.03L209.81 522.08L209.36 522.11L208.91 522.12L137.35 522.27L137.37 511.49L142.44 511.48L142.88 511.45L143.29 511.35L143.69 511.2L144.05 511L144.39 510.75L144.68 510.46L144.93 510.12L145.13 509.76L145.28 509.36L145.38 508.95L145.41 508.51L145.41 507.94L145.38 507.5L145.29 507.08L145.14 506.69L144.94 506.32L144.69 505.99L144.39 505.7L144.06 505.45L143.7 505.25L143.3 505.1L142.89 505.01L142.45 504.98L137.39 504.99L137.4 499.49L142.4 499.48L142.84 499.45L143.25 499.35L143.64 499.2L144.01 499L144.34 498.75L144.63 498.46L144.88 498.13L145.08 497.77L145.23 497.38L145.32 496.96L145.35 496.52L145.35 496L145.32 495.57L145.23 495.15L145.08 494.76L144.88 494.4L144.63 494.07L144.34 493.78L144.01 493.53L143.65 493.33L143.26 493.18L142.85 493.09L142.41 493.06L137.41 493.07L137.42 487.51L142.42 487.5L142.86 487.47L143.27 487.37L143.67 487.22L144.03 487.02L144.36 486.77L144.65 486.48L144.9 486.15L145.1 485.79L145.25 485.4L145.34 484.98L145.37 484.54L145.38 484.02L145.34 483.59L145.25 483.17L145.1 482.78L144.9 482.42L144.66 482.09L144.37 481.8L144.04 481.55L143.67 481.35L143.28 481.21L142.87 481.11L142.43 481.08L137.43 481.09L137.44 475.53L142.44 475.52L142.88 475.49L143.3 475.39L143.69 475.24L144.05 475.04L144.38 474.79L144.67 474.5L144.92 474.17L145.12 473.81L145.27 473.42L145.36 473L145.4 472.57L145.4 472.05L145.37 471.61L145.27 471.19L145.13 470.8L144.93 470.44L144.68 470.11L144.39 469.82L144.06 469.57L143.7 469.37L143.31 469.23L142.89 469.13L142.45 469.1L137.45 469.11L137.46 463.01L142.47 463L142.9 462.97L143.32 462.87L143.71 462.72L144.07 462.52L144.4 462.27L144.69 461.98L144.94 461.65L145.14 461.29L145.29 460.9L145.39 460.48L145.42 460.04L145.42 459.52L145.39 459.09L145.3 458.67L145.15 458.28L144.95 457.92L144.7 457.59L144.41 457.3L144.08 457.05L143.72 456.85L143.33 456.71L142.91 456.61L142.48 456.58L137.47 456.59L137.48 451.03L142.49 451.02L142.92 450.99L143.34 450.89L143.73 450.74L144.1 450.54L144.42 450.29L144.72 450L144.96 449.67L145.17 449.31L145.32 448.92L145.41 448.5L145.44 448.07L145.44 447.55L145.41 447.11L145.32 446.69L145.17 446.3L144.97 445.94L144.72 445.61L144.43 445.32L144.1 445.07L143.74 444.87L143.35 444.73L142.93 444.63L142.5 444.6L137.5 444.61L137.51 439.05L142.51 439.04L142.95 439.01L143.36 438.91L143.75 438.76L144.12 438.56L144.45 438.31L144.74 438.02L144.99 437.69L145.19 437.33L145.34 436.94L145.43 436.52L145.46 436.09L145.46 435.57L145.43 435.13L145.34 434.71L145.19 434.32L144.99 433.96L144.74 433.63L144.45 433.34L144.13 433.1L143.76 432.89L143.37 432.75L142.96 432.65L142.52 432.62L137.52 432.63L137.53 427.07L142.53 427.06L142.97 427.03L143.38 426.93L143.78 426.78L144.14 426.58L144.47 426.33L144.76 426.04L145.01 425.71L145.21 425.35L145.36 424.96L145.45 424.54L145.49 424.11L145.49 423.59L145.46 423.15L145.36 422.74L145.21 422.34L145.01 421.98L144.77 421.65L144.48 421.36L144.15 421.12L143.79 420.92L143.39 420.77L142.98 420.67L142.54 420.64L137.54 420.65L137.55 415.09L142.55 415.08L142.99 415.05L143.41 414.96L143.8 414.81L144.16 414.6L144.49 414.36L144.78 414.06L145.03 413.73L145.23 413.37L145.38 412.98L145.48 412.56L145.51 412.13L145.51 411.61L145.48 411.17L145.39 410.76L145.24 410.37L145.04 410L144.79 409.67L144.5 409.38L144.17 409.14L143.81 408.94L143.42 408.79L143 408.7L142.57 408.66L137.56 408.68L137.59 394.85L209.14 394.7L209.59 394.71L210.04 394.74ZM125.96 139.17L128.41 139.43L130.83 139.8L133.22 140.26L135.57 140.83L137.89 141.5L140.17 142.26L142.41 143.11L144.61 144.06L146.77 145.09L148.88 146.21L150.94 147.42L152.96 148.71L154.92 150.07L156.83 151.52L158.69 153.04L160.48 154.64L162.22 156.31L163.9 158.05L165.51 159.86L167.06 161.73L168.55 163.67L169.96 165.67L171.3 167.73L172.57 169.84L173.77 172.01L174.89 174.23L175.93 176.51L176.89 178.83L177.76 181.2L178.56 183.62L179.26 186.07L179.88 188.57L180.41 191.11L180.72 192.95L181.54 192.41L183.35 191.32L185.21 190.3L187.11 189.35L189.04 188.47L191.02 187.67L193.03 186.94L195.08 186.29L197.16 185.73L199.28 185.24L201.42 184.84L203.59 184.52L205.79 184.29L208.01 184.15L210.26 184.1L212.5 184.14L214.72 184.27L216.92 184.49L219.09 184.8L221.23 185.19L223.34 185.67L225.42 186.23L227.47 186.87L229.48 187.59L231.45 188.38L233.39 189.25L235.28 190.19L237.13 191.2L238.94 192.29L240.7 193.44L242.41 194.65L244.08 195.93L245.69 197.28L247.25 198.68L248.76 200.14L250.2 201.66L251.59 203.23L252.93 204.86L254.19 206.54L255.4 208.27L256.54 210.05L257.61 211.87L258.61 213.74L259.55 215.65L260.41 217.61L261.2 219.6L261.91 221.63L262.54 223.69L263.09 225.79L263.57 227.93L263.96 230.09L264.26 232.28L264.48 234.5L264.61 236.74L264.65 239.01L264.61 241.27L264.47 243.52L264.24 245.74L263.92 247.93L263.53 250.09L263.05 252.23L262.48 254.33L261.84 256.4L261.12 258.43L260.33 260.42L259.46 262.38L258.52 264.3L257.51 266.17L256.43 268L255.29 269.78L254.07 271.51L252.8 273.2L251.46 274.83L250.07 276.41L248.61 277.94L247.1 279.41L245.54 280.82L243.92 282.17L242.25 283.45L240.53 284.68L238.77 285.83L236.96 286.92L235.1 287.94L233.21 288.89L231.27 289.77L229.29 290.57L227.28 291.3L225.23 291.95L223.15 292.51L221.03 293L218.89 293.4L216.72 293.72L214.52 293.95L212.3 294.09L210.05 294.14L208.39 294.11L208.25 367.23L208.24 367.81L208.2 368.39L208.14 368.96L208.06 369.52L207.96 370.07L207.84 370.62L207.69 371.16L207.53 371.69L207.34 372.21L207.14 372.72L206.91 373.22L206.67 373.71L206.41 374.19L206.13 374.66L205.83 375.12L205.52 375.56L205.19 375.99L204.85 376.41L204.49 376.82L204.11 377.21L203.72 377.58L203.32 377.94L202.9 378.29L202.47 378.62L202.02 378.93L201.57 379.23L201.1 379.5L200.62 379.77L200.13 380.01L199.63 380.23L199.12 380.44L198.59 380.62L198.06 380.79L197.53 380.93L196.98 381.06L196.42 381.16L195.86 381.24L195.29 381.3L194.72 381.34L194.14 381.35L75.54 381.6L74.96 381.59L74.39 381.55L73.82 381.5L73.26 381.42L72.71 381.32L72.16 381.2L71.62 381.05L71.09 380.89L70.57 380.7L70.06 380.5L69.56 380.28L69.07 380.04L68.6 379.78L68.13 379.5L67.67 379.21L67.23 378.89L66.8 378.57L66.38 378.22L65.98 377.86L65.59 377.49L65.22 377.1L64.86 376.7L64.51 376.28L64.18 375.85L63.87 375.41L63.58 374.95L63.3 374.48L63.04 374.01L62.8 373.52L62.58 373.02L62.37 372.51L62.19 371.99L62.02 371.46L61.88 370.92L61.76 370.37L61.66 369.82L61.58 369.26L61.52 368.69L61.49 368.12L61.48 367.54L61.57 314.86L60.93 314.96L58.82 315.18L56.7 315.31L54.56 315.34L52.4 315.27L50.25 315.11L48.12 314.86L46.02 314.51L43.95 314.08L41.91 313.56L39.91 312.95L37.94 312.25L36 311.48L34.11 310.62L32.25 309.68L30.43 308.67L28.66 307.59L26.93 306.43L25.25 305.2L23.61 303.9L22.02 302.54L20.49 301.11L19 299.62L17.57 298.07L16.2 296.46L14.88 294.79L13.62 293.07L12.42 291.29L11.28 289.46L10.21 287.59L9.2 285.66L8.25 283.7L7.38 281.68L6.58 279.63L5.84 277.54L5.18 275.41L4.6 273.24L4.09 271.05L3.65 268.82L3.3 266.56L3.03 264.27L2.84 261.96L2.74 259.62L2.72 257.26L2.79 254.88L2.94 252.51L3.18 250.16L3.51 247.85L3.92 245.57L4.4 243.32L4.97 241.11L5.61 238.93L6.32 236.8L7.11 234.7L7.97 232.65L8.89 230.65L9.89 228.69L10.95 226.78L12.07 224.92L13.26 223.11L14.5 221.35L15.81 219.65L17.17 218.01L18.59 216.42L20.06 214.9L21.58 213.44L23.15 212.04L24.77 210.71L26.43 209.45L28.14 208.26L29.89 207.13L31.68 206.09L33.51 205.11L35.38 204.21L37.28 203.4L39.22 202.66L41.19 202L43.18 201.43L45.21 200.94L47.26 200.54L49.34 200.23L51.44 200.01L53.56 199.88L55.7 199.85L57.86 199.91L60.02 200.07L60.27 200.1L60.32 199.18L60.57 196.54L60.92 193.93L61.37 191.36L61.9 188.82L62.53 186.32L63.25 183.86L64.05 181.44L64.93 179.07L65.9 176.74L66.95 174.46L68.08 172.23L69.28 170.06L70.56 167.94L71.91 165.87L73.33 163.87L74.82 161.92L76.38 160.05L78 158.23L79.68 156.48L81.43 154.81L83.23 153.2L85.09 151.67L87 150.22L88.97 148.84L90.99 147.54L93.06 146.33L95.17 145.2L97.34 144.16L99.54 143.2L101.78 142.34L104.07 141.57L106.39 140.89L108.74 140.32L111.13 139.84L113.55 139.46L116 139.19L118.48 139.02L120.98 138.96L123.49 139.01L125.96 139.17ZM107.73 300.05L106.47 300.36L105.26 300.77L104.09 301.3L102.98 301.92L101.93 302.64L100.94 303.45L100.02 304.34L99.18 305.31L98.42 306.35L97.74 307.47L97.15 308.64L96.65 309.87L96.26 311.15L95.97 312.48L95.79 313.85L95.73 315.25L95.78 316.66L95.96 318.03L96.24 319.35L96.63 320.63L97.12 321.86L97.71 323.03L98.38 324.14L99.14 325.18L99.98 326.15L100.9 327.04L101.88 327.85L102.93 328.56L104.04 329.18L105.21 329.7L106.42 330.11L107.67 330.41L108.97 330.59L110.29 330.65L111.62 330.59L112.92 330.4L114.17 330.09L115.39 329.68L116.55 329.15L117.66 328.53L118.71 327.81L119.7 327L120.62 326.11L121.46 325.14L122.23 324.09L122.91 322.98L123.5 321.81L123.99 320.58L124.39 319.29L124.68 317.97L124.85 316.6L124.92 315.19L124.86 313.79L124.69 312.42L124.4 311.1L124.01 309.81L123.52 308.59L122.94 307.41L122.26 306.3L121.5 305.26L120.66 304.3L119.74 303.41L118.76 302.6L117.71 301.89L116.6 301.27L115.44 300.75L114.23 300.34L112.97 300.04L111.68 299.86L110.35 299.8L109.02 299.86L107.73 300.05ZM168.34 289.7L167.13 289.94L165.95 290.25L164.8 290.66L163.69 291.14L162.61 291.7L161.57 292.33L160.57 293.04L159.61 293.81L158.71 294.65L157.85 295.55L157.04 296.51L156.29 297.52L155.6 298.59L154.97 299.7L154.4 300.87L153.9 302.07L153.47 303.32L153.11 304.61L152.83 305.93L152.62 307.28L152.49 308.65L152.45 310.06L152.49 311.46L152.61 312.84L152.81 314.19L153.09 315.5L153.45 316.79L153.87 318.03L154.37 319.24L154.93 320.4L155.56 321.51L156.25 322.58L156.99 323.59L157.8 324.54L158.65 325.44L159.55 326.27L160.51 327.04L161.5 327.74L162.54 328.37L163.62 328.93L164.73 329.41L165.88 329.8L167.06 330.12L168.27 330.34L169.5 330.48L170.76 330.53L172.01 330.48L173.24 330.33L174.45 330.1L175.63 329.78L176.78 329.38L177.9 328.9L178.98 328.34L180.02 327.7L181.02 327L181.97 326.23L182.88 325.39L183.74 324.49L184.54 323.53L185.29 322.52L185.98 321.45L186.61 320.33L187.18 319.17L187.68 317.96L188.11 316.72L188.47 315.43L188.76 314.11L188.97 312.76L189.09 311.38L189.14 309.98L189.1 308.58L188.98 307.2L188.77 305.85L188.49 304.53L188.14 303.25L187.71 302L187.22 300.8L186.65 299.64L186.03 298.52L185.34 297.46L184.59 296.45L183.79 295.49L182.94 294.6L182.03 293.76L181.08 292.99L180.08 292.29L179.04 291.66L177.97 291.11L176.85 290.63L175.7 290.23L174.53 289.92L173.32 289.69L172.09 289.56L170.83 289.51L169.57 289.56L168.34 289.7Z" id="b4FJi9V82T"></path><path d="M546.71 407.2L546.98 407.23L547.24 407.27L547.5 407.31L547.76 407.37L548.02 407.44L548.27 407.52L548.52 407.61L548.76 407.7L548.99 407.81L549.23 407.92L549.45 408.05L549.67 408.18L549.89 408.32L550.1 408.47L550.3 408.62L550.5 408.78L550.69 408.96L550.88 409.13L551.06 409.32L551.23 409.51L551.39 409.71L551.55 409.91L551.69 410.12L551.83 410.34L551.97 410.56L552.09 410.79L552.2 411.02L552.31 411.25L552.41 411.5L552.49 411.74L552.57 411.99L552.64 412.25L552.7 412.51L552.75 412.77L552.78 413.04L552.81 413.31L552.83 413.58L552.83 413.85L552.83 427.2L552.83 427.48L552.81 427.75L552.78 428.02L552.78 428.04L552.81 428.59L552.83 429.51L552.83 500.1L552.81 501.02L552.76 501.93L552.67 502.83L552.54 503.72L552.38 504.6L552.18 505.47L551.96 506.32L551.69 507.16L551.4 507.98L551.08 508.79L550.72 509.59L550.34 510.36L549.93 511.12L549.49 511.86L549.02 512.59L548.52 513.29L548 513.97L547.46 514.63L546.89 515.27L546.29 515.89L545.68 516.49L545.04 517.06L544.37 517.6L543.69 518.12L542.99 518.62L542.27 519.09L541.52 519.53L540.76 519.94L539.99 520.32L539.19 520.68L538.39 521L537.56 521.29L536.72 521.55L535.87 521.78L535 521.98L534.12 522.14L533.23 522.27L532.33 522.36L531.42 522.41L530.5 522.43L430.48 522.43L429.56 522.41L428.65 522.36L427.75 522.27L426.86 522.14L425.98 521.98L425.11 521.78L424.26 521.55L423.42 521.29L422.6 521L421.79 520.68L420.99 520.32L420.22 519.94L419.46 519.53L418.72 519.09L417.99 518.62L417.29 518.12L416.61 517.6L415.95 517.06L415.31 516.49L414.69 515.89L414.1 515.27L413.52 514.63L412.98 513.97L412.46 513.29L411.96 512.59L411.49 511.86L411.05 511.12L410.64 510.36L410.26 509.59L409.9 508.79L409.58 507.98L409.29 507.16L409.03 506.32L408.8 505.47L408.6 504.6L408.44 503.72L408.31 502.83L408.22 501.93L408.17 501.02L408.15 500.1L408.15 433.88L310.37 433.88L310.09 433.87L309.82 433.85L309.55 433.83L309.28 433.79L309.02 433.74L308.76 433.68L308.51 433.61L308.26 433.53L308.01 433.45L307.77 433.35L307.53 433.24L307.3 433.13L307.07 433.01L306.85 432.88L306.64 432.74L306.43 432.59L306.22 432.43L306.02 432.27L305.83 432.1L305.65 431.92L305.47 431.74L305.3 431.54L305.14 431.35L304.98 431.14L304.83 430.93L304.69 430.72L304.56 430.5L304.44 430.27L304.32 430.04L304.22 429.8L304.12 429.56L304.03 429.31L303.95 429.06L303.89 428.8L303.83 428.55L303.78 428.28L303.74 428.02L303.71 427.75L303.7 427.48L303.69 427.2L303.69 413.85L303.7 413.58L303.71 413.31L303.74 413.04L303.78 412.77L303.83 412.51L303.89 412.25L303.95 411.99L304.03 411.74L304.12 411.5L304.22 411.25L304.32 411.02L304.44 410.79L304.56 410.56L304.69 410.34L304.83 410.12L304.98 409.91L305.14 409.71L305.3 409.51L305.47 409.32L305.65 409.13L305.83 408.96L306.02 408.78L306.22 408.62L306.43 408.47L306.64 408.32L306.85 408.18L307.07 408.05L307.3 407.92L307.53 407.81L307.77 407.7L308.01 407.61L308.26 407.52L308.51 407.44L308.76 407.37L309.02 407.31L309.28 407.27L309.55 407.23L309.82 407.2L310.09 407.18L310.37 407.18L546.16 407.18L546.43 407.18L546.71 407.2ZM611.95 347.68L614.53 348.59L616.98 349.52L619.31 350.48L621.52 351.47L623.59 352.49L625.54 353.53L627.34 354.59L629.01 355.68L630.54 356.79L631.92 357.91L633.15 359.06L634.22 360.23L635.14 361.42L635.9 362.62L636.5 363.84L636.93 365.07L637.19 366.31L637.28 367.57L637.19 368.83L636.93 370.08L636.5 371.31L635.9 372.53L635.14 373.73L634.22 374.92L633.15 376.09L631.92 377.24L630.54 378.36L629.01 379.47L627.34 380.56L625.54 381.62L623.59 382.66L621.52 383.68L619.31 384.67L616.98 385.63L614.53 386.56L611.95 387.47L609.27 388.35L606.46 389.19L603.56 390.01L600.54 390.79L597.42 391.54L594.21 392.25L590.9 392.93L587.5 393.57L584 394.17L580.43 394.74L576.77 395.26L573.03 395.75L569.22 396.19L565.34 396.59L561.6 396.93L564.5 396.46L568.49 395.75L572.39 394.99L576.17 394.19L579.85 393.35L583.42 392.47L586.86 391.54L590.19 390.58L593.4 389.58L596.47 388.55L599.41 387.48L602.22 386.38L604.89 385.24L607.41 384.08L609.78 382.88L612.01 381.65L614.07 380.4L615.98 379.11L617.73 377.81L619.31 376.48L620.71 375.12L621.94 373.74L623 372.34L623.87 370.93L624.55 369.49L625.04 368.03L625.34 366.56L625.44 365.08L625.34 363.59L625.04 362.12L624.55 360.67L623.87 359.23L623 357.81L621.94 356.41L620.71 355.03L619.31 353.68L617.73 352.35L615.98 351.04L614.07 349.76L612.01 348.5L609.78 347.28L608.22 346.49L609.27 346.8L611.95 347.68ZM582.81 317.41L583.89 318.62L584.93 319.87L585.91 321.15L586.84 322.46L587.71 323.81L588.53 325.2L589.29 326.61L589.99 328.06L590.64 329.53L591.22 331.04L591.74 332.57L592.19 334.12L592.58 335.7L592.9 337.3L593.15 338.92L593.33 340.56L593.44 342.22L593.48 343.89L593.44 345.57L593.33 347.23L593.15 348.87L592.9 350.49L592.58 352.09L592.19 353.67L591.74 355.22L591.22 356.75L590.64 358.26L589.99 359.73L589.29 361.18L588.53 362.59L587.71 363.98L586.84 365.33L585.91 366.64L584.93 367.92L583.89 369.17L582.81 370.37L581.68 371.54L580.5 372.67L579.27 373.75L578 374.79L576.69 375.79L575.34 376.74L573.94 377.64L572.51 378.49L571.04 379.3L569.53 380.05L567.99 380.75L566.42 381.39L564.81 381.98L563.18 382.52L561.6 382.97L562.82 382.34L564.5 381.39L566.14 380.38L567.74 379.32L569.29 378.2L570.79 377.02L572.24 375.8L573.64 374.52L574.99 373.19L576.29 371.81L577.53 370.39L578.71 368.92L579.83 367.41L580.9 365.86L581.9 364.26L582.83 362.63L583.7 360.96L584.51 359.25L585.24 357.51L585.91 355.74L586.5 353.94L587.02 352.1L587.46 350.24L587.83 348.36L588.12 346.44L588.32 344.51L588.45 342.55L588.49 340.57L588.45 338.59L588.32 336.63L588.12 334.7L587.83 332.79L587.46 330.9L587.02 329.04L586.5 327.2L585.91 325.4L585.24 323.63L584.51 321.89L583.7 320.18L582.83 318.51L581.9 316.88L581.24 315.83L581.68 316.25L582.81 317.41ZM359.43 246.86L357.61 250.09L355.94 253.4L354.41 256.77L353.02 260.2L351.79 263.7L350.71 267.25L349.78 270.85L349.02 274.51L348.42 278.21L347.99 281.96L347.73 285.76L347.64 289.59L347.73 293.42L347.99 297.21L348.42 300.96L349.02 304.67L349.78 308.32L350.71 311.93L351.79 315.48L353.02 318.97L354.41 322.41L355.94 325.78L357.61 329.08L359.43 332.32L361.38 335.48L363.46 338.57L365.67 341.57L368.01 344.5L370.47 347.35L373.05 350.1L375.75 352.77L378.56 355.34L381.48 357.82L384.51 360.2L387.63 362.47L390.86 364.64L394.18 366.7L397.6 368.65L401.1 370.49L403.64 371.71L400.36 370.84L396.96 369.8L393.61 368.66L390.34 367.41L387.13 366.05L383.99 364.6L380.93 363.04L377.94 361.39L375.04 359.64L372.22 357.8L369.48 355.87L366.84 353.86L364.29 351.76L361.83 349.58L359.47 347.32L357.22 344.98L355.06 342.57L353.02 340.09L351.08 337.54L349.26 334.92L347.56 332.24L345.97 329.5L344.51 326.7L343.17 323.84L341.96 320.93L340.88 317.97L339.94 314.96L339.13 311.9L338.46 308.81L337.94 305.67L337.56 302.49L337.33 299.27L337.25 296.03L337.33 292.78L337.56 289.56L337.94 286.39L338.46 283.25L339.13 280.15L339.94 277.09L340.88 274.08L341.96 271.12L343.17 268.21L344.51 265.35L345.97 262.55L347.56 259.81L349.26 257.13L351.08 254.51L353.02 251.96L355.06 249.48L357.22 247.07L359.47 244.74L361.83 242.48L362.75 241.66L361.38 243.7L359.43 246.86ZM492.47 301.6L493.7 302.1L494.84 302.76L495.88 303.58L496.79 304.54L497.58 305.62L498.21 306.82L498.68 308.11L498.97 309.48L499.07 310.91L498.97 312.35L498.9 312.71L501.08 313.08L503.41 313.51L505.7 313.97L507.95 314.47L510.15 315L512.31 315.56L514.43 316.15L516.5 316.77L518.52 317.42L520.48 318.1L522.4 318.8L524.26 319.53L526.06 320.28L527.8 321.06L529.48 321.86L531.1 322.68L532.65 323.53L534.14 324.39L535.56 325.27L536.91 326.17L538.18 327.08L539.38 328.01L540.51 328.95L541.56 329.91L542.53 330.88L543.41 331.87L544.22 332.86L544.93 333.86L545.56 334.88L546.1 335.89L546.55 336.92L546.91 337.95L547.17 338.99L547.19 339.09L555.46 339.83L556.04 339.89L556.61 339.98L557.17 340.09L557.72 340.21L558.26 340.36L558.79 340.53L559.32 340.73L559.83 340.94L560.33 341.16L560.82 341.41L561.3 341.68L561.77 341.96L562.22 342.26L562.66 342.58L563.09 342.91L563.51 343.26L563.91 343.62L564.29 344L564.66 344.39L565.02 344.8L565.36 345.22L565.68 345.65L565.99 346.1L566.28 346.55L566.56 347.02L566.81 347.5L567.05 347.99L567.27 348.49L567.47 348.99L567.65 349.51L567.81 350.04L567.95 350.57L568.07 351.11L568.17 351.66L568.25 352.21L568.3 352.77L568.34 353.34L568.35 353.91L568.34 354.48L568.3 355.06L568.24 355.63L568.16 356.2L568.06 356.76L567.93 357.31L567.79 357.85L567.62 358.38L567.44 358.9L567.23 359.41L567 359.91L566.76 360.4L566.5 360.88L566.22 361.34L565.92 361.79L565.61 362.23L565.28 362.66L564.93 363.07L564.57 363.47L564.19 363.85L563.8 364.22L563.4 364.58L562.98 364.92L562.55 365.24L562.11 365.54L561.65 365.83L561.19 366.1L560.71 366.36L560.23 366.59L559.73 366.81L559.22 367.01L558.71 367.18L558.19 367.34L557.66 367.48L557.12 367.6L556.57 367.69L556.02 367.77L555.47 367.82L554.9 367.85L554.34 367.86L553.76 367.84L553.19 367.8L493.98 362.53L492.25 362.48L489.81 362.37L487.33 362.21L484.84 362.01L482.35 361.77L479.89 361.48L477.46 361.16L475.7 360.9L414.82 355.48L414.25 355.42L413.68 355.33L413.12 355.23L412.57 355.1L412.02 354.95L411.49 354.78L410.97 354.59L410.46 354.38L409.96 354.15L409.47 353.9L408.99 353.63L408.52 353.35L408.07 353.05L407.62 352.73L407.2 352.4L406.78 352.05L406.38 351.69L405.99 351.31L405.62 350.92L405.27 350.51L404.93 350.09L404.6 349.66L404.29 349.22L404 348.76L403.73 348.29L403.47 347.81L403.24 347.32L403.02 346.83L402.82 346.32L402.64 345.8L402.48 345.28L402.34 344.74L402.22 344.2L402.12 343.65L402.04 343.1L401.98 342.54L401.95 341.98L401.94 341.41L401.95 340.83L401.98 340.25L402.04 339.68L402.12 339.11L402.23 338.55L402.35 338L402.5 337.46L402.67 336.93L402.85 336.41L403.06 335.9L403.28 335.4L403.53 334.91L403.79 334.44L404.07 333.97L404.37 333.52L404.68 333.08L405.01 332.65L405.36 332.24L405.72 331.84L406.09 331.46L406.49 331.09L406.89 330.73L407.31 330.4L407.74 330.07L408.18 329.77L408.63 329.48L409.1 329.21L409.57 328.96L410.06 328.72L410.56 328.5L411.06 328.31L411.58 328.13L412.1 327.97L412.63 327.83L413.17 327.72L413.71 327.62L414.26 327.55L414.82 327.49L415.38 327.46L415.95 327.46L416.52 327.47L417.1 327.51L427.09 328.4L427.11 328.32L427.54 327.34L428.06 326.39L428.67 325.46L429.36 324.55L430.15 323.66L431.02 322.8L431.97 321.96L433 321.15L434.11 320.36L435.3 319.6L436.56 318.87L437.9 318.17L439.3 317.49L440.77 316.84L442.32 316.23L443.92 315.64L445.59 315.08L447.31 314.56L449.1 314.07L450.94 313.61L452.84 313.18L454.79 312.79L456.79 312.44L458.84 312.12L460.93 311.83L463.07 311.59L465.25 311.38L467.47 311.2L469.73 311.07L472.03 310.98L474.36 310.92L476.72 310.91L479.11 310.94L480.5 310.98L480.49 310.91L480.59 309.48L480.88 308.11L481.36 306.82L481.99 305.62L482.77 304.54L483.69 303.58L484.73 302.76L485.87 302.1L487.1 301.6L488.41 301.3L489.78 301.19L491.16 301.3L492.47 301.6ZM332.67 292.51L332 294.55L331.41 296.62L330.91 298.72L330.48 300.85L330.14 303L329.88 305.17L329.7 307.36L329.61 309.57L329.61 311.79L329.7 314.03L329.88 316.27L330.16 318.53L330.52 320.77L330.97 322.97L331.51 325.14L332.13 327.27L332.83 329.35L333.61 331.39L334.46 333.39L335.39 335.34L336.39 337.25L337.46 339.1L338.6 340.91L339.8 342.66L341.07 344.36L342.4 346L343.79 347.59L345.24 349.12L346.75 350.59L348.31 352L349.93 353.35L351.59 354.64L353.3 355.86L355.06 357.01L356.86 358.09L358.71 359.11L360.59 360.05L362.51 360.92L364.47 361.72L365.89 362.23L364.12 361.98L362.28 361.65L360.46 361.24L358.67 360.77L356.9 360.23L355.16 359.63L353.45 358.96L351.77 358.23L350.13 357.44L348.52 356.59L346.95 355.68L345.42 354.7L343.93 353.68L342.48 352.6L341.08 351.46L339.72 350.27L338.41 349.03L337.15 347.73L335.94 346.39L334.78 345L333.68 343.57L332.63 342.08L331.64 340.56L330.71 338.99L329.85 337.38L329.04 335.73L328.31 334.04L327.63 332.31L327.03 330.54L326.5 328.74L326.04 326.91L325.65 325.04L325.34 323.14L325.11 321.23L324.96 319.32L324.89 317.43L324.9 315.54L324.98 313.67L325.14 311.81L325.38 309.97L325.69 308.15L326.07 306.34L326.52 304.56L327.04 302.8L327.63 301.06L328.29 299.35L329.01 297.67L329.79 296.02L330.64 294.4L331.55 292.81L332.51 291.26L333.54 289.74L333.95 289.19L333.41 290.49L332.67 292.51ZM339.86 166.13L340.77 167.7L341.62 169.32L342.42 170.97L343.16 172.66L343.84 174.38L344.46 176.13L345.02 177.92L345.52 179.73L345.96 181.57L346.32 183.44L346.63 185.32L346.86 187.24L347.03 189.17L347.13 191.12L347.15 193.08L347.11 195.06L346.99 197.05L346.79 199.06L346.52 201.05L346.18 203.02L345.78 204.95L345.3 206.86L344.76 208.73L344.16 210.56L343.5 212.36L342.77 214.11L341.99 215.83L341.14 217.51L340.25 219.15L339.3 220.74L338.29 222.29L337.24 223.79L336.13 225.24L334.98 226.65L333.78 228L332.54 229.31L331.26 230.55L329.93 231.75L328.56 232.89L327.16 233.97L325.72 234.99L324.24 235.95L322.73 236.85L321.19 237.69L319.62 238.47L318.02 239.17L316.4 239.81L314.74 240.39L313.07 240.89L311.37 241.32L309.75 241.66L311.05 241.06L312.85 240.14L314.61 239.15L316.34 238.08L318.04 236.94L319.69 235.73L321.3 234.44L322.87 233.09L324.39 231.68L325.87 230.2L327.3 228.66L328.67 227.06L330 225.39L331.27 223.68L332.48 221.9L333.63 220.07L334.73 218.19L335.76 216.25L336.73 214.27L337.64 212.24L338.48 210.16L339.24 208.04L339.94 205.88L340.57 203.67L341.12 201.42L341.59 199.14L341.98 196.82L342.3 194.47L342.53 192.1L342.68 189.75L342.74 187.41L342.72 185.1L342.61 182.8L342.43 180.52L342.17 178.27L341.83 176.04L341.42 173.84L340.93 171.68L340.36 169.54L339.73 167.44L339.03 165.37L338.52 164.04L338.9 164.59L339.86 166.13ZM322.28 148.75L322.95 148.93L323.65 149.19L324.36 149.54L325.1 149.96L325.85 150.47L326.62 151.05L327.4 151.71L328.2 152.44L329.02 153.25L329.84 154.12L330.68 155.07L331.53 156.09L332.38 157.17L333.25 158.32L334.12 159.53L334.45 160.01L333.81 159.35L332.87 158.43L331.94 157.6L331.02 156.85L330.12 156.19L329.25 155.62L328.39 155.15L327.55 154.76L326.73 154.47L325.94 154.27L325.18 154.17L324.44 154.17L323.72 154.27L323.04 154.48L322.39 154.79L321.78 155.19L321.22 155.69L320.7 156.29L320.22 156.97L319.78 157.75L319.38 158.61L319.02 159.56L318.71 160.59L318.43 161.7L318.2 162.89L318 164.15L317.85 165.49L317.73 166.9L317.66 168.38L317.63 169.93L317.63 171.54L317.68 173.22L317.76 174.96L317.88 176.75L318.05 178.61L318.25 180.52L318.49 182.48L318.77 184.49L319.08 186.54L319.44 188.65L319.83 190.8L320.13 192.35L319.62 190.39L319.11 188.35L318.63 186.35L318.18 184.37L317.76 182.42L317.38 180.51L317.03 178.64L316.71 176.8L316.42 175.01L316.17 173.25L315.95 171.54L315.76 169.88L315.61 168.26L315.49 166.7L315.4 165.18L315.35 163.72L315.33 162.32L315.35 160.97L315.4 159.68L315.48 158.45L315.6 157.29L315.76 156.19L315.95 155.16L316.17 154.19L316.43 153.3L316.73 152.47L317.06 151.73L317.43 151.06L317.83 150.46L318.27 149.95L318.75 149.52L319.26 149.17L319.81 148.91L320.39 148.74L320.99 148.65L321.62 148.66L322.28 148.75ZM360.48 117.75L361.63 118.01L362.74 118.38L363.8 118.87L364.82 119.47L365.77 120.18L366.65 120.98L367.48 121.89L368.24 122.89L368.94 123.99L369.57 125.18L370.15 126.46L370.66 127.83L371.11 129.28L371.5 130.81L371.83 132.42L372.1 134.11L372.3 135.87L372.45 137.7L372.53 139.6L372.56 141.57L372.52 143.59L372.43 145.68L372.28 147.83L372.06 150.04L371.79 152.29L371.46 154.6L371.07 156.96L370.62 159.36L370.11 161.8L369.55 164.28L368.93 166.8L368.25 169.36L367.51 171.95L366.72 174.57L365.87 177.21L365.01 179.74L365.5 177.69L366.13 174.84L366.69 172.03L367.18 169.28L367.6 166.57L367.96 163.92L368.25 161.33L368.47 158.79L368.62 156.32L368.7 153.92L368.72 151.58L368.66 149.32L368.53 147.13L368.34 145.02L368.07 142.99L367.73 141.04L367.33 139.19L366.85 137.42L366.3 135.74L365.68 134.16L364.99 132.68L364.23 131.3L363.39 130.02L362.49 128.86L361.51 127.8L360.46 126.86L359.33 126.03L358.14 125.33L356.88 124.75L355.57 124.3L354.22 123.99L352.83 123.8L351.39 123.74L349.91 123.81L348.4 123.99L346.85 124.3L345.27 124.73L343.66 125.28L342.02 125.94L340.36 126.71L338.67 127.6L337.54 128.25L338.12 127.72L339.66 126.39L341.19 125.15L342.71 123.99L344.21 122.92L345.7 121.94L347.17 121.06L348.62 120.27L350.05 119.58L351.46 118.99L352.84 118.5L354.19 118.11L355.51 117.82L356.81 117.64L358.07 117.57L359.29 117.6L360.48 117.75Z" id="g2NjEimLLn"></path></defs><g><g><g><use xlink:href="#b4FJi9V82T" opacity="1" fill="#343a40" fill-opacity="1"></use></g><g><use xlink:href="#g2NjEimLLn" opacity="1" fill="#343a40" fill-opacity="1"></use></g></g></g></svg>