<?xml version="1.0" encoding="UTF-8" standalone="no"?>
<!DOCTYPE svg PUBLIC "-//W3C//DTD SVG 1.1//EN" "http://www.w3.org/Graphics/SVG/1.1/DTD/svg11.dtd">
<svg version="1.1" xmlns="http://www.w3.org/2000/svg" xmlns:xlink="http://www.w3.org/1999/xlink" preserveAspectRatio="xMidYMid meet" viewBox="0 0 640 640" width="640" height="640"><defs><path d="M346.23 1.06L359.13 2.37L371.88 4.19L384.46 6.51L396.86 9.31L409.08 12.58L421.1 16.33L432.91 20.52L444.51 25.16L455.88 30.24L467.01 35.74L477.89 41.65L488.51 47.97L498.86 54.68L508.94 61.78L518.72 69.24L528.2 77.07L537.38 85.25L546.23 93.77L554.75 102.62L562.93 111.8L570.76 121.28L578.22 131.06L585.32 141.14L592.03 151.49L598.35 162.11L604.26 172.99L609.76 184.12L614.84 195.49L619.48 207.09L623.67 218.9L627.42 230.92L630.69 243.14L633.49 255.54L635.81 268.12L637.63 280.87L638.94 293.77L639.73 306.82L640 320L639.73 333.18L638.94 346.23L637.63 359.13L635.81 371.88L633.49 384.46L630.69 396.86L627.42 409.08L623.67 421.1L619.48 432.91L614.84 444.51L609.76 455.88L604.26 467.01L598.35 477.89L592.03 488.51L585.32 498.86L578.22 508.94L570.76 518.72L562.93 528.2L554.75 537.38L546.23 546.23L537.38 554.75L528.2 562.93L518.72 570.76L508.94 578.22L498.86 585.32L488.51 592.03L477.89 598.35L467.01 604.26L461.82 606.83L461.96 461.92L461.94 461.18L461.9 460.44L461.83 459.72L461.73 459L461.6 458.29L461.44 457.59L461.25 456.9L461.04 456.22L460.81 455.55L460.55 454.9L460.26 454.26L459.95 453.63L459.62 453.02L459.26 452.42L458.89 451.84L458.49 451.27L458.07 450.72L457.62 450.18L457.16 449.67L456.68 449.17L456.18 448.69L455.67 448.23L455.13 447.79L454.58 447.37L454.01 446.97L453.43 446.59L452.83 446.23L452.22 445.9L451.59 445.59L450.95 445.3L450.3 445.04L449.63 444.81L448.95 444.6L448.26 444.41L447.56 444.26L446.85 444.13L446.14 444.02L445.41 443.95L444.67 443.91L443.93 443.89L326.61 444.01L326.59 465.26L334.8 465.25L335.24 465.27L335.67 465.32L336.08 465.42L336.48 465.55L336.87 465.71L337.24 465.9L337.58 466.13L337.91 466.38L338.21 466.66L338.49 466.96L338.74 467.29L338.97 467.64L339.16 468.01L339.33 468.39L339.45 468.79L339.55 469.21L339.61 469.64L339.63 470.08L339.63 470.27L339.61 470.71L339.55 471.14L339.45 471.56L339.32 471.96L339.16 472.35L338.96 472.71L338.74 473.06L338.49 473.39L338.21 473.69L337.9 473.97L337.58 474.23L337.23 474.45L336.86 474.64L336.47 474.81L336.07 474.94L335.66 475.03L335.23 475.09L334.79 475.11L326.58 475.12L326.58 483.67L334.78 483.66L335.22 483.68L335.65 483.74L336.06 483.83L336.46 483.96L336.85 484.13L337.22 484.32L337.56 484.54L337.89 484.8L338.19 485.07L338.47 485.38L338.73 485.7L338.95 486.05L339.14 486.42L339.31 486.81L339.44 487.21L339.53 487.62L339.59 488.05L339.61 488.49L339.61 488.69L339.59 489.13L339.53 489.56L339.43 489.97L339.3 490.38L339.14 490.76L338.95 491.13L338.72 491.48L338.47 491.8L338.19 492.11L337.89 492.39L337.56 492.64L337.21 492.86L336.84 493.06L336.46 493.22L336.05 493.35L335.64 493.45L335.21 493.51L334.77 493.53L326.57 493.54L326.56 502.09L334.76 502.08L335.2 502.1L335.63 502.15L336.04 502.25L336.45 502.38L336.83 502.54L337.2 502.73L337.55 502.96L337.87 503.21L338.18 503.49L338.46 503.79L338.71 504.12L338.93 504.47L339.13 504.84L339.29 505.22L339.42 505.62L339.51 506.04L339.57 506.47L339.59 506.91L339.59 507.1L339.57 507.54L339.51 507.97L339.42 508.39L339.29 508.79L339.12 509.18L338.93 509.54L338.7 509.89L338.45 510.22L338.17 510.52L337.87 510.8L337.54 511.06L337.19 511.28L336.82 511.47L336.44 511.64L336.04 511.77L335.62 511.86L335.19 511.92L334.75 511.94L326.55 511.95L326.54 520.5L334.74 520.49L335.18 520.51L335.61 520.57L336.03 520.66L336.43 520.79L336.81 520.96L337.18 521.15L337.53 521.37L337.85 521.63L338.16 521.9L338.44 522.21L338.69 522.53L338.91 522.88L339.11 523.25L339.27 523.64L339.4 524.04L339.49 524.45L339.55 524.88L339.57 525.32L339.57 525.52L339.55 525.96L339.49 526.39L339.4 526.8L339.27 527.21L339.1 527.59L338.91 527.96L338.68 528.31L338.43 528.63L338.15 528.94L337.85 529.22L337.52 529.47L337.17 529.69L336.81 529.89L336.42 530.05L336.02 530.18L335.6 530.28L335.17 530.34L334.73 530.36L326.53 530.37L326.52 538.92L334.72 538.91L335.16 538.93L335.59 538.98L336.01 539.08L336.41 539.21L336.8 539.37L337.16 539.56L337.51 539.79L337.84 540.04L338.14 540.32L338.42 540.62L338.67 540.95L338.9 541.3L339.09 541.66L339.25 542.05L339.38 542.45L339.48 542.87L339.53 543.3L339.55 543.74L339.55 543.93L339.53 544.37L339.47 544.8L339.38 545.22L339.25 545.62L339.09 546.01L338.89 546.37L338.67 546.72L338.41 547.05L338.13 547.35L337.83 547.63L337.5 547.88L337.16 548.11L336.79 548.3L336.4 548.47L336 548.6L335.58 548.69L335.15 548.75L334.71 548.77L326.51 548.78L326.5 558.16L334.7 558.15L335.14 558.17L335.57 558.23L335.99 558.33L336.39 558.45L336.78 558.62L337.14 558.81L337.49 559.04L337.82 559.29L338.12 559.57L338.4 559.87L338.65 560.2L338.88 560.54L339.07 560.91L339.23 561.3L339.36 561.7L339.46 562.11L339.52 562.54L339.53 562.98L339.53 563.18L339.51 563.62L339.46 564.05L339.36 564.47L339.23 564.87L339.07 565.25L338.87 565.62L338.65 565.97L338.39 566.3L338.12 566.6L337.81 566.88L337.48 567.13L337.14 567.36L336.77 567.55L336.38 567.71L335.98 567.84L335.56 567.94L335.14 568L334.7 568.02L326.49 568.03L326.48 576.58L334.69 576.57L335.13 576.59L335.56 576.65L335.97 576.74L336.37 576.87L336.76 577.03L337.13 577.23L337.47 577.45L337.8 577.7L338.1 577.98L338.38 578.29L338.63 578.61L338.86 578.96L339.05 579.33L339.22 579.71L339.34 580.11L339.44 580.53L339.5 580.96L339.52 581.4L339.52 581.59L339.5 582.03L339.44 582.46L339.34 582.88L339.21 583.28L339.05 583.67L338.85 584.04L338.63 584.38L338.38 584.71L338.1 585.01L337.79 585.29L337.47 585.55L337.12 585.77L336.75 585.97L336.36 586.13L335.96 586.26L335.55 586.35L335.12 586.41L334.68 586.43L326.47 586.44L326.46 594.99L334.67 594.98L335.11 595L335.54 595.06L335.95 595.15L336.35 595.28L336.74 595.45L337.11 595.64L337.45 595.87L337.78 596.12L338.08 596.4L338.36 596.7L338.62 597.03L338.84 597.37L339.03 597.74L339.2 598.13L339.33 598.53L339.42 598.94L339.48 599.37L339.5 599.81L339.5 600.01L339.48 600.45L339.42 600.88L339.32 601.3L339.19 601.7L339.03 602.08L338.84 602.45L338.61 602.8L338.36 603.13L338.08 603.43L337.78 603.71L337.45 603.96L337.1 604.19L336.73 604.38L336.35 604.54L335.94 604.67L335.53 604.77L335.1 604.83L334.66 604.85L326.46 604.86L326.45 613.31L334.75 613.3L335.19 613.32L335.62 613.38L336.04 613.47L336.44 613.6L336.83 613.77L337.2 613.96L337.55 614.19L337.88 614.44L338.19 614.72L338.47 615.03L338.72 615.36L338.95 615.71L339.14 616.08L339.31 616.46L339.44 616.87L339.53 617.29L339.59 617.72L339.61 618.16L339.61 618.43L339.59 618.87L339.53 619.3L339.43 619.72L339.3 620.13L339.14 620.51L338.94 620.88L338.72 621.23L338.46 621.56L338.18 621.87L337.87 622.15L337.55 622.4L337.2 622.63L336.82 622.83L336.44 622.99L336.03 623.12L335.61 623.22L335.18 623.28L334.74 623.3L326.44 623.31L326.42 639.87L326.52 639.87L320 640L312.75 639.85L312.76 623.32L304.46 623.33L304.02 623.31L303.59 623.25L303.17 623.16L302.77 623.02L302.38 622.86L302.01 622.67L301.66 622.44L301.33 622.19L301.02 621.91L300.74 621.6L300.49 621.27L300.26 620.92L300.07 620.55L299.9 620.16L299.77 619.76L299.68 619.34L299.62 618.91L299.6 618.47L299.6 618.2L299.62 617.76L299.68 617.33L299.78 616.91L299.91 616.5L300.07 616.11L300.27 615.74L300.49 615.39L300.75 615.06L301.03 614.76L301.34 614.48L301.66 614.22L302.01 614L302.39 613.8L302.77 613.64L303.18 613.51L303.6 613.41L304.03 613.35L304.47 613.33L312.77 613.32L312.78 604.87L304.58 604.88L304.14 604.86L303.71 604.8L303.29 604.71L302.89 604.58L302.51 604.42L302.14 604.22L301.79 604L301.47 603.74L301.16 603.47L300.88 603.16L300.63 602.84L300.41 602.49L300.21 602.12L300.05 601.74L299.92 601.33L299.83 600.92L299.77 600.49L299.75 600.05L299.75 599.85L299.77 599.41L299.83 598.98L299.92 598.57L300.05 598.17L300.22 597.78L300.41 597.41L300.64 597.06L300.89 596.74L301.17 596.43L301.47 596.15L301.8 595.9L302.15 595.68L302.51 595.48L302.9 595.32L303.3 595.19L303.72 595.09L304.15 595.03L304.59 595.01L312.79 595.01L312.8 586.46L304.6 586.46L304.16 586.44L303.73 586.39L303.31 586.29L302.91 586.16L302.52 586L302.16 585.81L301.81 585.58L301.48 585.33L301.18 585.05L300.9 584.75L300.65 584.42L300.42 584.07L300.23 583.71L300.07 583.32L299.94 582.92L299.84 582.5L299.79 582.07L299.77 581.63L299.77 581.44L299.79 581L299.85 580.57L299.94 580.15L300.07 579.75L300.23 579.36L300.43 579L300.65 578.65L300.91 578.32L301.19 578.02L301.49 577.74L301.82 577.49L302.16 577.26L302.53 577.07L302.92 576.9L303.32 576.77L303.74 576.68L304.17 576.62L304.61 576.6L312.81 576.59L312.82 568.04L304.61 568.05L304.17 568.03L303.75 567.97L303.33 567.88L302.93 567.75L302.54 567.59L302.18 567.39L301.83 567.17L301.5 566.91L301.2 566.64L300.92 566.33L300.67 566.01L300.44 565.66L300.25 565.29L300.09 564.91L299.96 564.5L299.86 564.09L299.8 563.66L299.78 563.22L299.78 563.02L299.81 562.58L299.86 562.15L299.96 561.74L300.09 561.34L300.25 560.95L300.45 560.58L300.67 560.23L300.92 559.91L301.2 559.6L301.51 559.32L301.83 559.07L302.18 558.85L302.55 558.65L302.94 558.49L303.34 558.36L303.75 558.26L304.18 558.2L304.62 558.18L312.83 558.18L312.84 548.79L304.63 548.8L304.19 548.78L303.76 548.72L303.35 548.63L302.95 548.5L302.56 548.34L302.19 548.14L301.85 547.92L301.52 547.67L301.22 547.39L300.94 547.09L300.69 546.76L300.46 546.41L300.27 546.04L300.1 545.66L299.98 545.26L299.88 544.84L299.82 544.41L299.8 543.97L299.8 543.78L299.82 543.34L299.88 542.91L299.98 542.49L300.11 542.09L300.27 541.7L300.47 541.33L300.69 540.99L300.94 540.66L301.22 540.36L301.53 540.08L301.85 539.82L302.2 539.6L302.57 539.4L302.96 539.24L303.36 539.11L303.77 539.02L304.2 538.96L304.64 538.94L312.85 538.93L312.86 530.38L304.65 530.39L304.21 530.37L303.78 530.31L303.37 530.22L302.97 530.09L302.58 529.92L302.21 529.73L301.87 529.51L301.54 529.25L301.24 528.97L300.96 528.67L300.7 528.34L300.48 528L300.29 527.63L300.12 527.24L299.99 526.84L299.9 526.43L299.84 526L299.82 525.56L299.82 525.36L299.84 524.92L299.9 524.49L300 524.08L300.13 523.67L300.29 523.29L300.48 522.92L300.71 522.57L300.96 522.24L301.24 521.94L301.54 521.66L301.87 521.41L302.22 521.18L302.59 520.99L302.97 520.83L303.38 520.7L303.79 520.6L304.22 520.54L304.66 520.52L312.87 520.51L312.87 511.96L304.67 511.97L304.23 511.95L303.8 511.9L303.39 511.8L302.98 511.67L302.6 511.51L302.23 511.31L301.88 511.09L301.56 510.84L301.25 510.56L300.97 510.26L300.72 509.93L300.5 509.58L300.3 509.21L300.14 508.83L300.01 508.43L299.92 508.01L299.86 507.58L299.84 507.14L299.84 506.95L299.86 506.51L299.92 506.08L300.01 505.66L300.14 505.26L300.31 504.87L300.5 504.5L300.73 504.16L300.98 503.83L301.26 503.53L301.56 503.25L301.89 502.99L302.24 502.77L302.61 502.57L302.99 502.41L303.39 502.28L303.81 502.19L304.24 502.13L304.68 502.11L312.88 502.1L312.89 493.55L304.69 493.56L304.25 493.54L303.82 493.48L303.4 493.39L303 493.26L302.62 493.09L302.25 492.9L301.9 492.68L301.57 492.42L301.27 492.14L300.99 491.84L300.74 491.51L300.52 491.17L300.32 490.8L300.16 490.41L300.03 490.01L299.94 489.6L299.88 489.17L299.86 488.73L299.86 488.53L299.88 488.09L299.94 487.66L300.03 487.25L300.16 486.84L300.33 486.46L300.52 486.09L300.75 485.74L301 485.41L301.28 485.11L301.58 484.83L301.91 484.58L302.26 484.35L302.62 484.16L303.01 484L303.41 483.87L303.83 483.77L304.26 483.71L304.7 483.69L312.9 483.68L312.91 475.13L304.71 475.14L304.27 475.12L303.84 475.07L303.42 474.97L303.02 474.84L302.63 474.68L302.27 474.48L301.92 474.26L301.59 474.01L301.29 473.73L301.01 473.43L300.76 473.1L300.53 472.75L300.34 472.38L300.18 472L300.05 471.6L299.95 471.18L299.9 470.75L299.88 470.31L299.88 470.12L299.9 469.68L299.96 469.25L300.05 468.83L300.18 468.43L300.34 468.04L300.54 467.68L300.76 467.33L301.02 467L301.3 466.7L301.6 466.42L301.93 466.16L302.27 465.94L302.64 465.74L303.03 465.58L303.43 465.45L303.85 465.36L304.28 465.3L304.72 465.28L312.92 465.27L312.94 444.02L195.63 444.14L194.88 444.16L194.14 444.2L193.42 444.28L192.7 444.38L191.99 444.51L191.29 444.67L190.6 444.86L189.92 445.07L189.25 445.3L188.6 445.57L187.96 445.85L187.33 446.16L186.71 446.5L186.11 446.85L185.53 447.23L184.96 447.63L184.41 448.06L183.87 448.5L183.36 448.96L182.86 449.44L182.38 449.94L181.91 450.46L181.47 450.99L181.05 451.54L180.65 452.11L180.27 452.7L179.92 453.3L179.58 453.91L179.27 454.54L178.98 455.18L178.72 455.83L178.48 456.5L178.27 457.18L178.09 457.87L177.93 458.57L177.8 459.28L177.7 460L177.62 460.73L177.58 461.46L177.56 462.21L177.42 606.45L172.99 604.26L162.11 598.35L151.49 592.03L141.14 585.32L131.06 578.22L121.28 570.76L111.8 562.93L102.62 554.75L93.77 546.23L85.25 537.38L77.07 528.2L69.24 518.72L61.78 508.94L54.68 498.86L47.97 488.51L41.65 477.89L35.74 467.01L30.24 455.88L25.16 444.51L20.52 432.91L16.33 421.1L12.58 409.08L9.31 396.86L6.51 384.46L4.19 371.88L2.37 359.13L1.06 346.23L0.27 333.18L0 320L0.27 306.82L1.06 293.77L2.37 280.87L4.19 268.12L6.51 255.54L9.31 243.14L12.58 230.92L16.33 218.9L20.52 207.09L25.16 195.49L30.24 184.12L35.74 172.99L41.65 162.11L47.97 151.49L54.68 141.14L61.78 131.06L69.24 121.28L77.07 111.8L85.25 102.62L93.77 93.77L102.62 85.25L111.8 77.07L121.28 69.24L131.06 61.78L141.14 54.68L151.49 47.97L162.11 41.65L172.99 35.74L184.12 30.24L195.49 25.16L207.09 20.52L218.9 16.33L230.92 12.58L243.14 9.31L255.54 6.51L268.12 4.19L280.87 2.37L293.77 1.06L306.82 0.27L320 0L333.18 0.27L346.23 1.06ZM290.84 50.96L286.83 51.38L282.86 51.95L278.94 52.69L275.08 53.57L271.28 54.6L267.53 55.78L263.86 57.11L260.24 58.57L256.7 60.17L253.24 61.9L249.85 63.77L246.54 65.76L243.32 67.87L240.18 70.1L237.13 72.45L234.18 74.92L231.32 77.49L228.56 80.18L225.9 82.96L223.36 85.85L220.92 88.83L218.59 91.91L216.38 95.08L214.29 98.34L212.32 101.68L210.47 105.11L208.76 108.61L207.17 112.18L205.72 115.83L204.41 119.55L203.25 123.33L202.22 127.17L201.35 131.07L200.62 135.03L200.05 139.04L199.64 143.1L199.55 144.52L199.14 144.47L195.61 144.22L192.07 144.12L188.56 144.17L185.08 144.36L181.64 144.69L178.23 145.17L174.87 145.78L171.55 146.53L168.27 147.4L165.05 148.41L161.87 149.54L158.75 150.8L155.69 152.17L152.69 153.67L149.76 155.28L146.89 157L144.09 158.83L141.36 160.77L138.71 162.81L136.14 164.96L133.65 167.2L131.24 169.54L128.92 171.97L126.69 174.49L124.56 177.11L122.51 179.8L120.57 182.58L118.73 185.44L117 188.38L115.37 191.39L113.85 194.47L112.45 197.62L111.16 200.84L109.99 204.12L108.95 207.46L108.02 210.86L107.23 214.32L106.57 217.82L106.04 221.38L105.65 224.99L105.39 228.63L105.29 232.29L105.32 235.92L105.49 239.51L105.81 243.06L106.26 246.58L106.84 250.05L107.55 253.48L108.39 256.86L109.35 260.19L110.44 263.47L111.64 266.68L112.96 269.84L114.4 272.93L115.95 275.96L117.61 278.92L119.37 281.8L121.24 284.61L123.21 287.34L125.28 290L127.44 292.56L129.7 295.04L132.05 297.43L134.48 299.72L137 301.92L139.61 304.02L142.29 306.02L145.06 307.91L147.89 309.69L150.8 311.36L153.78 312.92L156.83 314.36L159.94 315.68L163.11 316.88L166.34 317.95L169.63 318.89L172.98 319.7L176.37 320.37L179.81 320.9L183.3 321.3L186.83 321.55L190.37 321.65L193.88 321.6L197.36 321.41L200.8 321.07L201.87 320.93L201.79 400.46L201.81 401.41L201.86 402.35L201.96 403.28L202.09 404.2L202.25 405.11L202.46 406.01L202.69 406.89L202.96 407.75L203.26 408.61L203.6 409.44L203.96 410.26L204.36 411.07L204.79 411.85L205.24 412.62L205.72 413.37L206.24 414.09L206.77 414.8L207.34 415.48L207.93 416.14L208.54 416.78L209.18 417.4L209.84 417.99L210.53 418.55L211.23 419.09L211.96 419.6L212.71 420.08L213.47 420.54L214.26 420.97L215.06 421.36L215.88 421.73L216.72 422.06L217.57 422.36L218.44 422.63L219.32 422.87L220.22 423.07L221.12 423.24L222.04 423.37L222.97 423.46L223.92 423.52L224.87 423.54L419.31 423.34L420.26 423.32L421.2 423.26L422.14 423.17L423.06 423.03L423.97 422.87L424.86 422.66L425.74 422.43L426.61 422.16L427.47 421.85L428.3 421.52L429.13 421.15L429.93 420.75L430.72 420.32L431.48 419.87L432.23 419.38L432.96 418.87L433.67 418.33L434.35 417.77L435.01 417.18L435.65 416.56L436.27 415.92L436.86 415.26L437.42 414.57L437.96 413.87L438.48 413.14L438.96 412.39L439.42 411.62L439.84 410.84L440.24 410.03L440.61 409.21L440.94 408.37L441.25 407.52L441.52 406.65L441.76 405.77L441.96 404.87L442.13 403.96L442.26 403.04L442.35 402.11L442.41 401.17L442.43 400.21L442.54 289.26L445.28 289.31L448.96 289.23L452.6 289.02L456.2 288.67L459.76 288.18L463.28 287.57L466.74 286.83L470.15 285.96L473.51 284.96L476.81 283.85L480.05 282.62L483.23 281.28L486.33 279.82L489.37 278.25L492.34 276.58L495.24 274.8L498.05 272.93L500.78 270.95L503.43 268.88L506 266.71L508.47 264.46L510.85 262.12L513.14 259.69L515.33 257.18L517.42 254.59L519.4 251.93L521.28 249.19L523.04 246.38L524.7 243.5L526.24 240.56L527.66 237.55L528.95 234.49L530.13 231.36L531.18 228.18L532.1 224.95L532.88 221.68L533.53 218.35L534.04 214.98L534.41 211.57L534.64 208.12L534.71 204.64L534.64 201.15L534.42 197.7L534.06 194.29L533.56 190.93L532.91 187.6L532.14 184.32L531.22 181.09L530.18 177.92L529.01 174.8L527.72 171.73L526.31 168.73L524.77 165.79L523.12 162.92L521.36 160.11L519.49 157.38L517.51 154.71L515.43 152.13L513.25 149.63L510.97 147.2L508.59 144.87L506.12 142.62L503.56 140.46L500.91 138.39L498.18 136.42L495.37 134.55L492.48 132.78L489.52 131.11L486.48 129.55L483.38 128.1L480.2 126.76L476.97 125.54L473.67 124.43L470.31 123.45L466.9 122.58L463.44 121.85L459.93 121.24L456.37 120.76L452.77 120.42L449.12 120.21L445.44 120.15L441.76 120.22L438.12 120.43L434.52 120.78L430.96 121.27L427.44 121.88L423.98 122.63L420.57 123.5L417.21 124.49L413.91 125.6L410.67 126.83L407.49 128.18L404.39 129.63L401.35 131.2L398.38 132.87L397.03 133.7L396.51 130.88L395.65 126.98L394.63 123.14L393.47 119.36L392.17 115.64L390.73 112L389.15 108.43L387.44 104.93L385.6 101.51L383.64 98.17L381.55 94.92L379.35 91.75L377.03 88.68L374.59 85.7L372.05 82.82L369.4 80.03L366.65 77.36L363.8 74.79L360.85 72.33L357.8 69.99L354.67 67.76L351.45 65.65L348.14 63.67L344.76 61.81L341.3 60.09L337.76 58.49L334.15 57.04L330.47 55.72L326.73 54.55L322.93 53.52L319.07 52.64L315.16 51.92L311.19 51.35L307.17 50.94L303.11 50.7L299.01 50.62L294.91 50.71L290.84 50.96ZM284.51 297.99L285.82 298.17L287.12 298.42L288.38 298.74L289.62 299.13L290.83 299.58L292 300.09L293.14 300.66L294.25 301.29L295.32 301.97L296.34 302.71L297.33 303.5L298.27 304.34L299.17 305.22L300.01 306.16L300.81 307.13L301.55 308.15L302.25 309.21L302.88 310.31L303.45 311.44L303.97 312.6L304.42 313.8L304.81 315.03L305.13 316.28L305.39 317.56L305.57 318.86L305.68 320.19L305.72 321.53L305.68 322.88L305.57 324.21L305.38 325.51L305.12 326.79L304.8 328.04L304.41 329.27L303.95 330.47L303.43 331.64L302.86 332.77L302.22 333.87L301.53 334.93L300.78 335.94L299.98 336.92L299.13 337.86L298.24 338.75L297.29 339.59L296.31 340.38L295.28 341.12L294.21 341.81L293.1 342.44L291.96 343.01L290.78 343.52L289.57 343.97L288.34 344.36L287.07 344.68L285.78 344.94L284.46 345.12L283.13 345.24L281.77 345.27L280.41 345.24L279.07 345.13L277.76 344.95L276.47 344.7L275.2 344.38L273.96 343.99L272.76 343.54L271.58 343.03L270.44 342.46L269.33 341.83L268.27 341.15L267.24 340.41L266.25 339.62L265.31 338.78L264.42 337.89L263.57 336.96L262.77 335.98L262.03 334.96L261.34 333.91L260.7 332.81L260.13 331.68L259.61 330.51L259.16 329.32L258.77 328.09L258.45 326.84L258.2 325.56L258.01 324.25L257.9 322.93L257.86 321.58L257.9 320.24L258.02 318.91L258.2 317.61L258.46 316.33L258.78 315.07L259.18 313.85L259.63 312.65L260.15 311.48L260.73 310.35L261.36 309.25L262.06 308.19L262.8 307.17L263.6 306.19L264.45 305.26L265.35 304.37L266.29 303.53L267.28 302.74L268.31 302L269.37 301.31L270.48 300.68L271.62 300.11L272.8 299.59L274.01 299.14L275.25 298.75L276.51 298.43L277.81 298.18L279.12 297.99L280.46 297.88L281.82 297.84L283.17 297.88L284.51 297.99ZM383.55 282.24L384.83 282.38L386.09 282.58L387.33 282.83L388.55 283.13L389.75 283.49L390.93 283.89L392.09 284.35L393.23 284.85L394.34 285.4L395.42 286L396.48 286.64L397.52 287.32L398.52 288.05L399.49 288.81L400.43 289.62L401.34 290.46L402.22 291.34L403.06 292.26L403.86 293.21L404.63 294.2L405.36 295.22L406.06 296.27L406.71 297.35L407.32 298.46L407.89 299.6L408.41 300.77L408.89 301.96L409.32 303.17L409.71 304.41L410.05 305.67L410.34 306.95L410.58 308.25L410.77 309.57L410.9 310.9L410.98 312.25L411.01 313.62L410.98 314.99L410.9 316.34L410.76 317.68L410.57 318.99L410.33 320.29L410.03 321.58L409.69 322.84L409.3 324.07L408.87 325.29L408.39 326.48L407.86 327.65L407.29 328.79L406.68 329.9L406.02 330.98L405.33 332.03L404.59 333.05L403.82 334.04L403.02 335L402.17 335.92L401.3 336.8L400.38 337.65L399.44 338.45L398.47 339.22L397.46 339.95L396.43 340.63L395.37 341.28L394.28 341.87L393.17 342.43L392.03 342.93L390.87 343.39L389.69 343.8L388.49 344.15L387.27 344.46L386.03 344.71L384.77 344.91L383.49 345.06L382.2 345.14L380.9 345.17L379.59 345.15L378.3 345.06L377.03 344.92L375.77 344.72L374.53 344.47L373.31 344.17L372.11 343.81L370.93 343.41L369.77 342.95L368.63 342.45L367.52 341.9L366.43 341.31L365.37 340.67L364.34 339.98L363.34 339.26L362.37 338.49L361.43 337.69L360.52 336.84L359.64 335.96L358.8 335.04L357.99 334.09L357.23 333.1L356.49 332.08L355.8 331.03L355.15 329.95L354.54 328.84L353.97 327.7L353.45 326.54L352.97 325.35L352.53 324.13L352.15 322.89L351.81 321.63L351.52 320.35L351.28 319.05L351.09 317.74L350.96 316.4L350.87 315.05L350.85 313.68L350.88 312.32L350.96 310.96L351.1 309.63L351.29 308.31L351.53 307.01L351.82 305.73L352.17 304.47L352.55 303.23L352.99 302.01L353.47 300.82L354 299.66L354.57 298.52L355.18 297.4L355.84 296.32L356.53 295.27L357.26 294.25L358.03 293.26L358.84 292.31L359.69 291.39L360.56 290.5L361.47 289.66L362.42 288.85L363.39 288.08L364.4 287.35L365.43 286.67L366.49 286.03L367.58 285.43L368.69 284.88L369.83 284.37L370.99 283.91L372.17 283.51L373.37 283.15L374.59 282.84L375.83 282.59L377.09 282.39L378.37 282.25L379.66 282.16L380.96 282.13L382.26 282.16L383.55 282.24Z" id="b6ZORCxNhM"></path></defs><g><g><g><use xlink:href="#b6ZORCxNhM" opacity="1" fill="#660033" fill-opacity="1"></use></g></g></g></svg>