<?xml version="1.0" encoding="UTF-8" standalone="no"?>
<!DOCTYPE svg PUBLIC "-//W3C//DTD SVG 1.1//EN" "http://www.w3.org/Graphics/SVG/1.1/DTD/svg11.dtd">
<svg version="1.1" xmlns="http://www.w3.org/2000/svg" xmlns:xlink="http://www.w3.org/1999/xlink" preserveAspectRatio="xMidYMid meet" viewBox="0 0 640 640" width="640" height="640"><defs><path d="M459.22 428.79L460.02 428.87L460.82 428.98L461.61 429.13L462.38 429.3L463.15 429.51L463.9 429.74L464.64 430L465.36 430.29L466.07 430.61L466.77 430.95L467.45 431.32L468.11 431.72L468.76 432.14L469.39 432.58L470 433.04L470.59 433.53L471.16 434.04L471.72 434.58L472.25 435.13L472.76 435.7L473.25 436.3L473.72 436.91L474.16 437.54L474.58 438.18L474.97 438.85L475.34 439.53L475.69 440.22L476 440.93L476.29 441.66L476.56 442.4L476.79 443.15L476.99 443.91L477.17 444.69L477.31 445.48L477.43 446.27L477.51 447.08L477.56 447.9L477.58 448.72L477.58 621.44L477.56 622.26L477.51 623.08L477.43 623.88L477.31 624.68L477.17 625.47L476.99 626.24L476.79 627.01L476.56 627.76L476.29 628.5L476 629.22L475.69 629.93L475.34 630.63L474.97 631.31L474.58 631.97L474.16 632.62L473.72 633.25L473.25 633.86L472.76 634.45L472.25 635.02L471.72 635.58L471.16 636.11L470.59 636.62L470 637.11L469.39 637.58L468.76 638.02L468.11 638.44L467.45 638.83L466.77 639.2L466.07 639.55L465.36 639.86L464.64 640.15L463.9 640.42L463.15 640.65L462.38 640.85L461.61 641.03L460.82 641.17L460.02 641.29L459.22 641.37L458.4 641.42L457.58 641.44L327.58 641.44L327.58 623.45L336.77 623.45L337.22 623.43L337.65 623.38L338.07 623.29L338.48 623.17L338.87 623.02L339.25 622.85L339.61 622.64L339.96 622.41L340.28 622.15L340.59 621.87L340.87 621.56L341.13 621.24L341.36 620.9L341.56 620.53L341.74 620.15L341.89 619.76L342.01 619.35L342.1 618.93L342.15 618.5L342.17 618.06L342.17 617.98L342.15 617.54L342.1 617.11L342.01 616.69L341.89 616.28L341.74 615.88L341.56 615.5L341.36 615.14L341.13 614.8L340.87 614.47L340.59 614.17L340.28 613.89L339.96 613.63L339.61 613.4L339.25 613.19L338.87 613.01L338.48 612.87L338.07 612.75L337.65 612.66L337.22 612.61L336.77 612.59L327.58 612.59L327.58 603.41L336.67 603.41L337.11 603.39L337.54 603.34L337.95 603.26L338.36 603.14L338.75 602.99L339.13 602.81L339.49 602.61L339.83 602.38L340.15 602.12L340.45 601.84L340.73 601.54L340.99 601.22L341.22 600.88L341.43 600.52L341.6 600.14L341.75 599.75L341.87 599.34L341.95 598.92L342.01 598.49L342.02 598.05L342.01 597.61L341.95 597.19L341.87 596.77L341.75 596.36L341.6 595.97L341.43 595.59L341.22 595.23L340.99 594.89L340.73 594.57L340.45 594.27L340.15 593.99L339.83 593.73L339.49 593.5L339.13 593.29L338.75 593.12L338.36 592.97L337.95 592.85L337.54 592.77L337.11 592.71L336.67 592.7L327.58 592.7L327.58 583.41L336.67 583.41L337.11 583.39L337.54 583.34L337.95 583.26L338.36 583.14L338.75 582.99L339.13 582.81L339.49 582.61L339.83 582.38L340.15 582.12L340.45 581.84L340.73 581.54L340.99 581.22L341.22 580.88L341.43 580.52L341.6 580.14L341.75 579.75L341.87 579.34L341.95 578.92L342.01 578.49L342.02 578.05L342.01 577.61L341.95 577.19L341.87 576.77L341.75 576.36L341.6 575.97L341.43 575.59L341.22 575.23L340.99 574.89L340.73 574.57L340.45 574.27L340.15 573.99L339.83 573.73L339.49 573.5L339.13 573.29L338.75 573.12L338.36 572.97L337.95 572.85L337.54 572.77L337.11 572.71L336.67 572.7L327.58 572.7L327.58 563.41L336.67 563.41L337.11 563.39L337.54 563.34L337.95 563.26L338.36 563.14L338.75 562.99L339.13 562.81L339.49 562.61L339.83 562.38L340.15 562.12L340.45 561.84L340.73 561.54L340.99 561.22L341.22 560.88L341.43 560.52L341.6 560.14L341.75 559.75L341.87 559.34L341.95 558.92L342.01 558.49L342.02 558.05L342.01 557.61L341.95 557.19L341.87 556.77L341.75 556.36L341.6 555.97L341.43 555.59L341.22 555.23L340.99 554.89L340.73 554.57L340.45 554.27L340.15 553.99L339.83 553.73L339.49 553.5L339.13 553.29L338.75 553.12L338.36 552.97L337.95 552.85L337.54 552.77L337.11 552.71L336.67 552.7L327.58 552.7L327.58 542.51L336.67 542.51L337.11 542.49L337.54 542.44L337.95 542.35L338.36 542.23L338.75 542.09L339.13 541.91L339.49 541.7L339.83 541.47L340.15 541.22L340.45 540.94L340.73 540.64L340.99 540.31L341.22 539.97L341.43 539.61L341.6 539.24L341.75 538.84L341.87 538.44L341.95 538.02L342.01 537.59L342.02 537.15L342.01 536.71L341.95 536.28L341.87 535.86L341.75 535.46L341.6 535.07L341.43 534.69L341.22 534.33L340.99 533.99L340.73 533.66L340.45 533.36L340.15 533.08L339.83 532.83L339.49 532.6L339.13 532.39L338.75 532.21L338.36 532.07L337.95 531.95L337.54 531.86L337.11 531.81L336.67 531.79L327.58 531.79L327.58 522.51L336.67 522.51L337.11 522.49L337.54 522.44L337.95 522.35L338.36 522.23L338.75 522.09L339.13 521.91L339.49 521.7L339.83 521.47L340.15 521.22L340.45 520.94L340.73 520.64L340.99 520.31L341.22 519.97L341.43 519.61L341.6 519.24L341.75 518.84L341.87 518.44L341.95 518.02L342.01 517.59L342.02 517.15L342.01 516.71L341.95 516.28L341.87 515.86L341.75 515.46L341.6 515.07L341.43 514.69L341.22 514.33L340.99 513.99L340.73 513.66L340.45 513.36L340.15 513.08L339.83 512.83L339.49 512.6L339.13 512.39L338.75 512.21L338.36 512.07L337.95 511.95L337.54 511.86L337.11 511.81L336.67 511.79L327.58 511.79L327.58 502.51L336.67 502.51L337.11 502.49L337.54 502.44L337.95 502.35L338.36 502.23L338.75 502.09L339.13 501.91L339.49 501.7L339.83 501.47L340.15 501.22L340.45 500.94L340.73 500.64L340.99 500.31L341.22 499.97L341.43 499.61L341.6 499.24L341.75 498.84L341.87 498.44L341.95 498.02L342.01 497.59L342.02 497.15L342.01 496.71L341.95 496.28L341.87 495.86L341.75 495.46L341.6 495.07L341.43 494.69L341.22 494.33L340.99 493.99L340.73 493.66L340.45 493.36L340.15 493.08L339.83 492.83L339.49 492.6L339.13 492.39L338.75 492.21L338.36 492.07L337.95 491.95L337.54 491.86L337.11 491.81L336.67 491.79L327.58 491.79L327.58 482.51L336.67 482.51L337.11 482.49L337.54 482.44L337.95 482.35L338.36 482.23L338.75 482.09L339.13 481.91L339.49 481.7L339.83 481.47L340.15 481.22L340.45 480.94L340.73 480.64L340.99 480.31L341.22 479.97L341.43 479.61L341.6 479.24L341.75 478.84L341.87 478.44L341.95 478.02L342.01 477.59L342.02 477.15L342.01 476.71L341.95 476.28L341.87 475.86L341.75 475.46L341.6 475.07L341.43 474.69L341.22 474.33L340.99 473.99L340.73 473.66L340.45 473.36L340.15 473.08L339.83 472.83L339.49 472.6L339.13 472.39L338.75 472.21L338.36 472.07L337.95 471.95L337.54 471.86L337.11 471.81L336.67 471.79L327.58 471.79L327.58 462.51L336.67 462.51L337.11 462.49L337.54 462.44L337.95 462.35L338.36 462.23L338.75 462.09L339.13 461.91L339.49 461.7L339.83 461.47L340.15 461.22L340.45 460.94L340.73 460.64L340.99 460.31L341.22 459.97L341.43 459.61L341.6 459.24L341.75 458.84L341.87 458.44L341.95 458.02L342.01 457.59L342.02 457.15L342.01 456.71L341.95 456.28L341.87 455.86L341.75 455.46L341.6 455.07L341.43 454.69L341.22 454.33L340.99 453.99L340.73 453.66L340.45 453.36L340.15 453.08L339.83 452.83L339.49 452.6L339.13 452.39L338.75 452.21L338.36 452.07L337.95 451.95L337.54 451.86L337.11 451.81L336.67 451.79L327.58 451.79L327.58 428.72L457.58 428.72L458.4 428.74L459.22 428.79ZM303.33 451.79L302.89 451.81L302.46 451.86L302.05 451.95L301.64 452.07L301.25 452.21L300.87 452.39L300.51 452.6L300.17 452.83L299.85 453.08L299.55 453.36L299.27 453.66L299.01 453.99L298.78 454.33L298.57 454.69L298.4 455.07L298.25 455.46L298.13 455.86L298.05 456.28L297.99 456.71L297.98 457.15L297.99 457.59L298.05 458.02L298.13 458.44L298.25 458.84L298.4 459.24L298.57 459.61L298.78 459.97L299.01 460.31L299.27 460.64L299.55 460.94L299.85 461.22L300.17 461.47L300.51 461.7L300.87 461.91L301.25 462.09L301.64 462.23L302.05 462.35L302.46 462.44L302.89 462.49L303.33 462.51L312.42 462.51L312.42 471.79L303.33 471.79L302.89 471.81L302.46 471.86L302.05 471.95L301.64 472.07L301.25 472.21L300.87 472.39L300.51 472.6L300.17 472.83L299.85 473.08L299.55 473.36L299.27 473.66L299.01 473.99L298.78 474.33L298.57 474.69L298.4 475.07L298.25 475.46L298.13 475.86L298.05 476.28L297.99 476.71L297.98 477.15L297.99 477.59L298.05 478.02L298.13 478.44L298.25 478.84L298.4 479.24L298.57 479.61L298.78 479.97L299.01 480.31L299.27 480.64L299.55 480.94L299.85 481.22L300.17 481.47L300.51 481.7L300.87 481.91L301.25 482.09L301.64 482.23L302.05 482.35L302.46 482.44L302.89 482.49L303.33 482.51L312.42 482.51L312.42 491.79L303.33 491.79L302.89 491.81L302.46 491.86L302.05 491.95L301.64 492.07L301.25 492.21L300.87 492.39L300.51 492.6L300.17 492.83L299.85 493.08L299.55 493.36L299.27 493.66L299.01 493.99L298.78 494.33L298.57 494.69L298.4 495.07L298.25 495.46L298.13 495.86L298.05 496.28L297.99 496.71L297.98 497.15L297.99 497.59L298.05 498.02L298.13 498.44L298.25 498.84L298.4 499.24L298.57 499.61L298.78 499.97L299.01 500.31L299.27 500.64L299.55 500.94L299.85 501.22L300.17 501.47L300.51 501.7L300.87 501.91L301.25 502.09L301.64 502.23L302.05 502.35L302.46 502.44L302.89 502.49L303.33 502.51L312.42 502.51L312.42 511.79L303.33 511.79L302.89 511.81L302.46 511.86L302.05 511.95L301.64 512.07L301.25 512.21L300.87 512.39L300.51 512.6L300.17 512.83L299.85 513.08L299.55 513.36L299.27 513.66L299.01 513.99L298.78 514.33L298.57 514.69L298.4 515.07L298.25 515.46L298.13 515.86L298.05 516.28L297.99 516.71L297.98 517.15L297.99 517.59L298.05 518.02L298.13 518.44L298.25 518.84L298.4 519.24L298.57 519.61L298.78 519.97L299.01 520.31L299.27 520.64L299.55 520.94L299.85 521.22L300.17 521.47L300.51 521.7L300.87 521.91L301.25 522.09L301.64 522.23L302.05 522.35L302.46 522.44L302.89 522.49L303.33 522.51L312.42 522.51L312.42 531.79L303.33 531.79L302.89 531.81L302.46 531.86L302.05 531.95L301.64 532.07L301.25 532.21L300.87 532.39L300.51 532.6L300.17 532.83L299.85 533.08L299.55 533.36L299.27 533.66L299.01 533.99L298.78 534.33L298.57 534.69L298.4 535.07L298.25 535.46L298.13 535.86L298.05 536.28L297.99 536.71L297.98 537.15L297.99 537.59L298.05 538.02L298.13 538.44L298.25 538.84L298.4 539.24L298.57 539.61L298.78 539.97L299.01 540.31L299.27 540.64L299.55 540.94L299.85 541.22L300.17 541.47L300.51 541.7L300.87 541.91L301.25 542.09L301.64 542.23L302.05 542.35L302.46 542.44L302.89 542.49L303.33 542.51L312.42 542.51L312.42 552.7L303.33 552.7L302.89 552.71L302.46 552.77L302.05 552.85L301.64 552.97L301.25 553.12L300.87 553.29L300.51 553.5L300.17 553.73L299.85 553.99L299.55 554.27L299.27 554.57L299.01 554.89L298.78 555.23L298.57 555.59L298.4 555.97L298.25 556.36L298.13 556.77L298.05 557.19L297.99 557.61L297.98 558.05L297.99 558.49L298.05 558.92L298.13 559.34L298.25 559.75L298.4 560.14L298.57 560.52L298.78 560.88L299.01 561.22L299.27 561.54L299.55 561.84L299.85 562.12L300.17 562.38L300.51 562.61L300.87 562.81L301.25 562.99L301.64 563.14L302.05 563.26L302.46 563.34L302.89 563.39L303.33 563.41L312.42 563.41L312.42 572.7L303.33 572.7L302.89 572.71L302.46 572.77L302.05 572.85L301.64 572.97L301.25 573.12L300.87 573.29L300.51 573.5L300.17 573.73L299.85 573.99L299.55 574.27L299.27 574.57L299.01 574.89L298.78 575.23L298.57 575.59L298.4 575.97L298.25 576.36L298.13 576.77L298.05 577.19L297.99 577.61L297.98 578.05L297.99 578.49L298.05 578.92L298.13 579.34L298.25 579.75L298.4 580.14L298.57 580.52L298.78 580.88L299.01 581.22L299.27 581.54L299.55 581.84L299.85 582.12L300.17 582.38L300.51 582.61L300.87 582.81L301.25 582.99L301.64 583.14L302.05 583.26L302.46 583.34L302.89 583.39L303.33 583.41L312.42 583.41L312.42 592.7L303.33 592.7L302.89 592.71L302.46 592.77L302.05 592.85L301.64 592.97L301.25 593.12L300.87 593.29L300.51 593.5L300.17 593.73L299.85 593.99L299.55 594.27L299.27 594.57L299.01 594.89L298.78 595.23L298.57 595.59L298.4 595.97L298.25 596.36L298.13 596.77L298.05 597.19L297.99 597.61L297.98 598.05L297.99 598.49L298.05 598.92L298.13 599.34L298.25 599.75L298.4 600.14L298.57 600.52L298.78 600.88L299.01 601.22L299.27 601.54L299.55 601.84L299.85 602.12L300.17 602.38L300.51 602.61L300.87 602.81L301.25 602.99L301.64 603.14L302.05 603.26L302.46 603.34L302.89 603.39L303.33 603.41L312.42 603.41L312.42 612.59L303.23 612.59L302.78 612.61L302.35 612.66L301.93 612.75L301.52 612.87L301.13 613.01L300.75 613.19L300.39 613.4L300.04 613.63L299.72 613.89L299.41 614.17L299.13 614.47L298.87 614.8L298.64 615.14L298.44 615.5L298.26 615.88L298.11 616.28L297.99 616.69L297.9 617.11L297.85 617.54L297.83 617.98L297.83 618.06L297.85 618.5L297.9 618.93L297.99 619.35L298.11 619.76L298.26 620.15L298.44 620.53L298.64 620.9L298.87 621.24L299.13 621.56L299.41 621.87L299.72 622.15L300.04 622.41L300.39 622.64L300.75 622.85L301.13 623.02L301.52 623.17L301.93 623.29L302.35 623.38L302.78 623.43L303.23 623.45L312.42 623.45L312.42 641.44L182.42 641.44L181.6 641.42L180.78 641.37L179.98 641.29L179.18 641.17L178.39 641.03L177.62 640.85L176.85 640.65L176.1 640.42L175.36 640.15L174.64 639.86L173.93 639.55L173.23 639.2L172.55 638.83L171.89 638.44L171.24 638.02L170.61 637.58L170 637.11L169.41 636.62L168.84 636.11L168.28 635.58L167.75 635.02L167.24 634.45L166.75 633.86L166.28 633.25L165.84 632.62L165.42 631.97L165.03 631.31L164.66 630.63L164.31 629.93L164 629.22L163.71 628.5L163.44 627.76L163.21 627.01L163.01 626.24L162.83 625.47L162.69 624.68L162.57 623.88L162.49 623.08L162.44 622.26L162.42 621.44L162.42 448.72L162.44 447.9L162.49 447.08L162.57 446.27L162.69 445.48L162.83 444.69L163.01 443.91L163.21 443.15L163.44 442.4L163.71 441.66L164 440.93L164.31 440.22L164.66 439.53L165.03 438.85L165.42 438.18L165.84 437.54L166.28 436.91L166.75 436.3L167.24 435.7L167.75 435.13L168.28 434.58L168.84 434.04L169.41 433.53L170 433.04L170.61 432.58L171.24 432.14L171.89 431.72L172.55 431.32L173.23 430.95L173.93 430.61L174.64 430.29L175.36 430L176.1 429.74L176.85 429.51L177.62 429.3L178.39 429.13L179.18 428.98L179.98 428.87L180.78 428.79L181.6 428.74L182.42 428.72L312.42 428.72L312.42 451.79L303.33 451.79ZM305.6 1.8L310.05 2.25L314.45 2.87L318.79 3.66L323.07 4.61L327.28 5.73L331.43 7.01L335.5 8.44L339.5 10.03L343.42 11.76L347.26 13.64L351.02 15.66L354.68 17.82L358.25 20.11L361.73 22.53L365.1 25.08L368.37 27.76L371.54 30.55L374.59 33.46L377.53 36.48L380.35 39.62L383.05 42.86L385.63 46.2L388.07 49.64L390.39 53.17L392.57 56.8L394.61 60.52L396.51 64.32L398.26 68.2L399.86 72.16L401.31 76.19L402.6 80.3L403.73 84.47L404.69 88.71L405.26 91.78L406.76 90.88L410.05 89.06L413.41 87.37L416.86 85.79L420.37 84.33L423.96 83L427.62 81.79L431.34 80.72L435.12 79.78L438.96 78.97L442.85 78.31L446.79 77.79L450.78 77.41L454.82 77.18L458.9 77.11L462.98 77.18L467.02 77.41L471.01 77.79L474.95 78.31L478.85 78.97L482.68 79.78L486.46 80.72L490.18 81.79L493.84 83L497.43 84.33L500.94 85.79L504.39 87.37L507.75 89.06L511.04 90.88L514.25 92.8L517.36 94.84L520.39 96.98L523.32 99.23L526.16 101.58L528.9 104.03L531.54 106.57L534.07 109.2L536.49 111.92L538.8 114.73L541 117.62L543.07 120.59L545.03 123.64L546.86 126.77L548.56 129.96L550.13 133.23L551.57 136.55L552.87 139.95L554.02 143.4L555.04 146.9L555.9 150.46L556.62 154.08L557.18 157.74L557.59 161.44L557.83 165.18L557.92 168.97L557.83 172.75L557.59 176.5L557.18 180.2L556.62 183.86L555.9 187.47L555.04 191.03L554.02 194.54L552.87 197.99L551.57 201.38L550.13 204.71L548.56 207.97L546.86 211.17L545.03 214.29L543.07 217.34L541 220.31L538.8 223.21L536.49 226.01L534.07 228.74L531.54 231.37L528.9 233.91L526.16 236.36L523.32 238.71L520.39 240.95L517.36 243.1L514.25 245.13L511.04 247.06L507.75 248.87L504.39 250.57L500.94 252.15L497.43 253.61L493.84 254.94L490.18 256.14L486.46 257.22L482.68 258.16L478.85 258.96L474.95 259.63L471.01 260.15L467.02 260.53L462.98 260.75L458.9 260.83L455.87 260.77L455.87 380.77L455.85 381.83L455.79 382.87L455.68 383.9L455.54 384.92L455.35 385.93L455.13 386.92L454.86 387.9L454.56 388.86L454.23 389.81L453.86 390.74L453.45 391.65L453.01 392.54L452.54 393.41L452.03 394.26L451.5 395.08L450.93 395.89L450.33 396.67L449.71 397.43L449.05 398.16L448.37 398.87L447.66 399.55L446.93 400.21L446.17 400.83L445.39 401.43L444.58 402L443.76 402.54L442.91 403.04L442.03 403.51L441.14 403.95L440.23 404.36L439.31 404.73L438.36 405.07L437.4 405.37L436.42 405.63L435.43 405.85L434.42 406.04L433.4 406.18L432.37 406.29L431.33 406.35L430.27 406.37L214.81 406.37L213.75 406.35L212.71 406.29L211.67 406.18L210.65 406.04L209.65 405.85L208.65 405.63L207.68 405.37L206.71 405.07L205.77 404.73L204.84 404.36L203.93 403.95L203.04 403.51L202.17 403.04L201.32 402.54L200.49 402L199.69 401.43L198.9 400.83L198.15 400.21L197.41 399.55L196.7 398.87L196.02 398.16L195.37 397.43L194.74 396.67L194.15 395.89L193.58 395.08L193.04 394.26L192.54 393.41L192.06 392.54L191.62 391.65L191.22 390.74L190.85 389.81L190.51 388.86L190.21 387.9L189.95 386.92L189.73 385.93L189.54 384.92L189.4 383.9L189.29 382.87L189.23 381.83L189.21 380.77L189.21 294.9L188.03 295.06L184.21 295.42L180.36 295.63L176.47 295.67L172.55 295.56L168.63 295.29L164.77 294.86L160.95 294.27L157.19 293.54L153.48 292.65L149.84 291.63L146.26 290.46L142.74 289.16L139.29 287.72L135.91 286.16L132.61 284.46L129.38 282.64L126.24 280.7L123.17 278.65L120.2 276.47L117.31 274.19L114.51 271.8L111.81 269.31L109.2 266.71L106.7 264.02L104.3 261.23L102.01 258.35L99.82 255.38L97.75 252.32L95.79 249.19L93.95 245.97L92.23 242.68L90.63 239.32L89.16 235.89L87.82 232.4L86.62 228.84L85.55 225.22L84.61 221.55L83.82 217.83L83.17 214.05L82.67 210.23L82.32 206.37L82.12 202.47L82.08 198.53L82.2 194.56L82.48 190.6L82.91 186.69L83.49 182.82L84.22 179.01L85.09 175.26L86.11 171.57L87.27 167.94L88.56 164.38L89.98 160.89L91.53 157.47L93.21 154.12L95.01 150.85L96.93 147.67L98.97 144.56L101.12 141.55L103.38 138.62L105.74 135.79L108.21 133.05L110.78 130.41L113.44 127.87L116.2 125.44L119.05 123.11L121.98 120.89L125 118.79L128.1 116.8L131.28 114.94L134.53 113.19L137.85 111.57L141.24 110.08L144.7 108.72L148.21 107.5L151.79 106.41L155.42 105.46L159.1 104.65L162.82 103.99L166.6 103.48L170.41 103.12L174.27 102.92L178.16 102.87L182.08 102.98L185.99 103.26L186.45 103.31L186.54 101.76L186.99 97.36L187.62 93L188.42 88.71L189.39 84.47L190.52 80.3L191.81 76.19L193.25 72.16L194.86 68.2L196.61 64.32L198.5 60.52L200.54 56.8L202.72 53.17L205.04 49.64L207.48 46.2L210.06 42.86L212.76 39.62L215.58 36.48L218.52 33.46L221.57 30.55L224.74 27.76L228.01 25.08L231.38 22.53L234.86 20.11L238.43 17.82L242.09 15.66L245.85 13.64L249.69 11.76L253.61 10.03L257.61 8.44L261.68 7.01L265.83 5.73L270.04 4.61L274.32 3.66L278.66 2.87L283.06 2.25L287.51 1.8L292.01 1.53L296.56 1.44L301.1 1.53L305.6 1.8ZM275.06 270.05L273.74 270.22L272.43 270.44L271.15 270.73L269.89 271.08L268.66 271.48L267.46 271.95L266.28 272.46L265.14 273.03L264.03 273.65L262.95 274.32L261.91 275.04L260.91 275.81L259.95 276.62L259.03 277.47L258.15 278.36L257.32 279.3L256.53 280.27L255.79 281.28L255.1 282.33L254.46 283.41L253.87 284.52L253.34 285.66L252.87 286.83L252.45 288.02L252.09 289.24L251.8 290.49L251.56 291.76L251.4 293.05L251.29 294.35L251.26 295.68L251.29 297L251.4 298.31L251.56 299.6L251.8 300.87L252.09 302.11L252.45 303.33L252.87 304.53L253.34 305.7L253.87 306.84L254.46 307.95L255.1 309.03L255.79 310.08L256.53 311.09L257.32 312.06L258.15 312.99L259.03 313.89L259.95 314.74L260.91 315.55L261.91 316.32L262.95 317.03L264.03 317.7L265.14 318.33L266.28 318.89L267.46 319.41L268.66 319.87L269.89 320.28L271.15 320.62L272.43 320.91L273.74 321.14L275.06 321.3L276.41 321.4L277.77 321.44L279.14 321.4L280.48 321.3L281.81 321.14L283.11 320.91L284.4 320.62L285.65 320.28L286.89 319.87L288.09 319.41L289.26 318.89L290.41 318.33L291.52 317.7L292.59 317.03L293.63 316.32L294.64 315.55L295.6 314.74L296.52 313.89L297.4 312.99L298.23 312.06L299.02 311.09L299.76 310.08L300.45 309.03L301.09 307.95L301.67 306.84L302.2 305.7L302.68 304.53L303.1 303.33L303.45 302.11L303.75 300.87L303.98 299.6L304.15 298.31L304.25 297L304.29 295.68L304.25 294.35L304.15 293.05L303.98 291.76L303.75 290.49L303.45 289.24L303.1 288.02L302.68 286.83L302.2 285.66L301.67 284.52L301.09 283.41L300.45 282.33L299.76 281.28L299.02 280.27L298.23 279.3L297.4 278.36L296.52 277.47L295.6 276.62L294.64 275.81L293.63 275.04L292.59 274.32L291.52 273.65L290.41 273.03L289.26 272.46L288.09 271.95L286.89 271.48L285.65 271.08L284.4 270.73L283.11 270.44L281.81 270.22L280.48 270.05L279.14 269.95L277.77 269.92L276.41 269.95L275.06 270.05ZM384.89 253.08L383.55 253.22L382.22 253.41L380.91 253.66L379.62 253.96L378.34 254.31L377.09 254.71L375.86 255.16L374.65 255.65L373.47 256.2L372.31 256.79L371.18 257.42L370.07 258.09L368.99 258.81L367.94 259.57L366.92 260.37L365.93 261.21L364.98 262.08L364.06 262.99L363.17 263.94L362.32 264.92L361.5 265.94L360.72 266.98L359.98 268.06L359.29 269.17L358.63 270.31L358.01 271.47L357.44 272.66L356.91 273.88L356.43 275.12L355.99 276.38L355.6 277.67L355.26 278.98L354.97 280.3L354.73 281.65L354.54 283.01L354.4 284.39L354.32 285.79L354.29 287.2L354.32 288.61L354.4 290.01L354.54 291.39L354.73 292.75L354.97 294.1L355.26 295.42L355.6 296.73L355.99 298.02L356.43 299.28L356.91 300.52L357.44 301.74L358.01 302.93L358.63 304.09L359.29 305.23L359.98 306.34L360.72 307.41L361.5 308.46L362.32 309.47L363.17 310.46L364.06 311.4L364.98 312.32L365.93 313.19L366.92 314.03L367.94 314.83L368.99 315.59L370.07 316.3L371.18 316.98L372.31 317.61L373.47 318.2L374.65 318.74L375.86 319.24L377.09 319.69L378.34 320.09L379.62 320.44L380.91 320.74L382.22 320.99L383.55 321.18L384.89 321.32L386.25 321.41L387.62 321.44L388.99 321.41L390.35 321.32L391.7 321.18L393.03 320.99L394.34 320.74L395.63 320.44L396.9 320.09L398.15 319.69L399.38 319.24L400.59 318.74L401.78 318.2L402.93 317.61L404.07 316.98L405.17 316.3L406.25 315.59L407.3 314.83L408.32 314.03L409.31 313.19L410.27 312.32L411.19 311.4L412.08 310.46L412.93 309.47L413.74 308.46L414.52 307.41L415.26 306.34L415.96 305.23L416.62 304.09L417.23 302.93L417.81 301.74L418.33 300.52L418.82 299.28L419.25 298.02L419.64 296.73L419.99 295.42L420.28 294.1L420.52 292.75L420.71 291.39L420.84 290.01L420.93 288.61L420.96 287.2L420.93 285.79L420.84 284.39L420.71 283.01L420.52 281.65L420.28 280.3L419.99 278.98L419.64 277.67L419.25 276.38L418.82 275.12L418.33 273.88L417.81 272.66L417.23 271.47L416.62 270.31L415.96 269.17L415.26 268.06L414.52 266.98L413.74 265.94L412.93 264.92L412.08 263.94L411.19 262.99L410.27 262.08L409.31 261.21L408.32 260.37L407.3 259.57L406.25 258.81L405.17 258.09L404.07 257.42L402.93 256.79L401.78 256.2L400.59 255.65L399.38 255.16L398.15 254.71L396.9 254.31L395.63 253.96L394.34 253.66L393.03 253.41L391.7 253.22L390.35 253.08L388.99 252.99L387.62 252.96L386.25 252.99L384.89 253.08Z" id="b1szsw6m9H"></path><path d="M477.56 620.82L477.51 621.64L477.43 622.45L477.31 623.24L477.17 624.03L476.99 624.81L476.79 625.57L476.56 626.32L476.29 627.06L476 627.78L475.69 628.5L475.34 629.19L474.97 629.87L474.58 630.54L474.16 631.18L473.72 631.81L473.25 632.42L472.76 633.02L472.25 633.59L471.72 634.14L471.16 634.67L470.59 635.19L470 635.67L469.39 636.14L468.76 636.58L468.11 637L467.45 637.4L466.77 637.77L466.07 638.11L465.36 638.43L464.64 638.72L463.9 638.98L463.15 639.21L462.38 639.42L461.61 639.59L460.82 639.74L460.02 639.85L459.22 639.93L458.4 639.98L457.58 640L330.82 640L477.58 485.43L477.58 620L477.56 620.82Z" id="a1a1AVtdZ9"></path><path d="M162.42 447.23L162.44 446.41L162.49 445.59L162.57 444.78L162.69 443.99L162.83 443.2L163.01 442.42L163.21 441.66L163.44 440.91L163.71 440.17L164 439.44L164.31 438.73L164.66 438.04L165.03 437.36L165.42 436.69L165.84 436.05L166.28 435.42L166.75 434.81L167.24 434.21L167.75 433.64L168.28 433.09L168.84 432.56L169.41 432.04L170 431.55L170.61 431.09L171.24 430.65L171.89 430.23L172.55 429.83L173.23 429.46L173.93 429.12L174.64 428.8L175.36 428.51L176.1 428.25L176.85 428.02L177.62 427.81L178.39 427.64L179.18 427.49L179.98 427.38L180.78 427.3L181.6 427.25L182.42 427.23L245.02 427.23L162.42 514.23L162.42 447.23ZM478.84 77.48L482.68 78.29L486.46 79.23L490.18 80.3L493.84 81.51L497.43 82.84L500.94 84.3L504.39 85.88L507.75 87.57L511.04 89.39L514.25 91.31L517.36 93.35L520.39 95.49L523.32 97.74L526.16 100.09L528.9 102.54L531.54 105.08L534.07 107.71L536.49 110.43L538.8 113.24L540.72 115.77L406.3 257.36L406.25 257.32L405.17 256.6L404.07 255.93L402.93 255.3L401.78 254.71L400.59 254.16L399.38 253.67L398.15 253.22L396.9 252.82L395.63 252.47L394.34 252.17L393.03 251.92L391.7 251.73L390.35 251.59L388.99 251.5L387.62 251.47L386.25 251.5L384.89 251.59L383.55 251.73L382.22 251.92L380.91 252.17L379.62 252.47L378.34 252.82L377.09 253.22L375.86 253.67L374.65 254.16L373.47 254.71L372.31 255.3L371.18 255.93L370.07 256.6L368.99 257.32L367.94 258.08L366.92 258.88L365.93 259.72L364.98 260.59L364.06 261.5L363.17 262.45L362.32 263.43L361.5 264.45L360.72 265.49L359.98 266.57L359.29 267.68L358.63 268.82L358.01 269.98L357.44 271.17L356.91 272.39L356.43 273.63L355.99 274.89L355.6 276.18L355.26 277.49L354.97 278.81L354.72 280.16L354.54 281.52L354.4 282.9L354.32 284.3L354.29 285.71L354.32 287.12L354.4 288.52L354.54 289.9L354.72 291.26L354.97 292.61L355.26 293.93L355.6 295.24L355.99 296.53L356.43 297.79L356.91 299.03L357.44 300.25L358.01 301.44L358.63 302.6L359.29 303.74L359.98 304.85L360.5 305.6L266.24 404.88L214.81 404.88L213.75 404.86L212.71 404.8L211.67 404.69L210.65 404.55L209.65 404.36L208.65 404.14L207.68 403.88L206.71 403.58L205.77 403.24L204.84 402.87L203.93 402.46L203.04 402.02L202.17 401.55L201.32 401.05L200.49 400.51L199.69 399.94L198.9 399.34L198.15 398.72L197.41 398.06L196.7 397.38L196.02 396.68L195.37 395.94L194.74 395.18L194.15 394.4L193.58 393.59L193.04 392.77L192.54 391.92L192.06 391.05L191.62 390.16L191.22 389.25L190.85 388.32L190.51 387.37L190.21 386.41L189.95 385.43L189.73 384.44L189.54 383.43L189.4 382.41L189.29 381.38L189.23 380.34L189.21 379.28L189.21 377.25L255.22 307.72L255.79 308.59L256.53 309.6L257.32 310.57L258.15 311.5L259.03 312.4L259.95 313.25L260.91 314.06L261.91 314.83L262.95 315.54L264.03 316.21L265.14 316.84L266.28 317.4L267.46 317.92L268.66 318.38L269.89 318.79L271.15 319.13L272.43 319.42L273.74 319.65L275.06 319.81L276.41 319.91L277.77 319.95L279.14 319.91L280.48 319.81L281.81 319.65L283.11 319.42L284.4 319.13L285.65 318.79L286.89 318.38L288.09 317.92L289.26 317.4L290.41 316.84L291.52 316.21L292.59 315.54L293.63 314.83L294.64 314.06L295.6 313.25L296.52 312.4L297.4 311.5L298.23 310.57L299.02 309.6L299.76 308.59L300.45 307.54L301.09 306.46L301.67 305.35L302.2 304.21L302.68 303.04L303.1 301.84L303.45 300.62L303.75 299.38L303.98 298.11L304.15 296.82L304.25 295.51L304.29 294.19L304.25 292.86L304.15 291.56L303.98 290.27L303.75 289L303.45 287.75L303.1 286.53L302.68 285.34L302.2 284.17L301.67 283.03L301.09 281.92L300.45 280.84L299.76 279.79L299.02 278.78L298.23 277.81L297.4 276.87L296.52 275.98L295.6 275.13L294.64 274.32L293.63 273.55L292.59 272.83L291.52 272.16L290.41 271.54L289.26 270.97L289.2 270.95L289.23 270.92L289.23 270.92L289.86 271.23L474.5 76.76L474.95 76.82L478.84 77.48ZM255.07 307.49L254.85 307.12L255.07 307.5L255.07 307.49Z" id="a2idYzHbUE"></path><path d="M302.46 551.33L302.05 551.42L301.64 551.53L301.25 551.68L300.87 551.86L300.51 552.06L300.17 552.29L299.85 552.55L299.55 552.83L299.27 553.13L299.01 553.45L298.78 553.8L298.57 554.16L298.4 554.53L298.25 554.92L298.13 555.33L298.05 555.75L297.99 556.18L297.98 556.62L297.99 557.06L298.05 557.49L298.13 557.91L298.25 558.31L298.4 558.7L298.57 559.08L298.78 559.44L299.01 559.78L299.27 560.1L299.55 560.41L299.85 560.69L299.95 560.77L299.95 560.77L224.37 640L182.42 640L181.6 639.98L180.78 639.93L179.98 639.85L179.18 639.74L178.39 639.59L177.62 639.42L176.85 639.21L176.1 638.98L175.36 638.72L174.64 638.43L173.93 638.11L173.23 637.77L172.55 637.4L171.89 637L171.24 636.58L170.61 636.14L170 635.67L169.41 635.19L168.84 634.67L168.28 634.14L167.75 633.59L167.24 633.02L166.75 632.42L166.28 631.81L165.84 631.18L165.42 630.54L165.03 629.87L164.66 629.19L164.31 628.5L164 627.78L163.71 627.06L163.44 626.32L163.21 625.57L163.01 624.81L162.83 624.03L162.69 623.24L162.57 622.45L162.49 621.64L162.44 620.82L162.42 620L162.42 514.31L245.05 427.28L312.42 427.28L312.42 450.36L303.33 450.36L302.89 450.37L302.46 450.43L302.05 450.51L301.64 450.63L301.25 450.78L300.87 450.96L300.51 451.16L300.17 451.39L299.85 451.65L299.55 451.93L299.27 452.23L299.01 452.55L298.78 452.89L298.57 453.25L298.4 453.63L298.25 454.02L298.13 454.43L298.05 454.85L297.99 455.27L297.98 455.71L297.99 456.15L298.05 456.58L298.13 457L298.25 457.41L298.4 457.8L298.57 458.18L298.78 458.54L299.01 458.88L299.27 459.2L299.55 459.5L299.85 459.78L300.17 460.04L300.51 460.27L300.87 460.47L301.25 460.65L301.64 460.8L302.05 460.92L302.46 461L302.89 461.05L303.33 461.07L312.42 461.07L312.42 470.36L303.33 470.36L302.89 470.37L302.46 470.43L302.05 470.51L301.64 470.63L301.25 470.78L300.87 470.96L300.51 471.16L300.17 471.39L299.85 471.65L299.55 471.93L299.27 472.23L299.01 472.55L298.78 472.89L298.57 473.25L298.4 473.63L298.25 474.02L298.13 474.43L298.05 474.85L297.99 475.27L297.98 475.71L297.99 476.15L298.05 476.58L298.13 477L298.25 477.41L298.4 477.8L298.57 478.18L298.78 478.54L299.01 478.88L299.27 479.2L299.55 479.5L299.85 479.78L300.17 480.04L300.51 480.27L300.87 480.47L301.25 480.65L301.64 480.8L302.05 480.92L302.46 481L302.89 481.05L303.33 481.07L312.42 481.07L312.42 490.36L303.33 490.36L302.89 490.37L302.46 490.43L302.05 490.51L301.64 490.63L301.25 490.78L300.87 490.96L300.51 491.16L300.17 491.39L299.85 491.65L299.55 491.93L299.27 492.23L299.01 492.55L298.78 492.89L298.57 493.25L298.4 493.63L298.25 494.02L298.13 494.43L298.05 494.85L297.99 495.27L297.98 495.71L297.99 496.15L298.05 496.58L298.13 497L298.25 497.41L298.4 497.8L298.57 498.18L298.78 498.54L299.01 498.88L299.27 499.2L299.55 499.5L299.85 499.78L300.17 500.04L300.51 500.27L300.87 500.47L301.25 500.65L301.64 500.8L302.05 500.92L302.46 501L302.89 501.05L303.33 501.07L312.42 501.07L312.42 510.36L303.33 510.36L302.89 510.37L302.46 510.43L302.05 510.51L301.64 510.63L301.25 510.78L300.87 510.96L300.51 511.16L300.17 511.39L299.85 511.65L299.55 511.93L299.27 512.23L299.01 512.55L298.78 512.89L298.57 513.25L298.4 513.63L298.25 514.02L298.13 514.43L298.05 514.85L297.99 515.27L297.98 515.71L297.99 516.15L298.05 516.58L298.13 517L298.25 517.41L298.4 517.8L298.57 518.18L298.78 518.54L299.01 518.88L299.27 519.2L299.55 519.5L299.85 519.78L300.17 520.04L300.51 520.27L300.87 520.47L301.25 520.65L301.64 520.8L302.05 520.92L302.46 521L302.89 521.05L303.33 521.07L312.42 521.07L312.42 530.36L303.33 530.36L302.89 530.37L302.46 530.43L302.05 530.51L301.64 530.63L301.25 530.78L300.87 530.96L300.51 531.16L300.17 531.39L299.85 531.65L299.55 531.93L299.27 532.23L299.01 532.55L298.78 532.89L298.57 533.25L298.4 533.63L298.25 534.02L298.13 534.43L298.05 534.85L297.99 535.27L297.98 535.71L297.99 536.15L298.05 536.58L298.13 537L298.25 537.41L298.4 537.8L298.57 538.18L298.78 538.54L299.01 538.88L299.27 539.2L299.55 539.5L299.85 539.78L300.17 540.04L300.51 540.27L300.87 540.47L301.25 540.65L301.64 540.8L302.05 540.92L302.46 541L302.89 541.05L303.33 541.07L312.42 541.07L312.42 547.68L309.01 551.26L303.33 551.26L302.89 551.28L302.46 551.33ZM339.61 621.2L339.25 621.41L338.87 621.59L338.48 621.74L338.07 621.86L337.65 621.94L337.22 621.99L336.77 622.01L327.58 622.01L327.58 640L327.58 640L327.58 622.01L336.77 622.01L337.22 621.99L337.65 621.94L338.07 621.86L338.48 621.74L338.87 621.59L339.25 621.41L339.61 621.2L339.96 620.97L340.14 620.82L339.96 620.97L339.61 621.2ZM477.58 485.43L330.82 640L330.08 640L477.58 485.36L477.58 485.43ZM337.65 611.23L338.07 611.31L338.48 611.43L338.87 611.58L339.25 611.76L339.61 611.96L339.96 612.2L340.28 612.45L340.59 612.73L340.87 613.04L341.13 613.36L341.36 613.71L341.56 614.07L341.74 614.45L341.89 614.84L342.01 615.25L342.1 615.67L342.15 616.1L342.17 616.55L342.17 616.62L342.15 617.06L342.1 617.49L342.01 617.92L341.89 618.32L341.74 618.72L341.56 619.1L341.36 619.46L341.13 619.8L340.87 620.13L340.59 620.43L340.28 620.71L340.28 620.71L340.59 620.43L340.87 620.13L341.13 619.8L341.36 619.46L341.56 619.1L341.74 618.72L341.89 618.32L342.01 617.92L342.1 617.49L342.15 617.06L342.17 616.62L342.17 616.55L342.15 616.1L342.1 615.67L342.01 615.25L341.89 614.84L341.74 614.45L341.56 614.07L341.36 613.71L341.13 613.36L340.87 613.04L340.59 612.73L340.28 612.45L339.96 612.2L339.61 611.96L339.25 611.76L338.87 611.58L338.48 611.43L338.07 611.31L337.65 611.23L337.22 611.17L336.77 611.15L336.77 611.15L337.22 611.17L337.65 611.23ZM297.85 616.1L297.83 616.55L297.85 616.1L297.85 616.1ZM337.54 591.33L337.95 591.42L338.36 591.53L338.75 591.68L339.13 591.86L339.49 592.06L339.83 592.29L340.15 592.55L340.45 592.83L340.73 593.13L340.99 593.45L341.22 593.8L341.43 594.16L341.6 594.53L341.75 594.92L341.87 595.33L341.95 595.75L342.01 596.18L342.02 596.62L342.01 597.06L341.95 597.49L341.87 597.91L341.75 598.31L341.6 598.7L341.43 599.08L341.22 599.44L340.99 599.78L340.73 600.1L340.45 600.41L340.15 600.69L339.83 600.94L339.49 601.17L339.13 601.38L338.75 601.55L338.36 601.7L337.95 601.82L337.54 601.9L337.11 601.96L336.67 601.98L327.58 601.98L327.58 611.15L327.58 611.15L327.58 601.98L336.67 601.98L337.11 601.96L337.54 601.9L337.95 601.82L338.36 601.7L338.75 601.55L339.13 601.38L339.49 601.17L339.83 600.94L340.15 600.69L340.45 600.41L340.73 600.1L340.99 599.78L341.22 599.44L341.43 599.08L341.6 598.7L341.75 598.31L341.87 597.91L341.95 597.49L342.01 597.06L342.02 596.62L342.01 596.18L341.95 595.75L341.87 595.33L341.75 594.92L341.6 594.53L341.43 594.16L341.22 593.8L340.99 593.45L340.73 593.13L340.45 592.83L340.15 592.55L339.83 592.29L339.49 592.06L339.13 591.86L338.75 591.68L338.36 591.53L337.95 591.42L337.54 591.33L337.11 591.28L336.67 591.26L336.67 591.26L337.11 591.28L337.54 591.33ZM337.54 571.33L337.95 571.42L338.36 571.53L338.75 571.68L339.13 571.86L339.49 572.06L339.83 572.29L340.15 572.55L340.45 572.83L340.73 573.13L340.99 573.45L341.22 573.8L341.43 574.16L341.6 574.53L341.75 574.92L341.87 575.33L341.95 575.75L342.01 576.18L342.02 576.62L342.01 577.06L341.95 577.49L341.87 577.91L341.75 578.31L341.6 578.7L341.43 579.08L341.22 579.44L340.99 579.78L340.73 580.1L340.45 580.41L340.15 580.69L339.83 580.94L339.49 581.17L339.13 581.38L338.75 581.55L338.36 581.7L337.95 581.82L337.54 581.9L337.11 581.96L336.67 581.98L327.58 581.98L327.58 591.26L327.58 591.26L327.58 581.98L336.67 581.98L337.11 581.96L337.54 581.9L337.95 581.82L338.36 581.7L338.75 581.55L339.13 581.38L339.49 581.17L339.83 580.94L340.15 580.69L340.45 580.41L340.73 580.1L340.99 579.78L341.22 579.44L341.43 579.08L341.6 578.7L341.75 578.31L341.87 577.91L341.95 577.49L342.01 577.06L342.02 576.62L342.01 576.18L341.95 575.75L341.87 575.33L341.75 574.92L341.6 574.53L341.43 574.16L341.22 573.8L340.99 573.45L340.73 573.13L340.45 572.83L340.15 572.55L339.83 572.29L339.49 572.06L339.13 571.86L338.75 571.68L338.36 571.53L337.95 571.42L337.54 571.33L337.11 571.28L336.67 571.26L336.67 571.26L337.11 571.28L337.54 571.33ZM337.54 551.33L337.95 551.42L338.36 551.53L338.75 551.68L339.13 551.86L339.49 552.06L339.83 552.29L340.15 552.55L340.45 552.83L340.73 553.13L340.99 553.45L341.22 553.8L341.43 554.16L341.6 554.53L341.75 554.92L341.87 555.33L341.95 555.75L342.01 556.18L342.02 556.62L342.01 557.06L341.95 557.49L341.87 557.91L341.75 558.31L341.6 558.7L341.43 559.08L341.22 559.44L340.99 559.78L340.73 560.1L340.45 560.41L340.15 560.69L339.83 560.94L339.49 561.17L339.13 561.38L338.75 561.55L338.36 561.7L337.95 561.82L337.54 561.9L337.11 561.96L336.67 561.98L327.58 561.98L327.58 571.26L327.58 571.26L327.58 561.98L336.67 561.98L337.11 561.96L337.54 561.9L337.95 561.82L338.36 561.7L338.75 561.55L339.13 561.38L339.49 561.17L339.83 560.94L340.15 560.69L340.45 560.41L340.73 560.1L340.99 559.78L341.22 559.44L341.43 559.08L341.6 558.7L341.75 558.31L341.87 557.91L341.95 557.49L342.01 557.06L342.02 556.62L342.01 556.18L341.95 555.75L341.87 555.33L341.75 554.92L341.6 554.53L341.43 554.16L341.22 553.8L340.99 553.45L340.73 553.13L340.45 552.83L340.15 552.55L339.83 552.29L339.49 552.06L339.13 551.86L338.75 551.68L338.36 551.53L337.95 551.42L337.54 551.33L337.11 551.28L336.67 551.26L336.67 551.26L337.11 551.28L337.54 551.33ZM337.54 530.43L337.95 530.51L338.36 530.63L338.75 530.78L339.13 530.96L339.49 531.16L339.83 531.39L340.15 531.65L340.45 531.93L340.73 532.23L340.99 532.55L341.22 532.89L341.43 533.25L341.6 533.63L341.75 534.02L341.87 534.43L341.95 534.85L342.01 535.27L342.02 535.71L342.01 536.15L341.95 536.58L341.87 537L341.75 537.41L341.6 537.8L341.43 538.18L341.22 538.54L340.99 538.88L340.73 539.2L340.45 539.5L340.15 539.78L339.83 540.04L339.49 540.27L339.13 540.47L338.75 540.65L338.36 540.8L337.95 540.92L337.54 541L337.11 541.05L336.67 541.07L327.58 541.07L327.58 551.26L327.58 551.26L327.58 541.07L336.67 541.07L337.11 541.05L337.54 541L337.95 540.92L338.36 540.8L338.75 540.65L339.13 540.47L339.49 540.27L339.83 540.04L340.15 539.78L340.45 539.5L340.73 539.2L340.99 538.88L341.22 538.54L341.43 538.18L341.6 537.8L341.75 537.41L341.87 537L341.95 536.58L342.01 536.15L342.02 535.71L342.01 535.27L341.95 534.85L341.87 534.43L341.75 534.02L341.6 533.63L341.43 533.25L341.22 532.89L340.99 532.55L340.73 532.23L340.45 531.93L340.15 531.65L339.83 531.39L339.49 531.16L339.13 530.96L338.75 530.78L338.36 530.63L337.95 530.51L337.54 530.43L337.11 530.37L336.67 530.36L336.67 530.36L337.11 530.37L337.54 530.43ZM327.58 521.07L336.67 521.07L337.11 521.05L337.54 521L337.95 520.92L337.96 520.92L328.95 530.36L327.58 530.36L327.58 521.07ZM341.87 517L341.75 517.41L341.6 517.8L341.43 518.18L341.22 518.54L340.99 518.88L340.73 519.2L340.45 519.5L340.15 519.78L339.83 520.04L339.49 520.27L339.13 520.47L338.75 520.65L338.36 520.8L338.27 520.82L338.36 520.8L338.75 520.65L339.13 520.47L339.49 520.27L339.83 520.04L340.15 519.78L340.45 519.5L340.73 519.2L340.99 518.88L341.22 518.54L341.43 518.18L341.6 517.8L341.75 517.41L341.87 517L341.95 516.58L342.01 516.15L342.02 515.71L342.01 515.27L341.95 514.85L341.87 514.43L341.75 514.02L341.6 513.63L341.43 513.25L341.22 512.89L340.99 512.55L340.73 512.23L340.45 511.93L340.15 511.65L339.83 511.39L339.49 511.16L339.13 510.96L338.75 510.78L338.36 510.63L337.95 510.51L337.54 510.43L337.11 510.37L336.67 510.36L327.58 510.36L327.58 501.07L336.67 501.07L337.11 501.05L337.54 501L337.95 500.92L338.36 500.8L338.75 500.65L339.13 500.47L339.49 500.27L339.83 500.04L340.15 499.78L340.45 499.5L340.73 499.2L340.99 498.88L341.22 498.54L341.43 498.18L341.6 497.8L341.75 497.41L341.87 497L341.95 496.58L342.01 496.15L342.02 495.71L342.01 495.27L341.95 494.85L341.87 494.43L341.75 494.02L341.6 493.63L341.43 493.25L341.22 492.89L340.99 492.55L340.73 492.23L340.45 491.93L340.15 491.65L339.83 491.39L339.49 491.16L339.13 490.96L338.75 490.78L338.36 490.63L337.95 490.51L337.54 490.43L337.11 490.37L336.67 490.36L327.58 490.36L327.58 481.07L336.67 481.07L337.11 481.05L337.54 481L337.95 480.92L338.36 480.8L338.75 480.65L339.13 480.47L339.49 480.27L339.83 480.04L340.15 479.78L340.45 479.5L340.73 479.2L340.99 478.88L341.22 478.54L341.43 478.18L341.6 477.8L341.75 477.41L341.87 477L341.95 476.58L342.01 476.15L342.02 475.71L342.01 475.27L341.95 474.85L341.87 474.43L341.75 474.02L341.6 473.63L341.43 473.25L341.22 472.89L340.99 472.55L340.73 472.23L340.45 471.93L340.15 471.65L339.83 471.39L339.49 471.16L339.13 470.96L338.75 470.78L338.36 470.63L337.95 470.51L337.54 470.43L337.11 470.37L336.67 470.36L327.58 470.36L327.58 461.07L336.67 461.07L337.11 461.05L337.54 461L337.95 460.92L338.36 460.8L338.75 460.65L339.13 460.47L339.49 460.27L339.83 460.04L340.15 459.78L340.45 459.5L340.73 459.2L340.99 458.88L341.22 458.54L341.43 458.18L341.6 457.8L341.75 457.41L341.87 457L341.95 456.58L342.01 456.15L342.02 455.71L342.01 455.27L341.95 454.85L341.87 454.43L341.75 454.02L341.6 453.63L341.43 453.25L341.22 452.89L340.99 452.55L340.73 452.23L340.45 451.93L340.15 451.65L339.83 451.39L339.49 451.16L339.13 450.96L338.75 450.78L338.36 450.63L337.95 450.51L337.54 450.43L337.11 450.37L336.67 450.36L327.58 450.36L327.58 427.28L427.26 427.28L341.92 516.76L341.87 517ZM543.07 119.16L545.03 122.21L546.86 125.33L548.56 128.53L550.13 131.79L551.57 135.12L552.87 138.51L554.02 141.96L555.04 145.47L555.9 149.03L556.62 152.64L557.18 156.3L557.59 160L557.83 163.75L557.92 167.53L557.83 171.32L557.59 175.06L557.18 178.77L556.62 182.42L555.9 186.04L555.04 189.6L554.02 193.1L552.87 196.55L551.57 199.95L550.13 203.27L548.56 206.54L546.86 209.73L545.03 212.86L543.07 215.91L541 218.88L538.8 221.77L536.49 224.58L534.07 227.3L531.54 229.93L528.9 232.48L526.16 234.92L523.32 237.27L520.39 239.52L517.36 241.66L514.25 243.7L511.04 245.62L507.75 247.44L504.39 249.13L500.94 250.71L497.43 252.17L493.84 253.5L490.18 254.71L486.46 255.78L482.68 256.72L478.84 257.53L474.95 258.19L471.01 258.71L467.02 259.09L462.98 259.32L458.9 259.39L455.87 259.34L455.87 379.33L455.85 380.39L455.79 381.43L455.68 382.47L455.53 383.49L455.35 384.49L455.13 385.49L454.86 386.46L454.56 387.43L454.23 388.37L453.86 389.3L453.45 390.21L453.01 391.1L452.54 391.97L452.03 392.82L451.5 393.65L450.93 394.45L450.33 395.24L449.71 396L449.05 396.73L448.37 397.44L447.66 398.12L446.93 398.77L446.17 399.4L445.39 400L444.58 400.56L443.75 401.1L442.91 401.6L442.03 402.08L441.14 402.52L440.23 402.92L439.31 403.29L438.36 403.63L437.4 403.93L436.42 404.19L435.43 404.41L434.42 404.6L433.4 404.75L432.37 404.85L431.33 404.91L430.27 404.94L266.27 404.94L360.51 305.67L360.72 305.98L361.5 307.02L362.32 308.04L363.17 309.02L364.06 309.97L364.98 310.88L365.93 311.75L366.92 312.59L367.94 313.39L368.99 314.15L370.07 314.87L371.18 315.54L372.31 316.18L373.47 316.76L374.65 317.31L375.86 317.8L377.09 318.25L378.34 318.65L379.62 319L380.91 319.3L382.22 319.55L383.55 319.75L384.89 319.89L386.25 319.97L387.62 320L388.99 319.97L390.35 319.89L391.7 319.75L393.03 319.55L394.34 319.3L395.63 319L396.9 318.65L398.15 318.25L399.38 317.8L400.59 317.31L401.78 316.76L402.93 316.18L404.07 315.54L405.17 314.87L406.25 314.15L407.3 313.39L408.32 312.59L409.31 311.75L410.27 310.88L411.19 309.97L412.07 309.02L412.93 308.04L413.74 307.02L414.52 305.98L415.26 304.9L415.96 303.79L416.62 302.66L417.23 301.49L417.8 300.3L418.33 299.08L418.82 297.84L419.25 296.58L419.64 295.29L419.99 293.99L420.28 292.66L420.52 291.31L420.71 289.95L420.84 288.57L420.93 287.17L420.95 285.76L420.93 284.35L420.84 282.96L420.71 281.58L420.52 280.21L420.28 278.87L419.99 277.54L419.64 276.23L419.25 274.95L418.82 273.68L418.33 272.44L417.8 271.23L417.23 270.03L416.62 268.87L415.96 267.73L415.26 266.63L414.52 265.55L413.74 264.5L412.93 263.49L412.07 262.51L411.19 261.56L410.27 260.65L409.31 259.77L408.32 258.93L407.3 258.14L406.32 257.42L540.74 115.84L541 116.19L543.07 119.16Z" id="bIHYmQcpP"></path><path d="M466.98 75.88L470.97 76.26L474.53 76.73L289.86 271.25L289.23 270.93L288.06 270.42L286.85 269.96L285.62 269.55L284.36 269.2L283.08 268.92L281.77 268.69L280.45 268.53L279.1 268.43L277.74 268.39L276.37 268.43L275.03 268.53L273.7 268.69L272.4 268.92L271.11 269.2L269.86 269.55L268.63 269.96L267.42 270.42L266.25 270.93L265.1 271.5L263.99 272.12L262.92 272.79L261.88 273.51L260.88 274.28L259.91 275.09L258.99 275.94L258.11 276.84L257.28 277.77L256.49 278.74L255.75 279.75L255.06 280.8L254.43 281.88L253.84 282.99L253.31 284.13L252.83 285.3L252.42 286.49L252.06 287.72L251.76 288.96L251.53 290.23L251.36 291.52L251.26 292.83L251.22 294.15L251.26 295.48L251.36 296.78L251.53 298.07L251.76 299.34L252.06 300.58L252.42 301.81L252.83 303L253.31 304.17L253.84 305.31L254.43 306.42L255.06 307.5L255.22 307.73L189.17 377.3L189.17 321.47L412.44 86.31L413.38 85.84L416.82 84.26L420.34 82.8L423.93 81.47L427.58 80.27L431.3 79.19L435.08 78.25L438.92 77.45L442.81 76.78L446.76 76.26L450.75 75.88L454.79 75.66L458.87 75.58L462.94 75.66L466.98 75.88Z" id="a2osQYBgeJ"></path><path d="M310.05 0.81L314.45 1.43L318.79 2.22L323.07 3.18L327.28 4.3L331.43 5.58L335.5 7.01L339.5 8.59L343.42 10.33L347.26 12.21L351.02 14.23L354.68 16.38L358.25 18.67L361.73 21.1L365.1 23.65L368.37 26.32L371.54 29.11L374.59 32.02L377.53 35.05L380.35 38.18L383.05 41.42L385.63 44.76L388.07 48.2L390.39 51.74L392.57 55.36L394.61 59.08L396.51 62.88L398.26 66.76L399.86 70.72L401.3 74.76L402.6 78.86L403.73 83.04L404.69 87.27L405.26 90.34L406.76 89.44L410.05 87.63L412.24 86.52L412.05 86.73L410.04 87.73L406.76 89.55L405.26 90.45L404.69 87.38L403.72 83.14L402.59 78.97L401.3 74.86L399.86 70.83L398.26 66.87L396.5 62.99L394.61 59.19L392.57 55.47L390.39 51.84L388.07 48.31L385.63 44.87L383.05 41.52L380.35 38.29L377.53 35.15L374.59 32.13L371.54 29.22L368.37 26.43L366.63 25L125.04 278.46L123.17 277.21L120.2 275.04L117.31 272.76L114.51 270.37L111.81 267.87L109.2 265.27L106.7 262.58L104.3 259.79L102.01 256.91L99.82 253.94L97.75 250.89L95.79 247.75L93.95 244.54L92.23 241.25L90.63 237.89L89.16 234.46L87.82 230.96L86.62 227.4L85.55 223.79L84.61 220.12L83.82 216.39L83.17 212.62L82.67 208.8L82.32 204.94L82.12 201.03L82.08 197.1L82.2 193.13L82.48 189.16L82.91 185.25L83.49 181.39L84.22 177.58L85.09 173.83L86.11 170.14L87.27 166.51L88.56 162.95L89.98 159.45L91.53 156.03L93.21 152.69L95.01 149.42L96.93 146.23L98.97 143.13L101.12 140.11L103.38 137.18L105.74 134.35L108.21 131.61L110.78 128.97L113.44 126.43L116.2 124L119.05 121.67L121.98 119.46L125 117.35L128.1 115.37L131.28 113.5L134.53 111.76L137.85 110.14L141.24 108.65L144.7 107.29L148.21 106.06L151.79 104.97L155.42 104.02L159.1 103.22L162.82 102.56L166.6 102.04L170.41 101.68L174.27 101.48L178.16 101.43L182.08 101.55L185.99 101.82L186.45 101.87L186.54 100.33L186.99 95.92L187.62 91.57L188.42 87.27L189.39 83.04L190.52 78.86L191.81 74.76L193.25 70.72L194.86 66.76L196.61 62.88L198.5 59.08L200.54 55.36L202.72 51.74L205.04 48.2L207.48 44.76L210.06 41.42L212.76 38.18L215.58 35.05L218.52 32.02L221.57 29.11L224.74 26.32L228.01 23.65L231.38 21.1L234.86 18.67L238.43 16.38L242.09 14.23L245.85 12.21L249.69 10.33L253.61 8.59L257.61 7.01L261.68 5.58L265.83 4.3L270.04 3.18L274.32 2.22L278.66 1.43L283.06 0.81L287.51 0.36L292.01 0.09L296.56 0L301.1 0.09L305.6 0.36L305.6 0.36L310.05 0.81Z" id="acwAUl3uc"></path><path d="M459.22 427.35L460.02 427.43L460.82 427.55L461.61 427.69L462.38 427.86L463.15 428.07L463.9 428.3L464.64 428.57L465.36 428.86L466.07 429.17L466.77 429.52L467.45 429.89L468.11 430.28L468.76 430.7L469.39 431.14L470 431.61L470.59 432.1L471.16 432.61L471.72 433.14L472.25 433.69L472.76 434.27L473.25 434.86L473.72 435.47L474.16 436.1L474.58 436.75L474.97 437.41L475.34 438.09L475.69 438.79L476 439.5L476.29 440.22L476.56 440.96L476.79 441.71L476.99 442.48L477.17 443.25L477.31 444.04L477.43 444.84L477.51 445.64L477.56 446.46L477.58 447.28L477.58 485.36L330.08 640L327.58 640L327.58 622.01L336.77 622.01L337.22 621.99L337.65 621.94L338.07 621.86L338.48 621.74L338.87 621.59L339.25 621.41L339.61 621.2L339.96 620.97L340.28 620.71L340.59 620.43L340.87 620.13L341.13 619.8L341.36 619.46L341.56 619.1L341.74 618.72L341.89 618.32L342.01 617.92L342.1 617.49L342.15 617.06L342.17 616.62L342.17 616.55L342.15 616.1L342.1 615.67L342.01 615.25L341.89 614.84L341.74 614.45L341.56 614.07L341.36 613.71L341.13 613.36L340.87 613.04L340.59 612.73L340.28 612.45L339.96 612.2L339.61 611.96L339.25 611.76L338.87 611.58L338.48 611.43L338.07 611.31L337.65 611.23L337.22 611.17L336.77 611.15L327.58 611.15L327.58 601.98L336.67 601.98L337.11 601.96L337.54 601.9L337.95 601.82L338.36 601.7L338.75 601.55L339.13 601.38L339.49 601.17L339.83 600.94L340.15 600.69L340.45 600.41L340.73 600.1L340.99 599.78L341.22 599.44L341.43 599.08L341.6 598.7L341.75 598.31L341.87 597.91L341.95 597.49L342.01 597.06L342.02 596.62L342.01 596.18L341.95 595.75L341.87 595.33L341.75 594.92L341.6 594.53L341.43 594.16L341.22 593.8L340.99 593.45L340.73 593.13L340.45 592.83L340.15 592.55L339.83 592.29L339.49 592.06L339.13 591.86L338.75 591.68L338.36 591.53L337.95 591.42L337.54 591.33L337.11 591.28L336.67 591.26L327.58 591.26L327.58 581.98L336.67 581.98L337.11 581.96L337.54 581.9L337.95 581.82L338.36 581.7L338.75 581.55L339.13 581.38L339.49 581.17L339.83 580.94L340.15 580.69L340.45 580.41L340.73 580.1L340.99 579.78L341.22 579.44L341.43 579.08L341.6 578.7L341.75 578.31L341.87 577.91L341.95 577.49L342.01 577.06L342.02 576.62L342.01 576.18L341.95 575.75L341.87 575.33L341.75 574.92L341.6 574.53L341.43 574.16L341.22 573.8L340.99 573.45L340.73 573.13L340.45 572.83L340.15 572.55L339.83 572.29L339.49 572.06L339.13 571.86L338.75 571.68L338.36 571.53L337.95 571.42L337.54 571.33L337.11 571.28L336.67 571.26L327.58 571.26L327.58 561.98L336.67 561.98L337.11 561.96L337.54 561.9L337.95 561.82L338.36 561.7L338.75 561.55L339.13 561.38L339.49 561.17L339.83 560.94L340.15 560.69L340.45 560.41L340.73 560.1L340.99 559.78L341.22 559.44L341.43 559.08L341.6 558.7L341.75 558.31L341.87 557.91L341.95 557.49L342.01 557.06L342.02 556.62L342.01 556.18L341.95 555.75L341.87 555.33L341.75 554.92L341.6 554.53L341.43 554.16L341.22 553.8L340.99 553.45L340.73 553.13L340.45 552.83L340.15 552.55L339.83 552.29L339.49 552.06L339.13 551.86L338.75 551.68L338.36 551.53L337.95 551.42L337.54 551.33L337.11 551.28L336.67 551.26L327.58 551.26L327.58 541.07L336.67 541.07L337.11 541.05L337.54 541L337.95 540.92L338.36 540.8L338.75 540.65L339.13 540.47L339.49 540.27L339.83 540.04L340.15 539.78L340.45 539.5L340.73 539.2L340.99 538.88L341.22 538.54L341.43 538.18L341.6 537.8L341.75 537.41L341.87 537L341.95 536.58L342.01 536.15L342.02 535.71L342.01 535.27L341.95 534.85L341.87 534.43L341.75 534.02L341.6 533.63L341.43 533.25L341.22 532.89L340.99 532.55L340.73 532.23L340.45 531.93L340.15 531.65L339.83 531.39L339.49 531.16L339.13 530.96L338.75 530.78L338.36 530.63L337.95 530.51L337.54 530.43L337.11 530.37L336.67 530.36L328.95 530.36L337.96 520.92L338.36 520.8L338.75 520.65L339.13 520.47L339.49 520.27L339.83 520.04L340.15 519.78L340.45 519.5L340.73 519.2L340.99 518.88L341.22 518.54L341.43 518.18L341.6 517.8L341.75 517.41L341.87 517L341.92 516.76L427.26 427.28L457.58 427.28L458.4 427.3L459.22 427.35ZM300.51 561.17L300.87 561.38L301.25 561.55L301.64 561.7L302.05 561.82L302.46 561.9L302.89 561.96L303.33 561.98L312.42 561.98L312.42 571.26L303.33 571.26L302.89 571.28L302.46 571.33L302.05 571.42L301.64 571.53L301.25 571.68L300.87 571.86L300.51 572.06L300.17 572.29L299.85 572.55L299.55 572.83L299.27 573.13L299.01 573.45L298.78 573.8L298.57 574.16L298.4 574.53L298.25 574.92L298.13 575.33L298.05 575.75L297.99 576.18L297.98 576.62L297.99 577.06L298.05 577.49L298.13 577.91L298.25 578.31L298.4 578.7L298.57 579.08L298.78 579.44L299.01 579.78L299.27 580.1L299.55 580.41L299.85 580.69L300.17 580.94L300.51 581.17L300.87 581.38L301.25 581.55L301.64 581.7L302.05 581.82L302.46 581.9L302.89 581.96L303.33 581.98L312.42 581.98L312.42 591.26L303.33 591.26L302.89 591.28L302.46 591.33L302.05 591.42L301.64 591.53L301.25 591.68L300.87 591.86L300.51 592.06L300.17 592.29L299.85 592.55L299.55 592.83L299.27 593.13L299.01 593.45L298.78 593.8L298.57 594.16L298.4 594.53L298.25 594.92L298.13 595.33L298.05 595.75L297.99 596.18L297.98 596.62L297.99 597.06L298.05 597.49L298.13 597.91L298.25 598.31L298.4 598.7L298.57 599.08L298.78 599.44L299.01 599.78L299.27 600.1L299.55 600.41L299.85 600.69L300.17 600.94L300.51 601.17L300.87 601.38L301.25 601.55L301.64 601.7L302.05 601.82L302.46 601.9L302.89 601.96L303.33 601.98L312.42 601.98L312.42 611.15L303.23 611.15L302.78 611.17L302.35 611.23L301.93 611.31L301.52 611.43L301.13 611.58L300.75 611.76L300.38 611.96L300.04 612.2L299.72 612.45L299.41 612.73L299.13 613.04L298.87 613.36L298.64 613.71L298.44 614.07L298.26 614.45L298.11 614.84L297.99 615.25L297.9 615.67L297.85 616.1L297.83 616.55L297.83 616.62L297.85 617.06L297.9 617.49L297.99 617.92L298.11 618.32L298.26 618.72L298.44 619.1L298.64 619.46L298.87 619.8L299.13 620.13L299.41 620.43L299.72 620.71L300.04 620.97L300.38 621.2L300.75 621.41L301.13 621.59L301.52 621.74L301.93 621.86L302.35 621.94L302.78 621.99L303.23 622.01L312.42 622.01L312.42 640L224.37 640L299.95 560.77L300.17 560.94L300.51 561.17ZM309.01 551.26L312.42 547.68L312.42 551.26L309.01 551.26Z" id="h6txCALHj8"></path><path d="M371.54 29.22L374.59 32.13L377.53 35.15L380.35 38.29L383.05 41.52L385.63 44.87L388.07 48.31L390.39 51.84L392.57 55.47L394.61 59.19L396.5 62.99L398.26 66.87L399.86 70.83L401.3 74.86L402.59 78.97L403.72 83.14L404.69 87.38L405.26 90.45L406.76 89.55L410.04 87.73L412.24 86.63L302.57 202.14L189.21 321.07L189.21 293.57L188.03 293.73L184.21 294.09L180.36 294.3L176.47 294.34L172.54 294.23L168.63 293.96L164.76 293.52L160.95 292.94L157.19 292.21L153.48 291.32L149.84 290.3L146.26 289.13L142.74 287.83L139.29 286.39L135.91 284.83L132.61 283.13L129.38 281.31L126.24 279.37L124.97 278.53L366.63 25L368.37 26.43L371.54 29.22Z" id="a1uJTf2PLD"></path><path d="M371.54 29.22L374.59 32.13L377.53 35.15L380.35 38.29L383.05 41.52L385.63 44.87L388.07 48.31L390.39 51.84L392.57 55.47L394.61 59.19L396.5 62.99L398.26 66.87L399.86 70.83L401.3 74.86L402.59 78.97L403.72 83.14L404.69 87.38L405.26 90.45L406.76 89.55L410.04 87.73L412.24 86.63L302.57 202.14L189.21 321.07L189.21 293.57L188.03 293.73L184.21 294.09L180.36 294.3L176.47 294.34L172.54 294.23L168.63 293.96L164.76 293.52L160.95 292.94L157.19 292.21L153.48 291.32L149.84 290.3L146.26 289.13L142.74 287.83L139.29 286.39L135.91 284.83L132.61 283.13L129.38 281.31L126.24 279.37L124.97 278.53L366.63 25L368.37 26.43L371.54 29.22Z" id="a7xYxdMry"></path></defs><g><g><g><use xlink:href="#b1szsw6m9H" opacity="1" fill="#b096a3" fill-opacity="1"></use></g><g><use xlink:href="#a1a1AVtdZ9" opacity="1" fill="#f6394f" fill-opacity="1"></use></g><g><use xlink:href="#a2idYzHbUE" opacity="1" fill="#b2849a" fill-opacity="1"></use></g><g><use xlink:href="#bIHYmQcpP" opacity="1" fill="#b2485a" fill-opacity="1"></use></g><g><use xlink:href="#a2osQYBgeJ" opacity="1" fill="#a8adc2" fill-opacity="1"></use></g><g><use xlink:href="#acwAUl3uc" opacity="1" fill="#4f979b" fill-opacity="1"></use></g><g><use xlink:href="#h6txCALHj8" opacity="1" fill="#d34054" fill-opacity="1"></use></g><g><use xlink:href="#a1uJTf2PLD" opacity="1" fill="#7ca2af" fill-opacity="1"></use></g><g><use xlink:href="#a7xYxdMry" opacity="1" fill="#7ca2af" fill-opacity="1"></use></g></g></g></svg>