<?xml version="1.0" encoding="UTF-8" standalone="no"?>
<!DOCTYPE svg PUBLIC "-//W3C//DTD SVG 1.1//EN" "http://www.w3.org/Graphics/SVG/1.1/DTD/svg11.dtd">
<svg version="1.1" xmlns="http://www.w3.org/2000/svg" xmlns:xlink="http://www.w3.org/1999/xlink" preserveAspectRatio="xMidYMid meet" viewBox="0 0 640 640" width="640" height="640"><defs><path d="M640 320C640 496.61 496.61 640 320 640C143.39 640 0 496.61 0 320C0 143.39 143.39 0 320 0C496.61 0 640 143.39 640 320Z" id="b4dHd0ofzS"></path><path d="" id="a1plCTLB4x"></path><path d="M638.91 293.45L638.91 293.53L638.94 293.77L638.94 293.77L639.73 306.82L640 320L639.73 333.18L638.94 346.23L637.63 359.13L635.81 371.88L633.49 384.46L630.69 396.86L627.42 409.08L623.67 421.1L619.48 432.91L614.84 444.51L609.76 455.88L604.26 467.01L598.35 477.89L592.03 488.51L585.32 498.86L578.22 508.94L570.76 518.72L562.93 528.2L554.75 537.38L546.23 546.23L537.38 554.75L528.2 562.93L518.72 570.76L508.94 578.22L498.86 585.32L488.51 592.03L477.89 598.35L467.01 604.26L455.88 609.76L444.51 614.84L432.91 619.48L421.1 623.67L409.08 627.42L396.86 630.69L384.46 633.49L371.88 635.81L359.13 637.63L346.23 638.94L333.18 639.73L320 640L306.82 639.73L305.34 639.64L200.26 551.47L200.45 551.61L200.96 551.93L201.48 552.24L202.01 552.53L202.55 552.8L203.11 553.05L203.68 553.28L204.25 553.49L204.84 553.67L205.44 553.83L206.04 553.97L206.66 554.09L207.28 554.18L207.91 554.24L208.55 554.29L209.19 554.3L315.63 554.81L315.63 554.79L315.56 541.57L307.68 541.53L307.27 541.51L306.87 541.45L306.49 541.35L306.12 541.21L305.77 541.05L305.44 540.84L305.13 540.61L304.85 540.36L304.59 540.07L304.36 539.76L304.16 539.43L303.99 539.08L303.86 538.72L303.76 538.33L303.69 537.94L303.67 537.54L303.69 537.15L303.75 536.76L303.84 536.37L303.98 536.01L304.14 535.66L304.34 535.33L304.57 535.03L304.83 534.75L305.11 534.49L305.41 534.26L305.74 534.06L306.09 533.9L306.45 533.76L306.83 533.67L307.23 533.61L307.64 533.59L315.52 533.63L315.52 533.6L315.48 526.86L307.66 526.82L307.26 526.8L306.87 526.73L306.49 526.64L306.13 526.5L305.78 526.34L305.46 526.14L305.15 525.91L304.87 525.65L304.62 525.37L304.39 525.07L304.19 524.75L304.02 524.4L303.89 524.04L303.79 523.66L303.73 523.27L303.71 522.88L303.73 522.49L303.78 522.1L303.88 521.73L304.01 521.37L304.17 521.02L304.37 520.7L304.6 520.4L304.85 520.12L305.13 519.87L305.43 519.64L305.75 519.44L306.09 519.28L306.46 519.15L306.83 519.05L307.22 519L307.62 518.98L315.44 519.02L315.44 518.99L315.4 512.17L307.59 512.13L307.18 512.11L306.79 512.04L306.41 511.95L306.05 511.81L305.7 511.65L305.38 511.45L305.08 511.22L304.79 510.96L304.54 510.68L304.31 510.38L304.11 510.06L303.95 509.71L303.81 509.35L303.71 508.97L303.65 508.58L303.63 508.19L303.65 507.8L303.71 507.41L303.8 507.04L303.93 506.68L304.1 506.33L304.29 506.01L304.52 505.71L304.77 505.43L305.05 505.18L305.35 504.95L305.67 504.75L306.02 504.59L306.38 504.46L306.75 504.36L307.14 504.31L307.54 504.29L315.36 504.33L315.36 504.3L315.33 497.48L307.51 497.44L307.1 497.42L306.71 497.35L306.33 497.26L305.97 497.12L305.63 496.96L305.3 496.76L305 496.53L304.72 496.27L304.46 495.99L304.23 495.69L304.03 495.37L303.87 495.02L303.73 494.66L303.64 494.28L303.57 493.89L303.55 493.5L303.57 493.11L303.63 492.72L303.72 492.35L303.85 491.99L304.02 491.64L304.21 491.32L304.44 491.02L304.69 490.74L304.97 490.49L305.27 490.26L305.59 490.06L305.94 489.9L306.3 489.77L306.67 489.67L307.06 489.62L307.47 489.6L315.28 489.64L315.28 489.61L315.24 482.12L307.43 482.08L307.02 482.06L306.63 482L306.25 481.9L305.89 481.77L305.54 481.6L305.22 481.4L304.91 481.18L304.63 480.92L304.38 480.64L304.15 480.34L303.95 480.01L303.79 479.67L303.65 479.3L303.55 478.93L303.49 478.53L303.47 478.14L303.49 477.76L303.55 477.37L303.64 476.99L303.77 476.63L303.94 476.29L304.13 475.97L304.36 475.66L304.61 475.39L304.89 475.13L305.19 474.91L305.51 474.71L305.86 474.55L306.22 474.42L306.59 474.32L306.98 474.26L307.38 474.24L315.2 474.28L315.2 474.25L315.17 467.43L307.35 467.39L306.94 467.37L306.55 467.31L306.17 467.21L305.81 467.08L305.47 466.91L305.14 466.71L304.84 466.49L304.56 466.23L304.3 465.95L304.07 465.65L303.87 465.32L303.71 464.98L303.57 464.61L303.47 464.24L303.41 463.84L303.39 463.45L303.41 463.07L303.47 462.68L303.56 462.3L303.69 461.94L303.86 461.6L304.05 461.28L304.28 460.97L304.53 460.7L304.81 460.44L305.11 460.22L305.43 460.02L305.78 459.86L306.14 459.73L306.51 459.63L306.9 459.57L307.3 459.55L315.12 459.59L315.12 459.56L315.09 452.74L307.27 452.7L306.86 452.68L306.47 452.62L306.09 452.52L305.73 452.39L305.39 452.22L305.06 452.02L304.76 451.8L304.48 451.54L304.22 451.26L303.99 450.96L303.8 450.63L303.63 450.29L303.5 449.92L303.4 449.55L303.33 449.15L303.31 448.76L303.33 448.38L303.39 447.99L303.48 447.61L303.61 447.25L303.78 446.91L303.97 446.59L304.2 446.28L304.45 446.01L304.73 445.75L305.03 445.53L305.36 445.33L305.7 445.17L306.06 445.04L306.44 444.94L306.83 444.88L307.23 444.86L315.04 444.9L315.04 444.87L315.01 438.05L307.19 438.01L306.79 437.99L306.39 437.93L306.02 437.83L305.65 437.7L305.31 437.53L304.98 437.33L304.68 437.11L304.4 436.85L304.14 436.57L303.92 436.27L303.72 435.94L303.55 435.6L303.42 435.23L303.32 434.86L303.26 434.46L303.24 434.07L303.25 433.69L303.31 433.3L303.41 432.92L303.54 432.56L303.7 432.22L303.9 431.9L304.12 431.59L304.37 431.32L304.65 431.06L304.95 430.84L305.28 430.64L305.62 430.48L305.98 430.35L306.36 430.25L306.75 430.19L307.15 430.17L314.97 430.21L314.93 423.49L314.93 423.41L314.93 423.36L307.11 423.32L306.71 423.3L306.32 423.24L305.94 423.14L305.58 423.01L305.23 422.84L304.91 422.64L304.6 422.42L304.32 422.16L304.07 421.88L303.84 421.58L303.64 421.25L303.47 420.91L303.34 420.54L303.24 420.17L303.18 419.77L303.16 419.38L303.17 419L303.23 418.61L303.33 418.23L303.46 417.87L303.62 417.53L303.82 417.21L304.04 416.9L304.3 416.63L304.57 416.37L304.88 416.15L305.2 415.95L305.54 415.79L305.9 415.66L306.28 415.56L306.67 415.5L307.07 415.48L314.89 415.52L314.89 415.49L314.8 398.55L247.58 398.22L223.88 378.34L224.3 378.61L224.99 379.02L225.7 379.41L226.43 379.77L227.17 380.11L227.93 380.41L228.7 380.69L229.49 380.93L230.28 381.15L231.09 381.33L231.91 381.49L232.75 381.61L233.59 381.7L234.44 381.75L235.3 381.78L410.57 382.62L411.43 382.61L412.28 382.56L413.11 382.48L413.94 382.36L414.76 382.22L415.56 382.04L416.36 381.83L417.14 381.59L417.9 381.32L418.65 381.02L419.39 380.69L420.11 380.34L420.82 379.95L421.51 379.55L422.18 379.11L422.83 378.65L423.47 378.17L424.08 377.66L424.68 377.13L425.25 376.58L425.8 376.01L426.33 375.41L426.84 374.8L427.32 374.16L427.78 373.51L428.22 372.84L428.62 372.15L429.01 371.44L429.36 370.72L429.69 369.98L429.99 369.23L430.26 368.46L430.5 367.68L430.71 366.89L430.88 366.08L431.03 365.26L431.14 364.44L431.23 363.6L431.27 362.75L431.29 361.9L430.83 275.78L433.29 275.83L436.61 275.79L439.89 275.64L443.14 275.38L446.34 275.01L449.51 274.54L452.63 273.96L455.7 273.29L458.72 272.51L461.69 271.64L462.69 271.31L462.69 271.28L464.6 270.65L467.46 269.59L470.25 268.45L472.99 267.21L475.65 265.89L478.25 264.49L480.78 263.01L483.23 261.45L485.61 259.81L487.91 258.09L490.13 256.31L492.26 254.45L494.31 252.53L496.27 250.54L498.14 248.48L499.91 246.37L501.59 244.19L503.17 241.96L504.65 239.67L506.02 237.33L507.28 234.94L508.44 232.5L509.48 230.02L510.41 227.49L511.22 224.91L511.91 222.3L512.48 219.65L512.92 216.97L513.24 214.25L513.43 211.5L513.48 208.72L513.46 208.05L638.82 292.63L638.91 293.45ZM327.21 415.58L335.03 415.62L335.43 415.64L335.83 415.7L336.2 415.8L336.57 415.93L336.91 416.1L337.24 416.3L337.54 416.53L337.82 416.78L338.08 417.06L338.3 417.37L338.5 417.69L338.67 418.04L338.8 418.4L338.9 418.78L338.96 419.17L338.99 419.56L338.97 419.94L338.91 420.33L338.82 420.71L338.68 421.07L338.52 421.41L338.32 421.74L338.1 422.04L337.85 422.32L337.57 422.57L337.27 422.8L336.94 422.99L336.6 423.16L336.24 423.29L335.86 423.38L335.47 423.44L335.07 423.46L327.25 423.42L327.25 423.45L327.29 430.27L335.11 430.31L335.51 430.33L335.9 430.39L336.28 430.49L336.65 430.62L336.99 430.79L337.32 430.99L337.62 431.22L337.9 431.47L338.16 431.75L338.38 432.06L338.58 432.38L338.75 432.73L338.88 433.09L338.98 433.47L339.04 433.86L339.06 434.25L339.05 434.63L338.99 435.02L338.89 435.4L338.76 435.76L338.6 436.1L338.4 436.43L338.18 436.73L337.93 437.01L337.65 437.26L337.34 437.49L337.02 437.68L336.68 437.85L336.32 437.98L335.94 438.07L335.55 438.13L335.15 438.15L327.33 438.11L327.33 438.14L327.37 444.96L335.19 445L335.59 445.02L335.98 445.08L336.36 445.18L336.72 445.31L337.07 445.48L337.39 445.68L337.7 445.91L337.98 446.16L338.23 446.44L338.46 446.75L338.66 447.07L338.83 447.42L338.96 447.78L339.06 448.16L339.12 448.55L339.14 448.94L339.13 449.32L339.07 449.71L338.97 450.09L338.84 450.45L338.68 450.79L338.48 451.12L338.26 451.42L338 451.7L337.73 451.95L337.42 452.18L337.1 452.37L336.76 452.54L336.4 452.67L336.02 452.76L335.63 452.82L335.23 452.84L327.41 452.8L327.41 452.83L327.45 459.65L335.27 459.69L335.67 459.71L336.06 459.77L336.44 459.87L336.8 460L337.15 460.17L337.47 460.37L337.78 460.6L338.06 460.85L338.31 461.13L338.54 461.44L338.74 461.76L338.91 462.11L339.04 462.47L339.14 462.85L339.2 463.24L339.22 463.63L339.2 464.01L339.15 464.4L339.05 464.78L338.92 465.14L338.76 465.48L338.56 465.81L338.33 466.11L338.08 466.39L337.8 466.64L337.5 466.87L337.18 467.06L336.84 467.23L336.47 467.36L336.1 467.45L335.71 467.51L335.31 467.53L327.49 467.49L327.49 467.52L327.53 474.34L335.34 474.38L335.75 474.4L336.14 474.46L336.52 474.56L336.88 474.69L337.23 474.86L337.55 475.06L337.85 475.29L338.14 475.54L338.39 475.82L338.62 476.13L338.82 476.45L338.98 476.8L339.12 477.16L339.22 477.54L339.28 477.93L339.3 478.32L339.28 478.7L339.22 479.09L339.13 479.47L339 479.83L338.83 480.17L338.64 480.5L338.41 480.8L338.16 481.08L337.88 481.33L337.58 481.56L337.26 481.75L336.91 481.92L336.55 482.05L336.18 482.14L335.79 482.2L335.39 482.22L327.57 482.18L327.57 482.21L327.61 489.7L335.43 489.73L335.83 489.75L336.22 489.82L336.6 489.91L336.96 490.05L337.31 490.21L337.63 490.41L337.94 490.64L338.22 490.9L338.47 491.18L338.7 491.48L338.9 491.81L339.07 492.15L339.2 492.51L339.3 492.89L339.36 493.28L339.38 493.67L339.36 494.06L339.31 494.45L339.21 494.82L339.08 495.18L338.92 495.53L338.72 495.85L338.49 496.15L338.24 496.43L337.96 496.68L337.66 496.91L337.34 497.11L337 497.27L336.64 497.4L336.26 497.5L335.87 497.55L335.47 497.57L327.65 497.54L327.65 497.57L327.69 504.39L335.5 504.42L335.91 504.44L336.3 504.51L336.68 504.6L337.04 504.74L337.39 504.9L337.71 505.1L338.02 505.33L338.3 505.59L338.55 505.87L338.78 506.17L338.98 506.5L339.14 506.84L339.28 507.2L339.38 507.58L339.44 507.97L339.46 508.36L339.44 508.75L339.38 509.14L339.29 509.51L339.16 509.87L338.99 510.22L338.8 510.54L338.57 510.84L338.32 511.12L338.04 511.37L337.74 511.6L337.42 511.8L337.07 511.96L336.71 512.09L336.34 512.19L335.95 512.24L335.55 512.26L327.73 512.23L327.73 512.25L327.77 519.08L335.58 519.11L335.99 519.13L336.38 519.2L336.76 519.29L337.12 519.43L337.46 519.59L337.79 519.79L338.09 520.02L338.37 520.28L338.63 520.56L338.86 520.86L339.06 521.19L339.22 521.53L339.36 521.89L339.45 522.27L339.52 522.66L339.54 523.05L339.52 523.44L339.46 523.83L339.37 524.2L339.24 524.56L339.07 524.91L338.88 525.23L338.65 525.53L338.4 525.81L338.12 526.06L337.82 526.29L337.5 526.49L337.15 526.65L336.79 526.78L336.42 526.88L336.03 526.93L335.63 526.95L327.81 526.92L327.81 526.94L327.84 533.69L335.72 533.72L336.13 533.75L336.53 533.81L336.91 533.91L337.28 534.04L337.63 534.21L337.96 534.41L338.27 534.65L338.55 534.9L338.81 535.19L339.04 535.5L339.24 535.83L339.41 536.17L339.55 536.54L339.65 536.93L339.71 537.32L339.73 537.72L339.71 538.11L339.66 538.5L339.56 538.88L339.43 539.25L339.26 539.6L339.06 539.93L338.83 540.23L338.58 540.51L338.3 540.77L337.99 541L337.66 541.2L337.31 541.36L336.95 541.5L336.57 541.59L336.17 541.65L335.77 541.67L327.89 541.63L327.89 541.66L327.96 554.87L434.4 555.39L435.04 555.38L435.67 555.34L436.3 555.28L436.92 555.19L437.53 555.08L438.13 554.95L438.72 554.79L439.31 554.61L439.88 554.41L440.44 554.19L441 553.94L441.54 553.68L442.06 553.39L442.58 553.09L443.08 552.76L443.57 552.42L444.04 552.06L444.5 551.68L444.95 551.28L445.38 550.87L445.79 550.44L446.19 549.99L446.57 549.53L446.93 549.06L447.27 548.57L447.6 548.07L447.9 547.55L448.19 547.02L448.45 546.48L448.7 545.93L448.92 545.37L449.12 544.79L449.3 544.21L449.46 543.62L449.59 543.01L449.7 542.4L449.79 541.78L449.85 541.16L449.88 540.52L449.89 539.88L449.89 539.79L449.22 414.77L449.21 414.13L449.17 413.49L449.1 412.86L449.01 412.24L448.89 411.62L448.75 411.02L448.59 410.42L448.41 409.83L448.2 409.26L447.97 408.69L447.72 408.13L447.45 407.59L447.16 407.06L446.85 406.54L446.52 406.04L446.18 405.54L445.81 405.07L445.43 404.6L445.03 404.16L444.61 403.72L444.18 403.31L443.73 402.91L443.27 402.52L442.79 402.16L442.3 401.81L441.79 401.48L441.27 401.18L440.74 400.89L440.2 400.62L439.64 400.37L439.08 400.14L438.5 399.93L437.91 399.75L437.32 399.59L436.71 399.45L436.1 399.33L435.48 399.24L434.84 399.17L434.21 399.13L433.56 399.12L327.12 398.6L327.12 398.63L327.21 415.58ZM184.97 298.01L187.99 298.67L191.05 299.23L194.16 299.67L197.3 300L200.49 300.22L203.68 300.32L206.84 300.3L209.98 300.16L213.08 299.92L214.04 299.8L214.04 299.86L214.04 299.92L214.04 300.22L214.04 300.29L214.04 300.62L214.05 301.05L214.05 302.49L214.05 302.52L214.06 303.05L214.06 303.08L214.06 303.26L214.06 303.29L214.06 303.41L214.06 303.66L214.07 304.56L214.07 304.59L214.07 305.65L214.07 305.91L214.08 306.6L214.08 306.76L214.08 306.79L214.08 307.02L214.08 307.9L214.08 308.04L214.09 308.84L214.09 308.95L214.09 309.06L214.09 309.09L214.09 309.81L214.09 309.83L214.09 309.99L214.09 310.02L214.11 312.61L214.11 312.7L214.11 312.79L214.11 312.86L214.11 313.72L214.12 314.21L214.13 315.82L214.13 315.84L214.13 316.36L214.13 316.46L214.13 316.56L214.13 316.59L214.13 316.94L214.13 316.97L214.13 317.09L214.13 317.17L214.13 317.27L214.13 317.53L214.14 317.64L214.14 317.71L214.14 317.83L214.14 318.01L214.14 318.04L214.14 318.11L214.14 318.22L214.14 318.27L214.14 318.59L214.14 318.64L214.14 318.96L214.14 319.01L214.15 319.53L214.15 319.58L214.15 319.73L214.15 319.76L214.15 319.9L214.15 319.95L214.18 325.28L180.09 296.67L182 297.24L184.97 298.01ZM378.05 269.92L379.41 270.08L380.74 270.31L382.06 270.6L383.34 270.94L384.61 271.35L385.84 271.8L387.04 272.31L388.22 272.87L389.35 273.49L390.46 274.14L391.52 274.85L392.55 275.6L393.54 276.4L394.49 277.24L395.39 278.11L396.25 279.03L397.06 279.98L397.82 280.97L398.53 282L399.19 283.05L399.79 284.14L400.34 285.26L400.84 286.4L401.27 287.57L401.64 288.77L401.95 289.98L402.2 291.22L402.37 292.48L402.49 293.76L402.53 295.04L402.5 296.32L402.4 297.59L402.24 298.85L402 300.09L401.71 301.3L401.35 302.49L400.93 303.66L400.45 304.8L399.91 305.91L399.32 306.99L398.67 308.04L397.97 309.06L397.22 310.04L396.42 310.99L395.57 311.89L394.68 312.76L393.74 313.59L392.76 314.38L391.74 315.12L390.68 315.82L389.58 316.46L388.45 317.06L387.29 317.61L386.09 318.11L384.86 318.56L383.6 318.95L382.32 319.28L381.01 319.55L379.67 319.77L378.32 319.92L376.94 320.01L375.55 320.04L374.15 320L372.78 319.9L371.42 319.73L370.08 319.5L368.77 319.21L367.48 318.87L366.22 318.47L364.99 318.01L363.78 317.5L362.61 316.94L361.47 316.33L360.37 315.67L359.3 314.96L358.27 314.21L357.28 313.42L356.34 312.58L355.44 311.7L354.58 310.78L353.77 309.83L353.01 308.84L352.3 307.82L351.64 306.76L351.03 305.67L350.48 304.56L349.99 303.41L349.56 302.24L349.19 301.05L348.88 299.83L348.63 298.59L348.45 297.33L348.34 296.06L348.3 294.77L348.33 293.5L348.42 292.22L348.59 290.96L348.82 289.73L349.12 288.51L349.48 287.32L349.9 286.16L350.38 285.02L350.92 283.91L351.51 282.82L352.16 281.77L352.86 280.76L353.61 279.78L354.41 278.83L355.25 277.92L356.15 277.05L357.09 276.22L358.07 275.44L359.09 274.69L360.15 274L361.24 273.35L362.37 272.75L363.54 272.2L364.74 271.7L365.97 271.26L367.23 270.87L368.51 270.53L369.82 270.26L371.15 270.04L372.51 269.89L373.88 269.8L375.28 269.77L376.67 269.81L378.05 269.92ZM288.8 281.97L290.17 282.18L291.5 282.45L292.81 282.8L294.08 283.21L295.31 283.7L296.5 284.24L297.64 284.85L298.74 285.51L299.79 286.24L300.79 287.01L301.73 287.84L302.61 288.71L303.43 289.63L304.19 290.6L304.88 291.6L305.5 292.65L306.05 293.73L306.53 294.84L306.92 295.99L307.23 297.16L307.46 298.36L307.61 299.58L307.66 300.81L307.62 302.04L307.49 303.26L307.27 304.46L306.97 305.63L306.59 306.77L306.13 307.88L305.59 308.95L304.98 309.99L304.3 310.99L303.55 311.94L302.74 312.86L301.87 313.72L300.94 314.54L299.95 315.31L298.91 316.02L297.81 316.67L296.67 317.27L295.49 317.8L294.26 318.27L293 318.68L291.7 319.01L290.36 319.27L289 319.46L287.61 319.58L286.19 319.61L284.77 319.56L283.38 319.44L282.01 319.23L280.67 318.96L279.37 318.61L278.1 318.2L276.87 317.71L275.68 317.17L274.53 316.56L273.44 315.9L272.39 315.17L271.39 314.4L270.45 313.57L269.57 312.7L268.74 311.78L267.99 310.81L267.29 309.81L266.67 308.76L266.13 307.68L265.65 306.57L265.26 305.42L264.94 304.25L264.71 303.05L264.57 301.83L264.52 300.6L264.56 299.37L264.69 298.15L264.91 296.95L265.21 295.78L265.59 294.64L266.05 293.53L266.59 292.46L267.2 291.42L267.88 290.42L268.62 289.47L269.44 288.55L270.31 287.69L271.24 286.87L272.23 286.1L273.27 285.39L274.36 284.74L275.5 284.14L276.69 283.61L277.91 283.14L279.18 282.73L280.48 282.4L281.81 282.14L283.18 281.95L284.57 281.83L285.99 281.8L287.41 281.85L288.8 281.97ZM407.14 144.18L404.17 145.05L401.26 146.01L398.4 147.07L395.61 148.22L392.88 149.45L390.21 150.77L389 151.43L388.52 149.17L387.72 146.05L386.78 142.98L385.72 139.96L384.52 136.99L383.21 134.08L381.77 131.22L380.21 128.42L378.53 125.68L378.29 125.31L378.29 124.19L407.71 144.04L407.14 144.18Z" id="a1o6za7QLV"></path><path d="M434.21 399.13L434.84 399.17L435.48 399.24L436.1 399.33L436.71 399.45L437.32 399.59L437.91 399.75L438.5 399.93L439.08 400.14L439.64 400.37L440.2 400.62L440.74 400.89L441.27 401.18L441.79 401.48L442.3 401.81L442.79 402.16L443.27 402.52L443.73 402.91L444.18 403.31L444.61 403.72L445.03 404.16L445.43 404.6L445.81 405.07L446.18 405.54L446.52 406.04L446.85 406.54L447.16 407.06L447.45 407.59L447.72 408.13L447.97 408.69L448.2 409.26L448.41 409.83L448.59 410.42L448.75 411.02L448.89 411.62L449.01 412.24L449.1 412.86L449.17 413.49L449.21 414.13L449.22 414.77L449.89 539.85L449.88 540.49L449.85 541.13L449.79 541.76L449.7 542.37L449.59 542.99L449.46 543.59L449.3 544.18L449.12 544.76L448.92 545.34L448.7 545.9L448.45 546.45L448.19 546.99L447.9 547.52L447.6 548.04L447.27 548.54L446.93 549.03L446.57 549.5L446.19 549.96L445.79 550.41L445.38 550.84L444.95 551.25L444.5 551.65L444.04 552.03L443.57 552.39L443.08 552.73L442.58 553.06L442.06 553.36L441.54 553.65L441 553.91L440.44 554.16L439.88 554.38L439.31 554.58L438.72 554.76L438.13 554.92L437.53 555.05L436.92 555.16L436.3 555.25L435.67 555.31L435.04 555.35L434.4 555.36L327.96 554.84L327.89 541.63L335.77 541.67L336.17 541.65L336.57 541.59L336.95 541.5L337.31 541.36L337.66 541.2L337.99 541L338.3 540.77L338.58 540.51L338.83 540.23L339.06 539.93L339.26 539.6L339.43 539.25L339.56 538.88L339.66 538.5L339.71 538.11L339.73 537.7L339.71 537.29L339.65 536.9L339.55 536.51L339.41 536.15L339.24 535.8L339.04 535.47L338.81 535.16L338.55 534.87L338.27 534.62L337.96 534.39L337.63 534.18L337.28 534.02L336.91 533.88L336.53 533.78L336.13 533.72L335.72 533.7L327.84 533.66L327.81 526.92L335.63 526.95L336.03 526.93L336.42 526.88L336.79 526.78L337.15 526.65L337.5 526.49L337.82 526.29L338.12 526.06L338.4 525.81L338.65 525.53L338.88 525.23L339.07 524.91L339.24 524.56L339.37 524.2L339.46 523.83L339.52 523.44L339.54 523.04L339.52 522.63L339.45 522.24L339.36 521.86L339.22 521.5L339.06 521.16L338.86 520.83L338.63 520.53L338.37 520.25L338.09 519.99L337.79 519.76L337.46 519.57L337.12 519.4L336.76 519.27L336.38 519.17L335.99 519.11L335.58 519.08L327.77 519.05L327.73 512.23L335.55 512.26L335.95 512.24L336.34 512.19L336.71 512.09L337.07 511.96L337.42 511.8L337.74 511.6L338.04 511.37L338.32 511.12L338.57 510.84L338.8 510.54L338.99 510.22L339.16 509.87L339.29 509.51L339.38 509.14L339.44 508.75L339.46 508.35L339.44 507.94L339.38 507.55L339.28 507.17L339.14 506.81L338.98 506.47L338.78 506.14L338.55 505.84L338.3 505.56L338.02 505.3L337.71 505.07L337.39 504.88L337.04 504.71L336.68 504.58L336.3 504.48L335.91 504.42L335.5 504.39L327.69 504.36L327.65 497.54L335.47 497.57L335.87 497.55L336.26 497.5L336.64 497.4L337 497.27L337.34 497.11L337.66 496.91L337.96 496.68L338.24 496.43L338.49 496.15L338.72 495.85L338.92 495.53L339.08 495.18L339.21 494.82L339.31 494.45L339.36 494.06L339.38 493.66L339.36 493.25L339.3 492.86L339.2 492.48L339.07 492.12L338.9 491.78L338.7 491.45L338.47 491.15L338.22 490.87L337.94 490.61L337.63 490.38L337.31 490.19L336.96 490.02L336.6 489.89L336.22 489.79L335.83 489.73L335.43 489.7L327.61 489.67L327.57 482.18L335.39 482.22L335.79 482.2L336.18 482.14L336.55 482.05L336.91 481.92L337.26 481.75L337.58 481.56L337.88 481.33L338.16 481.08L338.41 480.8L338.64 480.5L338.83 480.17L339 479.83L339.13 479.47L339.22 479.09L339.28 478.7L339.3 478.3L339.28 477.9L339.22 477.51L339.12 477.13L338.98 476.77L338.82 476.42L338.62 476.1L338.39 475.79L338.14 475.51L337.85 475.26L337.55 475.03L337.23 474.83L336.88 474.67L336.52 474.53L336.14 474.43L335.75 474.37L335.34 474.35L327.53 474.31L327.49 467.49L335.31 467.53L335.71 467.51L336.1 467.45L336.47 467.36L336.84 467.23L337.18 467.06L337.5 466.87L337.8 466.64L338.08 466.39L338.33 466.11L338.56 465.81L338.76 465.48L338.92 465.14L339.05 464.78L339.15 464.4L339.2 464.01L339.22 463.61L339.2 463.21L339.14 462.82L339.04 462.44L338.91 462.08L338.74 461.73L338.54 461.41L338.31 461.1L338.06 460.82L337.78 460.57L337.47 460.34L337.15 460.14L336.8 459.98L336.44 459.84L336.06 459.74L335.67 459.68L335.27 459.66L327.45 459.62L327.41 452.8L335.23 452.84L335.63 452.82L336.02 452.76L336.4 452.67L336.76 452.54L337.1 452.37L337.42 452.18L337.73 451.95L338 451.7L338.26 451.42L338.48 451.12L338.68 450.79L338.84 450.45L338.97 450.09L339.07 449.71L339.13 449.32L339.14 448.92L339.12 448.52L339.06 448.13L338.96 447.75L338.83 447.39L338.66 447.04L338.46 446.72L338.23 446.41L337.98 446.13L337.7 445.88L337.39 445.65L337.07 445.45L336.72 445.29L336.36 445.15L335.98 445.05L335.59 444.99L335.19 444.97L327.37 444.93L327.33 438.11L335.15 438.15L335.55 438.13L335.94 438.07L336.32 437.98L336.68 437.85L337.02 437.68L337.34 437.49L337.65 437.26L337.93 437.01L338.18 436.73L338.4 436.43L338.6 436.1L338.76 435.76L338.89 435.4L338.99 435.02L339.05 434.63L339.07 434.23L339.04 433.83L338.98 433.44L338.88 433.06L338.75 432.7L338.58 432.35L338.38 432.03L338.16 431.72L337.9 431.44L337.62 431.19L337.32 430.96L336.99 430.76L336.65 430.6L336.28 430.46L335.9 430.36L335.51 430.3L335.11 430.28L327.29 430.24L327.25 423.42L335.07 423.46L335.47 423.44L335.86 423.38L336.24 423.29L336.6 423.16L336.94 422.99L337.27 422.8L337.57 422.57L337.85 422.32L338.1 422.04L338.32 421.74L338.52 421.41L338.68 421.07L338.82 420.71L338.91 420.33L338.97 419.94L338.99 419.54L338.96 419.14L338.9 418.75L338.8 418.37L338.67 418.01L338.5 417.66L338.3 417.34L338.08 417.03L337.82 416.75L337.54 416.5L337.24 416.27L336.91 416.07L336.57 415.91L336.2 415.77L335.83 415.67L335.43 415.61L335.03 415.59L327.21 415.55L327.12 398.6L433.56 399.12L434.21 399.13ZM314.89 415.49L307.07 415.45L306.67 415.47L306.28 415.53L305.9 415.63L305.54 415.76L305.2 415.92L304.88 416.12L304.57 416.34L304.3 416.6L304.04 416.87L303.82 417.18L303.62 417.5L303.46 417.84L303.33 418.2L303.23 418.58L303.17 418.97L303.16 419.37L303.18 419.77L303.24 420.17L303.34 420.54L303.47 420.91L303.64 421.25L303.84 421.58L304.07 421.88L304.32 422.16L304.6 422.42L304.91 422.64L305.23 422.84L305.58 423.01L305.94 423.14L306.32 423.24L306.71 423.3L307.11 423.32L314.93 423.36L314.97 430.18L307.15 430.14L306.75 430.16L306.36 430.22L305.98 430.32L305.62 430.45L305.28 430.61L304.95 430.81L304.65 431.03L304.37 431.29L304.12 431.56L303.9 431.87L303.7 432.19L303.54 432.53L303.41 432.89L303.31 433.27L303.25 433.66L303.23 434.06L303.26 434.46L303.32 434.86L303.42 435.23L303.55 435.6L303.72 435.94L303.92 436.27L304.14 436.57L304.4 436.85L304.68 437.11L304.98 437.33L305.31 437.53L305.65 437.7L306.02 437.83L306.39 437.93L306.79 437.99L307.19 438.01L315.01 438.05L315.04 444.87L307.23 444.83L306.83 444.85L306.44 444.91L306.06 445.01L305.7 445.14L305.36 445.3L305.03 445.5L304.73 445.72L304.45 445.98L304.2 446.25L303.97 446.56L303.78 446.88L303.61 447.22L303.48 447.58L303.39 447.96L303.33 448.35L303.31 448.75L303.33 449.15L303.4 449.55L303.5 449.92L303.63 450.29L303.8 450.63L303.99 450.96L304.22 451.26L304.48 451.54L304.76 451.8L305.06 452.02L305.39 452.22L305.73 452.39L306.09 452.52L306.47 452.62L306.86 452.68L307.27 452.7L315.09 452.74L315.12 459.56L307.3 459.52L306.9 459.54L306.51 459.6L306.14 459.7L305.78 459.83L305.43 459.99L305.11 460.19L304.81 460.41L304.53 460.67L304.28 460.94L304.05 461.25L303.86 461.57L303.69 461.91L303.56 462.27L303.47 462.65L303.41 463.04L303.39 463.44L303.41 463.84L303.47 464.24L303.57 464.61L303.71 464.98L303.87 465.32L304.07 465.65L304.3 465.95L304.56 466.23L304.84 466.49L305.14 466.71L305.47 466.91L305.81 467.08L306.17 467.21L306.55 467.31L306.94 467.37L307.35 467.39L315.17 467.43L315.2 474.25L307.38 474.21L306.98 474.23L306.59 474.29L306.22 474.39L305.86 474.52L305.51 474.68L305.19 474.88L304.89 475.1L304.61 475.36L304.36 475.63L304.13 475.94L303.94 476.26L303.77 476.6L303.64 476.96L303.55 477.34L303.49 477.73L303.47 478.13L303.49 478.53L303.55 478.93L303.65 479.3L303.79 479.67L303.95 480.01L304.15 480.34L304.38 480.64L304.63 480.92L304.91 481.18L305.22 481.4L305.54 481.6L305.89 481.77L306.25 481.9L306.63 482L307.02 482.06L307.43 482.08L315.24 482.12L315.28 489.61L307.47 489.57L307.06 489.59L306.67 489.64L306.3 489.74L305.94 489.87L305.59 490.04L305.27 490.23L304.97 490.46L304.69 490.71L304.44 490.99L304.21 491.29L304.02 491.61L303.85 491.96L303.72 492.32L303.63 492.69L303.57 493.08L303.55 493.48L303.57 493.89L303.64 494.28L303.73 494.66L303.87 495.02L304.03 495.37L304.23 495.69L304.46 495.99L304.72 496.27L305 496.53L305.3 496.76L305.63 496.96L305.97 497.12L306.33 497.26L306.71 497.35L307.1 497.42L307.51 497.44L315.33 497.48L315.36 504.3L307.54 504.26L307.14 504.28L306.75 504.33L306.38 504.43L306.02 504.56L305.67 504.73L305.35 504.92L305.05 505.15L304.77 505.4L304.52 505.68L304.29 505.98L304.1 506.3L303.93 506.65L303.8 507.01L303.71 507.38L303.65 507.77L303.63 508.17L303.65 508.58L303.71 508.97L303.81 509.35L303.95 509.71L304.11 510.06L304.31 510.38L304.54 510.68L304.79 510.96L305.08 511.22L305.38 511.45L305.7 511.65L306.05 511.81L306.41 511.95L306.79 512.04L307.18 512.11L307.59 512.13L315.4 512.17L315.44 518.99L307.62 518.95L307.22 518.97L306.83 519.02L306.46 519.12L306.09 519.25L305.75 519.42L305.43 519.61L305.13 519.84L304.85 520.09L304.6 520.37L304.37 520.67L304.17 520.99L304.01 521.34L303.88 521.7L303.78 522.07L303.73 522.46L303.71 522.86L303.73 523.27L303.79 523.66L303.89 524.04L304.02 524.4L304.19 524.75L304.39 525.07L304.62 525.37L304.87 525.65L305.15 525.91L305.46 526.14L305.78 526.34L306.13 526.5L306.49 526.64L306.87 526.73L307.26 526.8L307.66 526.82L315.48 526.86L315.52 533.6L307.64 533.56L307.23 533.58L306.83 533.64L306.45 533.73L306.09 533.87L305.74 534.03L305.41 534.23L305.11 534.46L304.83 534.72L304.57 535L304.34 535.31L304.14 535.63L303.98 535.98L303.84 536.35L303.75 536.73L303.69 537.12L303.67 537.53L303.69 537.94L303.76 538.33L303.86 538.72L303.99 539.08L304.16 539.43L304.36 539.76L304.59 540.07L304.85 540.36L305.13 540.61L305.44 540.84L305.77 541.05L306.12 541.21L306.49 541.35L306.87 541.45L307.27 541.51L307.68 541.53L315.56 541.57L315.63 554.79L209.19 554.27L208.55 554.26L207.91 554.21L207.28 554.15L206.66 554.06L206.04 553.94L205.44 553.8L204.84 553.64L204.25 553.46L203.68 553.25L203.11 553.02L202.55 552.77L202.01 552.5L201.48 552.21L200.96 551.9L200.45 551.58L199.96 551.23L199.48 550.86L199.02 550.48L198.57 550.08L198.14 549.67L197.72 549.23L197.32 548.79L196.94 548.32L196.58 547.85L196.23 547.35L195.9 546.85L195.59 546.33L195.3 545.8L195.03 545.25L194.78 544.7L194.55 544.13L194.35 543.56L194.16 542.97L194 542.37L193.86 541.77L193.75 541.15L193.65 540.53L193.59 539.9L193.55 539.26L193.53 538.62L192.86 413.53L192.87 412.89L192.91 412.26L192.97 411.63L193.05 411.02L193.16 410.4L193.3 409.8L193.45 409.21L193.63 408.62L193.83 408.05L194.06 407.49L194.3 406.94L194.57 406.4L194.85 405.87L195.16 405.35L195.48 404.85L195.83 404.36L196.19 403.89L196.57 403.43L196.96 402.98L197.38 402.55L197.8 402.14L198.25 401.74L198.71 401.36L199.18 401L199.67 400.66L200.17 400.33L200.69 400.03L201.22 399.74L201.76 399.48L202.31 399.23L202.87 399.01L203.45 398.81L204.03 398.63L204.62 398.47L205.23 398.33L205.84 398.22L206.46 398.14L207.08 398.08L207.72 398.04L208.36 398.03L314.8 398.55L314.89 415.49ZM307.58 84.94L311.2 85.29L314.78 85.76L318.31 86.36L321.79 87.08L325.23 87.92L328.6 88.87L331.92 89.94L335.18 91.12L338.38 92.41L341.51 93.81L344.57 95.3L347.56 96.9L350.48 98.6L353.31 100.39L356.07 102.28L358.74 104.26L361.32 106.32L363.82 108.47L366.22 110.7L368.53 113.01L370.74 115.4L372.85 117.87L374.85 120.4L376.75 123.01L378.53 125.68L380.21 128.42L381.77 131.22L383.21 134.08L384.52 136.99L385.72 139.96L386.78 142.98L387.72 146.05L388.52 149.17L389 151.43L390.21 150.77L392.88 149.45L395.61 148.22L398.4 147.07L401.26 146.01L404.17 145.05L407.14 144.18L410.16 143.4L413.24 142.73L416.35 142.15L419.52 141.68L422.73 141.31L425.97 141.05L429.25 140.9L432.57 140.86L435.89 140.93L439.17 141.11L442.42 141.41L445.63 141.81L448.8 142.31L451.93 142.91L455.01 143.62L458.04 144.42L461.02 145.32L463.94 146.32L466.81 147.4L469.61 148.57L472.36 149.83L475.04 151.18L477.65 152.61L480.2 154.11L482.67 155.7L485.06 157.36L487.38 159.1L489.62 160.91L491.78 162.78L493.84 164.73L495.83 166.74L497.72 168.81L499.51 170.94L501.21 173.13L502.82 175.38L504.32 177.68L505.71 180.03L507 182.44L508.19 184.89L509.25 187.38L510.21 189.92L511.05 192.5L511.77 195.12L512.36 197.78L512.84 200.47L513.18 203.19L513.4 205.94L513.48 208.72L513.43 211.5L513.24 214.25L512.92 216.97L512.48 219.65L511.91 222.3L511.22 224.91L510.41 227.49L509.48 230.02L508.44 232.5L507.28 234.94L506.02 237.33L504.65 239.67L503.17 241.96L501.59 244.19L499.91 246.37L498.14 248.48L496.27 250.54L494.31 252.53L492.26 254.45L490.13 256.31L487.91 258.09L485.61 259.81L483.23 261.45L480.78 263.01L478.25 264.49L475.65 265.89L472.99 267.21L470.25 268.45L467.46 269.59L464.6 270.65L461.69 271.61L458.72 272.48L455.7 273.26L452.63 273.93L449.51 274.51L446.34 274.98L443.14 275.35L439.89 275.61L436.61 275.76L433.29 275.8L430.83 275.75L431.29 361.87L431.27 362.72L431.23 363.57L431.14 364.41L431.03 365.24L430.88 366.05L430.71 366.86L430.5 367.65L430.26 368.43L429.99 369.2L429.69 369.95L429.36 370.69L429.01 371.41L428.62 372.12L428.22 372.81L427.78 373.48L427.32 374.13L426.84 374.77L426.33 375.38L425.8 375.98L425.25 376.55L424.68 377.1L424.08 377.63L423.47 378.14L422.83 378.62L422.18 379.08L421.51 379.52L420.82 379.92L420.11 380.31L419.39 380.66L418.65 380.99L417.9 381.29L417.14 381.56L416.36 381.8L415.56 382.01L414.76 382.19L413.94 382.33L413.11 382.45L412.28 382.53L411.43 382.58L410.57 382.59L235.3 381.75L234.44 381.73L233.59 381.67L232.75 381.58L231.91 381.46L231.09 381.31L230.28 381.12L229.49 380.9L228.7 380.66L227.93 380.38L227.17 380.08L226.43 379.74L225.7 379.38L224.99 379L224.3 378.58L223.62 378.14L222.97 377.68L222.33 377.19L221.71 376.68L221.11 376.15L220.53 375.59L219.97 375.01L219.44 374.41L218.93 373.79L218.44 373.16L217.98 372.5L217.54 371.82L217.12 371.13L216.73 370.42L216.37 369.69L216.04 368.95L215.74 368.19L215.46 367.42L215.21 366.64L215 365.84L214.81 365.03L214.66 364.21L214.53 363.38L214.44 362.54L214.39 361.68L214.37 360.82L214.04 299.77L213.08 299.89L209.98 300.14L206.84 300.27L203.68 300.29L200.49 300.19L197.3 299.97L194.16 299.64L191.05 299.2L187.99 298.64L184.97 297.98L182 297.21L179.08 296.34L176.22 295.37L173.41 294.31L170.65 293.14L167.96 291.88L165.33 290.53L162.76 289.1L160.26 287.57L157.83 285.97L155.47 284.28L153.19 282.51L150.98 280.67L148.85 278.75L146.8 276.76L144.84 274.71L142.96 272.58L141.17 270.39L139.47 268.14L137.87 265.83L136.36 263.46L134.95 261.04L133.64 258.56L132.43 256.04L131.33 253.47L130.33 250.85L129.44 248.19L128.67 245.49L128.01 242.75L127.47 239.97L127.05 237.17L126.75 234.33L126.57 231.46L126.52 228.57L126.6 225.65L126.81 222.75L127.15 219.87L127.6 217.04L128.18 214.24L128.88 211.49L129.69 208.78L130.62 206.12L131.66 203.51L132.8 200.95L134.05 198.44L135.4 195.99L136.85 193.6L138.4 191.27L140.05 189L141.78 186.79L143.61 184.65L145.52 182.58L147.52 180.57L149.6 178.64L151.75 176.79L153.99 175.01L156.3 173.32L158.68 171.7L161.12 170.17L163.64 168.72L166.21 167.36L168.85 166.09L171.55 164.92L174.3 163.84L177.1 162.85L179.96 161.96L182.86 161.18L185.81 160.49L188.8 159.92L191.83 159.45L194.9 159.09L198 158.84L201.14 158.7L204.3 158.68L207.49 158.78L210.68 159L211.05 159.04L211.12 157.9L211.47 154.67L211.96 151.47L212.59 148.32L213.36 145.21L214.27 142.15L215.3 139.14L216.46 136.18L217.75 133.28L219.16 130.44L220.69 127.65L222.33 124.93L224.09 122.28L225.96 119.69L227.93 117.17L230.02 114.73L232.2 112.36L234.48 110.07L236.86 107.86L239.33 105.73L241.9 103.69L244.55 101.74L247.28 99.88L250.1 98.12L253 96.45L255.97 94.88L259.01 93.41L262.13 92.04L265.31 90.79L268.56 89.64L271.87 88.6L275.24 87.68L278.66 86.87L282.14 86.19L285.66 85.62L289.24 85.19L292.86 84.87L296.52 84.69L300.21 84.64L303.91 84.73L307.58 84.94ZM372.51 269.86L371.15 270.02L369.82 270.23L368.51 270.51L367.23 270.84L365.97 271.23L364.74 271.67L363.54 272.17L362.37 272.72L361.24 273.32L360.15 273.97L359.09 274.67L358.07 275.41L357.09 276.19L356.15 277.02L355.25 277.89L354.41 278.8L353.61 279.75L352.86 280.73L352.16 281.75L351.51 282.8L350.92 283.88L350.38 284.99L349.9 286.13L349.48 287.29L349.12 288.48L348.82 289.7L348.59 290.94L348.42 292.19L348.33 293.47L348.3 294.76L348.34 296.06L348.45 297.33L348.63 298.59L348.88 299.83L349.19 301.05L349.56 302.24L349.99 303.41L350.48 304.56L351.03 305.67L351.64 306.76L352.3 307.82L353.01 308.84L353.77 309.83L354.58 310.78L355.44 311.7L356.34 312.58L357.28 313.42L358.27 314.21L359.3 314.96L360.37 315.67L361.47 316.33L362.61 316.94L363.78 317.5L364.99 318.01L366.22 318.47L367.48 318.87L368.77 319.21L370.08 319.5L371.42 319.73L372.78 319.9L374.15 320L375.55 320.04L376.94 320.01L378.32 319.92L379.67 319.77L381.01 319.55L382.32 319.28L383.6 318.95L384.86 318.56L386.09 318.11L387.29 317.61L388.45 317.06L389.58 316.46L390.68 315.82L391.74 315.12L392.76 314.38L393.74 313.59L394.68 312.76L395.57 311.89L396.42 310.99L397.22 310.04L397.97 309.06L398.67 308.04L399.32 306.99L399.91 305.91L400.45 304.8L400.93 303.66L401.35 302.49L401.71 301.3L402 300.09L402.24 298.85L402.4 297.59L402.5 296.32L402.53 295.02L402.49 293.73L402.37 292.45L402.2 291.19L401.95 289.96L401.64 288.74L401.27 287.54L400.84 286.37L400.34 285.23L399.79 284.11L399.19 283.02L398.53 281.97L397.82 280.95L397.06 279.96L396.25 279L395.39 278.08L394.49 277.21L393.54 276.37L392.55 275.57L391.52 274.82L390.46 274.12L389.35 273.46L388.22 272.84L387.04 272.28L385.84 271.77L384.61 271.32L383.34 270.92L382.06 270.57L380.74 270.28L379.41 270.06L378.05 269.89L376.67 269.78L375.28 269.75L373.88 269.77L372.51 269.86ZM283.18 281.92L281.81 282.11L280.48 282.37L279.18 282.7L277.91 283.11L276.69 283.58L275.5 284.11L274.36 284.71L273.27 285.36L272.23 286.07L271.24 286.84L270.31 287.66L269.44 288.52L268.62 289.44L267.88 290.39L267.2 291.39L266.59 292.43L266.05 293.51L265.59 294.61L265.21 295.76L264.91 296.93L264.69 298.12L264.56 299.34L264.52 300.59L264.57 301.83L264.71 303.05L264.94 304.25L265.26 305.42L265.65 306.57L266.13 307.68L266.67 308.76L267.29 309.81L267.99 310.81L268.74 311.78L269.57 312.7L270.45 313.57L271.39 314.4L272.39 315.17L273.44 315.9L274.53 316.56L275.68 317.17L276.87 317.71L278.1 318.2L279.37 318.61L280.67 318.96L282.01 319.23L283.38 319.44L284.77 319.56L286.19 319.61L287.61 319.58L289 319.46L290.36 319.27L291.7 319.01L293 318.68L294.26 318.27L295.49 317.8L296.67 317.27L297.81 316.67L298.91 316.02L299.95 315.31L300.94 314.54L301.87 313.72L302.74 312.86L303.55 311.94L304.3 310.99L304.98 309.99L305.59 308.95L306.13 307.88L306.59 306.77L306.97 305.63L307.27 304.46L307.49 303.26L307.62 302.04L307.66 300.79L307.61 299.55L307.46 298.33L307.23 297.13L306.92 295.96L306.53 294.81L306.05 293.7L305.5 292.62L304.88 291.57L304.19 290.57L303.43 289.6L302.61 288.68L301.73 287.81L300.79 286.98L299.79 286.21L298.74 285.48L297.64 284.82L296.5 284.21L295.31 283.67L294.08 283.19L292.81 282.77L291.5 282.42L290.17 282.15L288.8 281.94L287.41 281.82L285.99 281.77L284.57 281.8L283.18 281.92Z" id="b5YbLbOjBt"></path></defs><g><g><g><use xlink:href="#b4dHd0ofzS" opacity="1" fill="#660033" fill-opacity="1"></use></g><g><g><use xlink:href="#a1plCTLB4x" opacity="1" fill-opacity="0" stroke="#000000" stroke-width="1" stroke-opacity="1"></use></g></g><g><use xlink:href="#a1o6za7QLV" opacity="1" fill="#3b001d" fill-opacity="1"></use></g><g><use xlink:href="#b5YbLbOjBt" opacity="1" fill="#ffffff" fill-opacity="1"></use></g></g></g></svg>