<?xml version="1.0" encoding="iso-8859-1"?>
<!-- Generator: Adobe Illustrator 19.0.0, SVG Export Plug-In . SVG Version: 6.00 Build 0)  -->
<svg version="1.1" id="Capa_1" xmlns="http://www.w3.org/2000/svg" xmlns:xlink="http://www.w3.org/1999/xlink" x="0px" y="0px"
	 viewBox="0 0 512 512" style="enable-background:new 0 0 512 512;" xml:space="preserve">
<path style="fill:#FFE477;" d="M512,378.079H0v-370h512V378.079z"/>
<rect x="256" y="8.08" style="fill:#FFA733;" width="256" height="370"/>
<path style="fill:#FF9A00;" d="M406,323.079H106v-15c0-13.785-11.215-25-25-25H66v-170h15c13.785,0,25-11.215,25-25v-15h300v15
	c0,13.785,11.215,25,25,25h15v170h-15c-13.785,0-25,11.215-25,25V323.079z M133.921,293.079h244.157
	c5.191-18.291,19.63-32.73,37.921-37.921V141c-18.291-5.19-32.73-19.63-37.921-37.921H133.921C128.73,121.37,114.291,135.809,96,141
	v114.158C114.291,260.348,128.73,274.788,133.921,293.079z"/>
<g>
	<path style="fill:#FFF5CC;" d="M295.58,178.387c-21.824-21.074-57.336-21.074-79.16,0l-20.84-21.58
		c33.316-32.172,87.523-32.172,120.84,0L295.58,178.387z"/>
	<rect x="128" y="203.08" style="fill:#FFF5CC;" width="107" height="30"/>
</g>
<path style="fill:#E67500;" d="M406,88.079v-15H256v30h122.079C383.27,121.37,397.709,135.809,416,141v114.158
	c-18.291,5.19-32.73,19.63-37.921,37.921H256v30h150v-15c0-13.785,11.215-25,25-25h15v-170h-15
	C417.215,113.079,406,101.864,406,88.079z"/>
<path style="fill:#FFDAAA;" d="M295.58,178.387l20.84-21.58c-16.658-16.086-38.539-24.129-60.42-24.129v29.903
	C270.334,162.582,284.668,167.85,295.58,178.387z"/>
<path style="fill:#B87FD9;" d="M212.868,503.921l-25.254-45.456l-45.457-25.254L251.678,323.69l70.711,70.71L212.868,503.921z"/>
<path style="fill:#8034AD;" d="M423.132,503.921l-109.521-109.52l70.711-70.71l109.521,109.521l-45.457,25.254L423.132,503.921z"/>
<path style="fill:#E3CEF0;" d="M318,403.079c-52.383,0-95-42.617-95-95s42.617-95,95-95s95,42.617,95,95
	S370.383,403.079,318,403.079z"/>
<path style="fill:#D5B4E8;" d="M318,213.079v190c52.383,0,95-42.617,95-95S370.383,213.079,318,213.079z"/>
<path style="fill:#B87FD9;" d="M318,353.079c-24.813,0-45-20.187-45-45s20.187-45,45-45s45,20.187,45,45
	S342.813,353.079,318,353.079z M318,293.079c-8.271,0-15,6.729-15,15s6.729,15,15,15s15-6.729,15-15S326.271,293.079,318,293.079z"
	/>
<path style="fill:#8034AD;" d="M333,308.079c0,8.271-6.729,15-15,15v30c24.813,0,45-20.187,45-45s-20.187-45-45-45v30
	C326.271,293.079,333,299.807,333,308.079z"/>
<g>
</g>
<g>
</g>
<g>
</g>
<g>
</g>
<g>
</g>
<g>
</g>
<g>
</g>
<g>
</g>
<g>
</g>
<g>
</g>
<g>
</g>
<g>
</g>
<g>
</g>
<g>
</g>
<g>
</g>
</svg>
