<?xml version="1.0" encoding="iso-8859-1"?>
<!-- Generator: Adobe Illustrator 21.0.0, SVG Export Plug-In . SVG Version: 6.00 Build 0)  -->
<svg xmlns="http://www.w3.org/2000/svg" xmlns:xlink="http://www.w3.org/1999/xlink" version="1.1" id="Capa_1" x="0px" y="0px" viewBox="0 0 55.226 55.226" style="enable-background:new 0 0 55.226 55.226;" xml:space="preserve" width="512" height="512">
<g>
	<g>
		<path style="fill:#FFBF41;" d="M13.162,43.438L0.546,30.083c-0.737-0.781-0.726-2.005,0.025-2.772L26.184,1.143    c0.773-0.789,2.039-0.803,2.828-0.031c0.01,0.01,0.021,0.02,0.031,0.031l14.8,15.125c0.767,0.784,0.76,2.04-0.017,2.815l-9.6,9.6"/>
	</g>
	<g>
		<path style="fill:#87D0F0;" d="M15.226,28.683h38c1.105,0,2,0.895,2,2v22c0,1.105-0.895,2-2,2h-38c-1.105,0-2-0.895-2-2v-22    C13.226,29.579,14.121,28.683,15.226,28.683z"/>
	</g>
	<g>
		<rect x="17.226" y="42.683" style="fill:#1E5D89;" width="7" height="2"/>
	</g>
	<g>
		<rect x="26.226" y="42.683" style="fill:#1E5D89;" width="7" height="2"/>
	</g>
	<g>
		<rect x="35.226" y="42.683" style="fill:#1E5D89;" width="7" height="2"/>
	</g>
	<g>
		<rect x="44.226" y="42.683" style="fill:#1E5D89;" width="7" height="2"/>
	</g>
	<g>
		<path style="fill:#FFBF41;" d="M44.251,33.708c1.367-1.367,3.583-1.367,4.95,0c1.367,1.367,1.367,3.583,0,4.95    c-1.367,1.367-3.583,1.367-4.949,0"/>
	</g>
	<g>
		<rect x="13.226" y="49.683" style="fill:#1E5D89;" width="42" height="2"/>
	</g>
	<g>
		<polygon style="fill:#E3482C;" points="6.026,35.883 34.346,6.563 30.884,3.025 2.14,31.769   "/>
	</g>
	<g>
		<rect x="17.226" y="31.683" style="fill:#D1E3EF;" width="2" height="2"/>
	</g>
	<g>
		<rect x="17.226" y="34.683" style="fill:#D1E3EF;" width="2.031" height="2"/>
	</g>
	<g>
		<rect x="20.226" y="31.683" style="fill:#D1E3EF;" width="2" height="5"/>
	</g>
	<g>
		<rect x="23.226" y="31.683" style="fill:#D1E3EF;" width="2" height="2"/>
	</g>
	<g>
		<rect x="23.226" y="34.683" style="fill:#D1E3EF;" width="2" height="2"/>
	</g>
	<g>
		
			<rect x="30.397" y="20.683" transform="matrix(0.7071 -0.7071 0.7071 0.7071 -5.6005 29.8449)" style="fill:#1E5D89;" width="5.657" height="2"/>
	</g>
	<g>
		
			<rect x="35.811" y="16.683" transform="matrix(0.7071 -0.7071 0.7071 0.7071 -1.601 31.5016)" style="fill:#1E5D89;" width="2.828" height="2"/>
	</g>
	<g>
		<circle style="fill:#E3482C;" cx="41.726" cy="36.183" r="3.5"/>
	</g>
</g>















</svg>
