<svg height="512pt" viewBox="0 0 512 512" width="512pt" xmlns="http://www.w3.org/2000/svg"><path d="m512 317.378906v-122.757812l-47.230469-7.230469c-3.441406-10.449219-7.667969-20.652344-12.648437-30.480469l28.300781-38.53125-86.800781-86.800781-38.53125 28.300781c-9.828125-4.980468-20.03125-9.207031-30.480469-12.648437l-7.230469-47.230469h-122.757812l-7.230469 47.230469c-10.449219 3.441406-20.652344 7.667969-30.480469 12.648437l-38.53125-28.300781-86.800781 86.800781 28.300781 38.53125c-4.980468 9.828125-9.207031 20.03125-12.648437 30.480469l-47.230469 7.230469v122.757812l47.230469 7.230469c3.441406 10.449219 7.667969 20.652344 12.648437 30.480469l-28.300781 38.53125 86.800781 86.800781 38.53125-28.300781c9.828125 4.980468 20.03125 9.207031 30.480469 12.648437l7.230469 47.230469h122.757812l7.230469-47.230469c10.449219-3.441406 20.652344-7.667969 30.480469-12.648437l38.53125 28.300781 86.800781-86.800781-28.300781-38.53125c4.980468-9.828125 9.207031-20.03125 12.648437-30.480469zm-256 12.152344c-40.609375 0-73.53125-32.921875-73.53125-73.53125s32.921875-73.53125 73.53125-73.53125 73.53125 32.921875 73.53125 73.53125-32.921875 73.53125-73.53125 73.53125zm0 0" fill="#08f"/><path d="m464.769531 324.609375c-3.441406 10.449219-7.667969 20.652344-12.648437 30.480469l28.300781 38.53125-86.800781 86.800781-38.53125-28.300781c-9.828125 4.980468-20.03125 9.207031-30.480469 12.648437l-7.230469 47.230469h-61.378906v-182.46875c40.609375 0 73.53125-32.921875 73.53125-73.53125s-32.921875-73.53125-73.53125-73.53125v-182.46875h61.378906l7.230469 47.230469c10.449219 3.441406 20.652344 7.667969 30.480469 12.648437l38.53125-28.300781 86.800781 86.800781-28.300781 38.53125c4.980468 9.828125 9.207031 20.03125 12.648437 30.480469l47.230469 7.230469v122.757812zm0 0" fill="#006ef4"/><path d="m256 107.140625c-82.078125 0-148.859375 66.78125-148.859375 148.859375s66.78125 148.859375 148.859375 148.859375 148.859375-66.78125 148.859375-148.859375-66.78125-148.859375-148.859375-148.859375zm0 222.390625c-40.609375 0-73.53125-32.921875-73.53125-73.53125s32.921875-73.53125 73.53125-73.53125 73.53125 32.921875 73.53125 73.53125-32.921875 73.53125-73.53125 73.53125zm0 0" fill="#005ed2"/><path d="m404.859375 256c0 82.078125-66.78125 148.859375-148.859375 148.859375v-75.328125c40.609375 0 73.53125-32.921875 73.53125-73.53125s-32.921875-73.53125-73.53125-73.53125v-75.328125c82.078125 0 148.859375 66.78125 148.859375 148.859375zm0 0" fill="#004eb1"/></svg>