<svg height="512pt" viewBox="-60 0 512 512.00002" width="512pt" xmlns="http://www.w3.org/2000/svg"><path d="m392.339844 55.898438v456.101562h-336.449219c-30.820313 0-55.890625-25.078125-55.890625-55.898438v-400.203124zm0 0" fill="#08f"/><path d="m196.171875 55.898438h196.167969v456.101562h-196.167969zm0 0" fill="#006ef4"/><path d="m392.339844 15v81.800781h-336.449219c-11.289063 0-21.511719-4.582031-28.910156-11.980469-7.402344-7.398437-11.980469-17.621093-11.980469-28.921874 0-22.589844 18.308594-40.898438 40.890625-40.898438zm0 0" fill="#e0e0e2"/><path d="m73.011719 105.800781h30v406.199219h-30zm0 0" fill="#e0e0e2"/><path d="m217.503906 109v148.214844l64.332032-26.953125 64.335937 26.953125v-148.214844zm0 0" fill="#c1001b"/><path d="m184.339844 357.519531h129v30h-129zm0 0" fill="#e0e0e2"/><path d="m184.339844 420.859375h129v30h-129zm0 0" fill="#e0e0e2"/><path d="m30 55.898438c0 14.28125 11.609375 25.902343 25.890625 25.902343h336.449219v30h-336.449219c-30.820313 0-55.890625-25.082031-55.890625-55.902343 0-30.820313 25.070312-55.898438 55.890625-55.898438h336.449219v30h-336.449219c-14.28125 0-25.890625 11.621094-25.890625 25.898438zm0 0" fill="#005ed2"/><g fill="#d8d8da"><path d="m196.171875 15h196.167969v81.800781h-196.167969zm0 0"/><path d="m196.171875 357.519531h117.167969v30h-117.167969zm0 0"/><path d="m196.171875 420.859375h117.167969v30h-117.167969zm0 0"/></g><path d="m196.171875 0h196.167969v30h-196.167969zm0 0" fill="#004eb1"/><path d="m196.171875 81.800781h196.167969v30h-196.167969zm0 0" fill="#004eb1"/></svg>