<svg height="512pt" viewBox="0 0 512 512" width="512pt" xmlns="http://www.w3.org/2000/svg"><path d="m256 0-128 256 128 256c141.386719 0 256-114.613281 256-256s-114.613281-256-256-256zm0 0" fill="#ea552d"/><path d="m0 256c0 141.386719 114.613281 256 256 256v-512c-141.386719 0-256 114.613281-256 256zm0 0" fill="#f76937"/><path d="m436.617188 261.851562c0-24.855468-20.144532-45-45-45-9.914063 0-19.074219 3.214844-26.511719 8.644532-24.867188-18.207032-57.570313-30.25-93.867188-32.90625l9.007813-50.738282h39.15625c5.191406 8.964844 14.875 15 25.980468 15 16.566407 0 30-13.429687 30-30 0-16.570312-13.433593-30-30-30-11.105468 0-20.789062 6.035157-25.980468 15h-63.402344l-20 180 20 65.179688c16.214844-.011719 32.261719-3.5625 45.195312-10.003906l13.371094 26.855468c-17.253906 8.59375-37.503906 13.136719-58.566406 13.148438l-30 22.5 30 22.5c86.984375 0 157.5-53.722656 157.5-120 0-3.542969-.214844-7.050781-.609375-10.519531 14.125-7.589844 23.726563-22.503907 23.726563-39.660157zm-121.234376 60c-16.570312 0-30-13.429687-30-30 0-16.570312 13.429688-30 30-30 16.566407 0 30 13.429688 30 30 0 16.570313-13.433593 30-30 30zm0 0" fill="#ffd7cf"/><path d="m255.921875 387.03125c-21.628906 0-42.34375-4.773438-59.902344-13.804688l13.722657-26.675781c13.144531 6.757813 29.542968 10.480469 46.179687 10.480469h.078125v-245.179688l-15.488281 80.757813c-36.199219 2.691406-68.804688 14.722656-93.617188 32.886719-7.4375-5.429688-16.597656-8.644532-26.511719-8.644532-24.855468 0-45 20.148438-45 45 0 17.160157 9.601563 32.070313 23.726563 39.660157-.394531 3.46875-.609375 6.976562-.609375 10.523437 0 66.273438 70.515625 120 157.5 120v-45.003906c-.027344 0-.050781 0-.078125 0zm-90.539063-95.179688c0-16.570312 13.429688-30 30-30 16.566407 0 30 13.429688 30 30 0 16.570313-13.433593 30-30 30-16.570312 0-30-13.429687-30-30zm0 0" fill="#fff"/></svg>