<?xml version="1.0" encoding="UTF-8" standalone="no"?>
<!DOCTYPE svg PUBLIC "-//W3C//DTD SVG 1.1//EN" "http://www.w3.org/Graphics/SVG/1.1/DTD/svg11.dtd">
<svg version="1.1" xmlns="http://www.w3.org/2000/svg" xmlns:xlink="http://www.w3.org/1999/xlink" preserveAspectRatio="xMidYMid meet" viewBox="0 0 640 640" width="640" height="640"><defs><path d="M346.23 1.06L359.13 2.37L371.88 4.19L384.46 6.51L396.86 9.31L409.08 12.58L421.1 16.33L432.91 20.52L444.51 25.16L455.88 30.24L467.01 35.74L477.89 41.65L488.51 47.97L498.86 54.68L508.94 61.78L518.72 69.24L528.2 77.07L537.38 85.25L546.23 93.77L554.75 102.62L562.93 111.8L570.76 121.28L578.22 131.06L585.32 141.14L592.03 151.49L598.35 162.11L604.26 172.99L609.76 184.12L614.84 195.49L619.48 207.09L623.67 218.9L627.42 230.92L630.69 243.14L633.49 255.54L635.81 268.12L637.63 280.87L638.94 293.77L639.73 306.82L640 320L639.73 333.18L638.94 346.23L637.63 359.13L635.81 371.88L633.49 384.46L630.69 396.86L627.42 409.08L623.67 421.1L619.48 432.91L614.84 444.51L609.76 455.88L604.26 467.01L598.35 477.89L592.03 488.51L585.32 498.86L578.22 508.94L570.76 518.72L562.93 528.2L554.75 537.38L546.23 546.23L537.38 554.75L528.2 562.93L518.72 570.76L508.94 578.22L498.86 585.32L488.51 592.03L477.89 598.35L467.01 604.26L465.2 605.15L465.26 460.33L465.25 459.57L465.2 458.81L465.12 458.07L465.02 457.33L464.89 456.61L464.73 455.89L464.54 455.19L464.32 454.5L464.08 453.81L463.81 453.15L463.52 452.49L463.2 451.85L462.86 451.22L462.5 450.61L462.11 450.01L461.7 449.43L461.27 448.87L460.82 448.32L460.35 447.79L459.86 447.28L459.35 446.79L458.82 446.32L458.28 445.87L457.71 445.44L457.13 445.03L456.53 444.64L455.92 444.28L455.29 443.94L454.65 443.62L454 443.33L453.33 443.06L452.65 442.82L451.95 442.61L451.25 442.42L450.54 442.26L449.81 442.12L449.07 442.02L448.33 441.94L447.58 441.9L446.82 441.88L326.89 441.94L326.88 463.42L335.27 463.41L335.71 463.43L336.15 463.49L336.58 463.59L336.99 463.72L337.38 463.89L337.76 464.08L338.11 464.31L338.45 464.57L338.76 464.86L339.04 465.17L339.3 465.5L339.53 465.86L339.73 466.23L339.9 466.63L340.03 467.04L340.13 467.46L340.19 467.9L340.21 468.35L340.21 468.44L340.18 468.89L340.13 469.33L340.03 469.75L339.9 470.16L339.73 470.56L339.53 470.93L339.3 471.29L339.04 471.62L338.76 471.94L338.45 472.22L338.11 472.48L337.76 472.71L337.38 472.91L336.99 473.07L336.57 473.21L336.15 473.3L335.71 473.36L335.26 473.38L326.87 473.39L326.87 482.03L335.26 482.03L335.71 482.05L336.15 482.11L336.57 482.2L336.98 482.34L337.38 482.5L337.75 482.7L338.11 482.93L338.44 483.19L338.75 483.47L339.04 483.78L339.29 484.12L339.52 484.47L339.72 484.85L339.89 485.24L340.02 485.65L340.12 486.08L340.18 486.52L340.2 486.97L340.2 487.06L340.18 487.51L340.12 487.95L340.02 488.37L339.89 488.78L339.72 489.18L339.52 489.55L339.29 489.91L339.03 490.24L338.75 490.55L338.44 490.84L338.1 491.1L337.75 491.33L337.37 491.52L336.98 491.69L336.57 491.82L336.14 491.92L335.7 491.98L335.25 492L326.87 492.01L326.86 500.65L335.25 500.64L335.7 500.66L336.14 500.72L336.56 500.82L336.97 500.95L337.37 501.12L337.74 501.32L338.1 501.55L338.43 501.81L338.74 502.09L339.03 502.4L339.29 502.73L339.51 503.09L339.71 503.47L339.88 503.86L340.01 504.27L340.11 504.7L340.17 505.13L340.19 505.58L340.19 505.67L340.17 506.12L340.11 506.56L340.01 506.99L339.88 507.4L339.71 507.79L339.51 508.17L339.28 508.52L339.03 508.86L338.74 509.17L338.43 509.45L338.1 509.71L337.74 509.94L337.36 510.14L336.97 510.31L336.56 510.44L336.13 510.54L335.69 510.6L335.24 510.62L326.86 510.62L326.85 519.27L335.24 519.26L335.69 519.28L336.13 519.34L336.55 519.44L336.96 519.57L337.36 519.74L337.73 519.93L338.09 520.16L338.42 520.42L338.73 520.71L339.02 521.02L339.28 521.35L339.51 521.71L339.71 522.08L339.87 522.48L340 522.89L340.1 523.31L340.16 523.75L340.18 524.2L340.18 524.29L340.16 524.74L340.1 525.18L340 525.6L339.87 526.01L339.7 526.41L339.5 526.78L339.28 527.14L339.02 527.47L338.73 527.79L338.42 528.07L338.09 528.33L337.73 528.56L337.36 528.76L336.96 528.92L336.55 529.06L336.12 529.15L335.69 529.21L335.24 529.23L326.85 529.24L326.85 537.88L335.23 537.88L335.68 537.9L336.12 537.96L336.55 538.05L336.96 538.19L337.35 538.35L337.73 538.55L338.08 538.78L338.42 539.04L338.73 539.32L339.01 539.63L339.27 539.97L339.5 540.32L339.7 540.7L339.86 541.09L340 541.5L340.09 541.93L340.15 542.37L340.17 542.82L340.17 542.91L340.15 543.36L340.09 543.79L340 544.22L339.86 544.63L339.7 545.03L339.5 545.4L339.27 545.76L339.01 546.09L338.72 546.4L338.41 546.69L338.08 546.95L337.72 547.18L337.35 547.37L336.95 547.54L336.54 547.67L336.12 547.77L335.68 547.83L335.23 547.85L326.84 547.85L326.84 557.34L335.22 557.34L335.67 557.36L336.11 557.41L336.54 557.51L336.95 557.64L337.34 557.81L337.72 558.01L338.07 558.24L338.41 558.5L338.72 558.78L339 559.09L339.26 559.43L339.49 559.78L339.69 560.16L339.86 560.55L339.99 560.96L340.08 561.39L340.14 561.83L340.16 562.28L340.16 562.36L340.14 562.81L340.08 563.25L339.99 563.68L339.85 564.09L339.69 564.48L339.49 564.86L339.26 565.22L339 565.55L338.71 565.86L338.4 566.14L338.07 566.4L337.71 566.63L337.34 566.83L336.94 567L336.53 567.13L336.11 567.23L335.67 567.29L335.22 567.31L326.83 567.31L326.83 575.96L335.22 575.95L335.67 575.97L336.1 576.03L336.53 576.13L336.94 576.26L337.33 576.43L337.71 576.63L338.06 576.86L338.4 577.11L338.71 577.4L338.99 577.71L339.25 578.04L339.48 578.4L339.68 578.77L339.85 579.17L339.98 579.58L340.08 580L340.14 580.44L340.16 580.89L340.16 580.98L340.13 581.43L340.08 581.87L339.98 582.29L339.85 582.71L339.68 583.1L339.48 583.48L339.25 583.83L338.99 584.17L338.71 584.48L338.4 584.76L338.06 585.02L337.71 585.25L337.33 585.45L336.94 585.62L336.53 585.75L336.1 585.85L335.66 585.9L335.21 585.93L326.82 585.93L326.82 594.57L335.21 594.57L335.66 594.59L336.1 594.65L336.52 594.74L336.93 594.88L337.33 595.04L337.7 595.24L338.06 595.47L338.39 595.73L338.7 596.01L338.99 596.33L339.24 596.66L339.47 597.01L339.67 597.39L339.84 597.78L339.97 598.2L340.07 598.62L340.13 599.06L340.15 599.51L340.15 599.6L340.13 600.05L340.07 600.49L339.97 600.91L339.84 601.32L339.67 601.72L339.47 602.09L339.24 602.45L338.98 602.78L338.7 603.09L338.39 603.38L338.05 603.64L337.7 603.87L337.32 604.07L336.93 604.23L336.52 604.36L336.09 604.46L335.65 604.52L335.2 604.54L326.82 604.54L326.81 613.19L335.2 613.19L335.65 613.21L336.09 613.26L336.51 613.36L336.92 613.49L337.32 613.66L337.69 613.86L338.05 614.09L338.38 614.35L338.69 614.63L338.98 614.94L339.24 615.28L339.47 615.63L339.66 616.01L339.83 616.4L339.96 616.81L340.06 617.24L340.12 617.68L340.14 618.13L340.14 618.21L340.12 618.66L340.06 619.1L339.96 619.53L339.83 619.94L339.66 620.33L339.46 620.71L339.23 621.06L338.98 621.4L338.69 621.71L338.38 621.99L338.05 622.25L337.69 622.48L337.31 622.68L336.92 622.85L336.51 622.98L336.08 623.08L335.64 623.14L335.19 623.16L326.81 623.16L326.8 639.86L320 640L312.82 639.86L312.83 623.17L304.44 623.17L303.99 623.15L303.56 623.09L303.13 623L302.72 622.86L302.33 622.7L301.95 622.5L301.59 622.27L301.26 622.01L300.95 621.73L300.66 621.42L300.41 621.08L300.18 620.73L299.98 620.35L299.81 619.96L299.68 619.55L299.58 619.12L299.52 618.68L299.5 618.23L299.5 618.14L299.52 617.69L299.58 617.25L299.68 616.83L299.81 616.42L299.98 616.02L300.18 615.65L300.41 615.29L300.67 614.96L300.95 614.65L301.26 614.36L301.6 614.1L301.95 613.87L302.33 613.68L302.72 613.51L303.13 613.38L303.56 613.28L304 613.22L304.45 613.2L312.83 613.2L312.84 604.55L304.45 604.56L304 604.54L303.56 604.48L303.14 604.38L302.73 604.25L302.33 604.08L301.96 603.88L301.6 603.65L301.27 603.39L300.96 603.11L300.67 602.8L300.41 602.46L300.19 602.11L299.99 601.73L299.82 601.34L299.69 600.93L299.59 600.5L299.53 600.07L299.51 599.62L299.51 599.53L299.53 599.08L299.59 598.64L299.69 598.21L299.82 597.8L299.99 597.41L300.19 597.03L300.42 596.68L300.68 596.34L300.96 596.03L301.27 595.75L301.61 595.49L301.96 595.26L302.34 595.06L302.73 594.89L303.14 594.76L303.57 594.66L304.01 594.6L304.46 594.58L312.84 594.58L312.85 585.94L304.46 585.94L304.01 585.92L303.57 585.86L303.15 585.76L302.74 585.63L302.34 585.46L301.97 585.27L301.61 585.04L301.28 584.78L300.97 584.49L300.68 584.18L300.42 583.85L300.19 583.49L299.99 583.12L299.83 582.72L299.7 582.31L299.6 581.89L299.54 581.45L299.52 581L299.52 580.91L299.54 580.46L299.6 580.02L299.7 579.6L299.83 579.19L300 578.79L300.2 578.42L300.43 578.06L300.68 577.73L300.97 577.41L301.28 577.13L301.61 576.87L301.97 576.64L302.35 576.44L302.74 576.28L303.15 576.14L303.58 576.05L304.01 575.99L304.46 575.97L312.85 575.96L312.86 567.32L304.47 567.32L304.02 567.3L303.58 567.24L303.15 567.15L302.74 567.01L302.35 566.85L301.97 566.65L301.62 566.42L301.28 566.16L300.97 565.88L300.69 565.57L300.43 565.23L300.2 564.88L300 564.5L299.84 564.11L299.7 563.7L299.61 563.27L299.55 562.83L299.53 562.38L299.53 562.29L299.55 561.84L299.61 561.4L299.71 560.98L299.84 560.57L300 560.17L300.2 559.8L300.43 559.44L300.69 559.11L300.98 558.8L301.29 558.51L301.62 558.25L301.98 558.02L302.35 557.83L302.75 557.66L303.16 557.53L303.58 557.43L304.02 557.37L304.47 557.35L312.86 557.35L312.86 547.86L304.48 547.86L304.03 547.84L303.59 547.79L303.16 547.69L302.75 547.56L302.36 547.39L301.98 547.19L301.63 546.96L301.29 546.7L300.98 546.42L300.7 546.11L300.44 545.77L300.21 545.42L300.01 545.04L299.85 544.65L299.71 544.24L299.62 543.81L299.56 543.37L299.54 542.92L299.54 542.84L299.56 542.39L299.62 541.95L299.71 541.52L299.85 541.11L300.01 540.72L300.21 540.34L300.44 539.98L300.7 539.65L300.99 539.34L301.3 539.05L301.63 538.8L301.99 538.57L302.36 538.37L302.76 538.2L303.17 538.07L303.59 537.97L304.03 537.91L304.48 537.89L312.87 537.89L312.87 529.24L304.48 529.25L304.04 529.23L303.6 529.17L303.17 529.07L302.76 528.94L302.37 528.77L301.99 528.57L301.64 528.34L301.3 528.09L300.99 527.8L300.71 527.49L300.45 527.16L300.22 526.8L300.02 526.43L299.85 526.03L299.72 525.62L299.62 525.2L299.56 524.76L299.54 524.31L299.55 524.22L299.57 523.77L299.63 523.33L299.72 522.9L299.85 522.49L300.02 522.1L300.22 521.72L300.45 521.37L300.71 521.03L300.99 520.72L301.3 520.44L301.64 520.18L301.99 519.95L302.37 519.75L302.76 519.58L303.18 519.45L303.6 519.35L304.04 519.3L304.49 519.27L312.88 519.27L312.88 510.63L304.49 510.63L304.04 510.61L303.61 510.55L303.18 510.46L302.77 510.32L302.38 510.16L302 509.96L301.64 509.73L301.31 509.47L301 509.18L300.71 508.87L300.46 508.54L300.23 508.19L300.03 507.81L299.86 507.42L299.73 507L299.63 506.58L299.57 506.14L299.55 505.69L299.55 505.6L299.57 505.15L299.63 504.71L299.73 504.29L299.86 503.88L300.03 503.48L300.23 503.11L300.46 502.75L300.72 502.42L301 502.11L301.31 501.82L301.65 501.56L302 501.33L302.38 501.13L302.77 500.97L303.18 500.84L303.61 500.74L304.05 500.68L304.5 500.66L312.88 500.65L312.89 492.01L304.5 492.01L304.05 491.99L303.61 491.94L303.19 491.84L302.78 491.71L302.38 491.54L302.01 491.34L301.65 491.11L301.32 490.85L301.01 490.57L300.72 490.26L300.46 489.92L300.24 489.57L300.04 489.19L299.87 488.8L299.74 488.39L299.64 487.96L299.58 487.52L299.56 487.07L299.56 486.99L299.58 486.54L299.64 486.1L299.74 485.67L299.87 485.26L300.04 484.87L300.24 484.49L300.47 484.13L300.72 483.8L301.01 483.49L301.32 483.2L301.65 482.95L302.01 482.72L302.39 482.52L302.78 482.35L303.19 482.22L303.62 482.12L304.06 482.06L304.51 482.04L312.89 482.04L312.9 473.39L304.51 473.4L304.06 473.38L303.62 473.32L303.2 473.22L302.79 473.09L302.39 472.92L302.02 472.72L301.66 472.49L301.33 472.24L301.02 471.95L300.73 471.64L300.47 471.31L300.24 470.95L300.04 470.58L299.88 470.18L299.75 469.77L299.65 469.35L299.59 468.91L299.57 468.46L299.57 468.37L299.59 467.92L299.65 467.48L299.75 467.06L299.88 466.64L300.05 466.25L300.25 465.87L300.47 465.52L300.73 465.18L301.02 464.87L301.33 464.59L301.66 464.33L302.02 464.1L302.39 463.9L302.79 463.73L303.2 463.6L303.63 463.5L304.06 463.45L304.51 463.42L312.9 463.42L312.91 441.94L192.98 442L192.22 442.01L191.47 442.06L190.72 442.13L189.99 442.24L189.26 442.37L188.55 442.54L187.84 442.72L187.15 442.94L186.47 443.18L185.8 443.45L185.14 443.74L184.5 444.06L183.87 444.4L183.26 444.76L182.66 445.15L182.08 445.56L181.52 445.99L180.97 446.44L180.44 446.91L179.93 447.41L179.44 447.92L178.97 448.45L178.52 448.99L178.09 449.56L177.68 450.14L177.29 450.73L176.93 451.35L176.58 451.97L176.27 452.62L175.97 453.27L175.71 453.94L175.46 454.62L175.25 455.32L175.06 456.02L174.9 456.74L174.76 457.46L174.66 458.2L174.58 458.94L174.54 459.7L174.52 460.46L174.46 604.98L172.99 604.26L162.11 598.35L151.49 592.03L141.14 585.32L131.06 578.22L121.28 570.76L111.8 562.93L102.62 554.75L93.77 546.23L85.25 537.38L77.07 528.2L69.24 518.72L61.78 508.94L54.68 498.86L47.97 488.51L41.65 477.89L35.74 467.01L30.24 455.88L25.16 444.51L20.52 432.91L16.33 421.1L12.58 409.08L9.31 396.86L6.51 384.46L4.19 371.88L2.37 359.13L1.06 346.23L0.27 333.18L0 320L0.27 306.82L1.06 293.77L2.37 280.87L4.19 268.12L6.51 255.54L9.31 243.14L12.58 230.92L16.33 218.9L20.52 207.09L25.16 195.49L30.24 184.12L35.74 172.99L41.65 162.11L47.97 151.49L54.68 141.14L61.78 131.06L69.24 121.28L77.07 111.8L85.25 102.62L93.77 93.77L102.62 85.25L111.8 77.07L121.28 69.24L131.06 61.78L141.14 54.68L151.49 47.97L162.11 41.65L172.99 35.74L184.12 30.24L195.49 25.16L207.09 20.52L218.9 16.33L230.92 12.58L243.14 9.31L255.54 6.51L268.12 4.19L280.87 2.37L293.77 1.06L306.82 0.27L320 0L333.18 0.27L346.23 1.06ZM290.1 44.56L285.99 44.98L281.94 45.56L277.93 46.3L273.99 47.19L270.1 48.23L266.27 49.43L262.51 50.76L258.82 52.24L255.2 53.85L251.66 55.6L248.2 57.49L244.82 59.5L241.52 61.63L238.32 63.89L235.2 66.26L232.18 68.75L229.26 71.35L226.44 74.06L223.73 76.88L221.13 79.8L218.63 82.81L216.26 85.92L214 89.13L211.86 92.42L209.85 95.8L207.97 99.26L206.21 102.79L204.6 106.41L203.12 110.1L201.78 113.85L200.59 117.67L199.54 121.56L198.65 125.5L197.91 129.5L197.33 133.55L196.91 137.65L196.83 139.09L196.41 139.04L192.8 138.79L189.18 138.69L185.59 138.73L182.03 138.92L178.51 139.26L175.03 139.74L171.59 140.35L168.2 141.11L164.85 141.99L161.55 143.01L158.31 144.15L155.12 145.42L151.99 146.81L148.93 148.31L145.93 149.94L142.99 151.68L140.13 153.53L137.35 155.49L134.64 157.55L132.01 159.72L129.47 161.98L127.01 164.35L124.64 166.81L122.36 169.36L120.18 172L118.09 174.72L116.11 177.53L114.23 180.42L112.46 183.39L110.79 186.43L109.24 189.55L107.81 192.73L106.49 195.98L105.3 199.3L104.23 202.68L103.29 206.11L102.49 209.6L101.81 213.15L101.27 216.75L100.87 220.39L100.62 224.08L100.51 227.77L100.54 231.44L100.72 235.07L101.05 238.67L101.51 242.22L102.1 245.73L102.83 249.2L103.69 252.62L104.68 255.98L105.79 259.29L107.02 262.55L108.38 265.74L109.85 268.87L111.43 271.93L113.13 274.92L114.94 277.84L116.85 280.68L118.86 283.44L120.98 286.12L123.19 288.72L125.5 291.22L127.9 293.64L130.39 295.96L132.97 298.18L135.64 300.31L138.38 302.33L141.21 304.24L144.11 306.05L147.08 307.74L150.13 309.31L153.25 310.77L156.43 312.11L159.67 313.32L162.98 314.4L166.34 315.36L169.76 316.17L173.23 316.86L176.74 317.4L180.31 317.8L183.92 318.05L187.54 318.16L191.13 318.11L194.68 317.92L198.2 317.58L199.29 317.43L199.26 397.57L199.28 398.55L199.33 399.51L199.43 400.46L199.56 401.4L199.73 402.33L199.94 403.25L200.18 404.15L200.46 405.04L200.77 405.91L201.11 406.77L201.48 407.6L201.89 408.43L202.32 409.23L202.79 410.01L203.29 410.78L203.81 411.52L204.36 412.24L204.94 412.94L205.54 413.62L206.17 414.27L206.82 414.9L207.5 415.5L208.2 416.08L208.92 416.63L209.66 417.15L210.43 417.65L211.21 418.11L212.01 418.55L212.83 418.95L213.67 419.33L214.53 419.67L215.4 419.98L216.29 420.26L217.19 420.5L218.1 420.7L219.03 420.87L219.97 421.01L220.93 421.1L221.89 421.16L222.86 421.18L421.64 421.09L422.61 421.07L423.57 421.01L424.53 420.92L425.47 420.78L426.4 420.61L427.31 420.4L428.22 420.16L429.1 419.89L429.98 419.58L430.83 419.23L431.67 418.86L432.49 418.45L433.3 418.02L434.08 417.55L434.84 417.05L435.59 416.53L436.31 415.98L437.01 415.4L437.69 414.8L438.34 414.17L438.97 413.52L439.57 412.84L440.15 412.14L440.7 411.42L441.23 410.67L441.72 409.91L442.19 409.12L442.62 408.32L443.03 407.5L443.4 406.66L443.75 405.8L444.06 404.93L444.33 404.04L444.58 403.14L444.78 402.23L444.95 401.3L445.09 400.36L445.18 399.4L445.24 398.44L445.26 397.46L445.31 285.56L448.11 285.61L451.87 285.53L455.6 285.32L459.28 284.97L462.92 284.48L466.51 283.86L470.05 283.11L473.54 282.23L476.97 281.23L480.34 280.11L483.65 278.87L486.9 277.51L490.08 276.04L493.18 274.46L496.22 272.77L499.17 270.97L502.05 269.08L504.84 267.08L507.55 264.99L510.17 262.8L512.7 260.52L515.13 258.15L517.47 255.7L519.7 253.17L521.84 250.55L523.86 247.86L525.78 245.09L527.58 242.25L529.27 239.34L530.84 236.37L532.29 233.33L533.62 230.23L534.82 227.07L535.89 223.86L536.83 220.6L537.63 217.28L538.29 213.92L538.81 210.51L539.19 207.07L539.42 203.58L539.49 200.06L539.42 196.54L539.19 193.05L538.82 189.6L538.3 186.2L537.64 182.84L536.85 179.52L535.91 176.26L534.84 173.05L533.65 169.89L532.32 166.79L530.88 163.75L529.31 160.78L527.62 157.87L525.82 155.04L523.9 152.27L521.88 149.58L519.75 146.97L517.52 144.43L515.18 141.98L512.75 139.62L510.23 137.34L507.61 135.16L504.9 133.07L502.11 131.07L499.24 129.18L496.28 127.39L493.25 125.7L490.14 124.12L486.97 122.65L483.72 121.3L480.41 120.06L477.04 118.94L473.61 117.94L470.12 117.07L466.58 116.32L462.99 115.7L459.35 115.22L455.67 114.87L451.95 114.66L448.18 114.59L444.42 114.66L440.7 114.88L437.01 115.23L433.38 115.72L429.78 116.34L426.24 117.09L422.75 117.97L419.32 118.97L415.95 120.09L412.64 121.33L409.39 122.69L406.22 124.16L403.11 125.74L400.08 127.43L398.7 128.27L398.17 125.41L397.28 121.47L396.24 117.59L395.05 113.77L393.72 110.01L392.24 106.33L390.63 102.71L388.88 99.17L387 95.72L384.99 92.34L382.86 89.05L380.6 85.85L378.23 82.74L375.74 79.73L373.13 76.81L370.42 74L367.61 71.29L364.69 68.69L361.67 66.2L358.56 63.83L355.36 61.58L352.06 59.45L348.68 57.44L345.22 55.56L341.68 53.82L338.06 52.2L334.38 50.73L330.62 49.4L326.79 48.21L322.9 47.17L318.96 46.28L314.95 45.55L310.9 44.97L306.79 44.55L302.64 44.3L298.45 44.22L294.25 44.31L290.1 44.56ZM283.67 294.28L284.97 294.46L286.25 294.69L287.51 295L288.74 295.36L289.94 295.79L291.11 296.27L292.25 296.82L293.35 297.41L294.42 298.06L295.45 298.77L296.44 299.52L297.39 300.32L298.3 301.16L299.16 302.05L299.98 302.98L300.74 303.95L301.46 304.96L302.12 306.01L302.73 307.09L303.29 308.21L303.78 309.36L304.21 310.53L304.59 311.74L304.9 312.97L305.14 314.22L305.32 315.5L305.42 316.79L305.46 318.11L305.42 319.42L305.31 320.72L305.14 322L304.89 323.25L304.58 324.48L304.21 325.68L303.77 326.86L303.28 328.01L302.72 329.12L302.11 330.21L301.45 331.25L300.73 332.27L299.96 333.24L299.15 334.17L298.28 335.06L297.38 335.91L296.42 336.71L295.43 337.46L294.4 338.16L293.33 338.81L292.23 339.41L291.09 339.95L289.92 340.44L288.72 340.87L287.49 341.23L286.23 341.54L284.95 341.78L283.65 341.95L282.33 342.06L280.99 342.09L279.65 342.06L278.32 341.96L277.02 341.78L275.74 341.54L274.49 341.24L273.26 340.88L272.06 340.45L270.89 339.96L269.75 339.42L268.65 338.82L267.58 338.17L266.55 337.47L265.56 336.72L264.6 335.92L263.7 335.08L262.84 334.19L262.02 333.26L261.25 332.28L260.54 331.27L259.87 330.23L259.26 329.14L258.71 328.03L258.22 326.88L257.78 325.7L257.41 324.5L257.1 323.27L256.86 322.02L256.68 320.74L256.57 319.44L256.54 318.13L256.57 316.82L256.68 315.52L256.86 314.24L257.1 312.99L257.41 311.76L257.79 310.55L258.22 309.38L258.72 308.23L259.27 307.11L259.88 306.03L260.55 304.98L261.27 303.97L262.03 303L262.85 302.07L263.71 301.18L264.62 300.33L265.57 299.53L266.56 298.78L267.6 298.08L268.67 297.42L269.77 296.83L270.91 296.28L272.08 295.8L273.28 295.37L274.51 295L275.76 294.7L277.04 294.46L278.35 294.28L279.67 294.18L281.01 294.14L282.35 294.18L283.67 294.28ZM384.94 278.42L386.21 278.56L387.46 278.75L388.7 278.99L389.92 279.28L391.12 279.62L392.3 280.02L393.46 280.45L394.6 280.94L395.72 281.47L396.8 282.04L397.87 282.66L398.91 283.32L399.92 284.02L400.9 284.76L401.85 285.53L402.77 286.35L403.66 287.2L404.51 288.09L405.34 289.01L406.12 289.96L406.87 290.95L407.59 291.97L408.26 293.01L408.9 294.09L409.49 295.19L410.05 296.32L410.56 297.48L411.03 298.65L411.45 299.86L411.83 301.08L412.16 302.32L412.44 303.59L412.67 304.87L412.85 306.17L412.99 307.49L413.07 308.82L413.09 310.17L413.06 311.51L412.98 312.85L412.85 314.16L412.67 315.46L412.43 316.75L412.15 318.01L411.82 319.26L411.44 320.48L411.02 321.68L410.55 322.86L410.03 324.02L409.48 325.15L408.88 326.25L408.25 327.32L407.57 328.37L406.86 329.39L406.11 330.38L405.32 331.33L404.5 332.25L403.64 333.14L402.75 333.99L401.83 334.81L400.88 335.59L399.89 336.33L398.88 337.03L397.84 337.69L396.78 338.31L395.69 338.88L394.58 339.41L393.44 339.9L392.28 340.34L391.1 340.73L389.9 341.07L388.68 341.37L387.44 341.61L386.18 341.8L384.91 341.94L383.63 342.02L382.33 342.05L381.03 342.02L379.74 341.94L378.47 341.8L377.22 341.61L375.98 341.37L374.76 341.08L373.56 340.74L372.38 340.35L371.22 339.91L370.08 339.42L368.97 338.89L367.88 338.32L366.81 337.7L365.78 337.04L364.77 336.34L363.78 335.61L362.83 334.83L361.91 334.01L361.02 333.16L360.17 332.27L359.35 331.35L358.56 330.4L357.81 329.41L357.09 328.39L356.42 327.35L355.78 326.27L355.19 325.17L354.63 324.04L354.12 322.89L353.66 321.71L353.23 320.51L352.86 319.28L352.53 318.04L352.24 316.77L352.01 315.49L351.83 314.19L351.7 312.87L351.62 311.54L351.59 310.19L351.62 308.85L351.7 307.52L351.83 306.2L352.02 304.9L352.25 303.62L352.53 302.35L352.86 301.11L353.24 299.88L353.67 298.68L354.13 297.5L354.65 296.35L355.2 295.22L355.8 294.11L356.43 293.04L357.11 291.99L357.82 290.97L358.58 289.99L359.36 289.03L360.19 288.11L361.04 287.22L361.93 286.37L362.85 285.55L363.81 284.77L364.79 284.03L365.8 283.33L366.84 282.67L367.9 282.05L368.99 281.48L370.11 280.95L371.24 280.46L372.4 280.02L373.59 279.63L374.79 279.29L376.01 279L377.24 278.75L378.5 278.56L379.77 278.42L381.06 278.34L382.36 278.31L383.65 278.34L384.94 278.42Z" id="buXlNrjMB"></path></defs><g><g><g><use xlink:href="#buXlNrjMB" opacity="1" fill="#660033" fill-opacity="1"></use></g></g></g></svg>