<?xml version="1.0" encoding="UTF-8" standalone="no"?>
<!DOCTYPE svg PUBLIC "-//W3C//DTD SVG 1.1//EN" "http://www.w3.org/Graphics/SVG/1.1/DTD/svg11.dtd">
<svg version="1.1" xmlns="http://www.w3.org/2000/svg" xmlns:xlink="http://www.w3.org/1999/xlink" preserveAspectRatio="xMidYMid meet" viewBox="0 0 640 640" width="640" height="640"><defs><path d="M305.6 0.36L310.05 0.81L314.45 1.43L318.79 2.22L323.07 3.18L327.28 4.3L331.43 5.58L335.5 7.01L339.5 8.59L343.42 10.33L347.26 12.21L351.02 14.23L354.68 16.38L358.25 18.67L361.73 21.1L365.1 23.65L368.37 26.32L371.54 29.11L374.59 32.02L377.53 35.05L380.35 38.18L383.05 41.42L385.63 44.76L388.07 48.2L390.39 51.74L392.57 55.36L394.61 59.08L396.51 62.88L398.26 66.76L399.86 70.72L401.31 74.76L402.6 78.86L403.73 83.04L404.69 87.27L405.26 90.34L406.76 89.44L410.05 87.63L413.41 85.93L416.86 84.35L420.37 82.89L423.96 81.56L427.62 80.36L431.34 79.28L435.12 78.34L438.96 77.54L442.85 76.87L446.79 76.35L450.78 75.98L454.82 75.75L458.9 75.67L462.98 75.75L467.02 75.98L471.01 76.35L474.95 76.87L478.85 77.54L482.68 78.34L486.46 79.28L490.18 80.36L493.84 81.56L497.43 82.89L500.94 84.35L504.39 85.93L507.75 87.63L511.04 89.44L514.25 91.37L517.36 93.4L520.39 95.55L523.32 97.8L526.16 100.14L528.9 102.59L531.54 105.13L534.07 107.76L536.49 110.49L538.8 113.29L541 116.19L543.07 119.16L545.03 122.21L546.86 125.33L548.56 128.53L550.13 131.79L551.57 135.12L552.87 138.51L554.02 141.96L555.04 145.47L555.9 149.03L556.62 152.64L557.18 156.3L557.59 160L557.83 163.75L557.92 167.53L557.83 171.32L557.59 175.06L557.18 178.77L556.62 182.42L555.9 186.04L555.04 189.6L554.02 193.1L552.87 196.55L551.57 199.95L550.13 203.27L548.56 206.54L546.86 209.73L545.03 212.86L543.07 215.91L541 218.88L538.8 221.77L536.49 224.58L534.07 227.3L531.54 229.93L528.9 232.48L526.16 234.92L523.32 237.27L520.39 239.52L517.36 241.66L514.25 243.7L511.04 245.62L507.75 247.44L504.39 249.13L500.94 250.71L497.43 252.17L493.84 253.5L490.18 254.71L486.46 255.78L482.68 256.72L478.85 257.53L474.95 258.19L471.01 258.71L467.02 259.09L462.98 259.32L458.9 259.39L455.87 259.34L455.87 379.33L455.85 380.39L455.79 381.43L455.68 382.47L455.54 383.49L455.35 384.49L455.13 385.49L454.86 386.46L454.56 387.43L454.23 388.37L453.86 389.3L453.45 390.21L453.01 391.1L452.54 391.97L452.03 392.82L451.5 393.65L450.93 394.45L450.33 395.24L449.71 396L449.05 396.73L448.37 397.44L447.66 398.12L446.93 398.77L446.17 399.4L445.39 400L444.58 400.56L443.76 401.1L442.91 401.6L442.03 402.08L441.14 402.52L440.23 402.92L439.31 403.29L438.36 403.63L437.4 403.93L436.42 404.19L435.43 404.41L434.42 404.6L433.4 404.75L432.37 404.85L431.33 404.91L430.27 404.94L214.81 404.94L213.75 404.91L212.71 404.85L211.67 404.75L210.65 404.6L209.65 404.41L208.65 404.19L207.68 403.93L206.71 403.63L205.77 403.29L204.84 402.92L203.93 402.52L203.04 402.08L202.17 401.6L201.32 401.1L200.49 400.56L199.69 400L198.9 399.4L198.15 398.77L197.41 398.12L196.7 397.44L196.02 396.73L195.37 396L194.74 395.24L194.15 394.45L193.58 393.65L193.04 392.82L192.54 391.97L192.06 391.1L191.62 390.21L191.22 389.3L190.85 388.37L190.51 387.43L190.21 386.46L189.95 385.49L189.73 384.49L189.54 383.49L189.4 382.47L189.29 381.43L189.23 380.39L189.21 379.33L189.21 293.47L188.03 293.63L184.21 293.99L180.36 294.19L176.47 294.24L172.55 294.12L168.63 293.85L164.77 293.42L160.95 292.83L157.19 292.1L153.48 291.22L149.84 290.19L146.26 289.03L142.74 287.72L139.29 286.29L135.91 284.72L132.61 283.03L129.38 281.21L126.24 279.27L123.17 277.21L120.2 275.04L117.31 272.76L114.51 270.37L111.81 267.87L109.2 265.27L106.7 262.58L104.3 259.79L102.01 256.91L99.82 253.94L97.75 250.89L95.79 247.75L93.95 244.54L92.23 241.25L90.63 237.89L89.16 234.46L87.82 230.96L86.62 227.4L85.55 223.79L84.61 220.12L83.82 216.39L83.17 212.62L82.67 208.8L82.32 204.94L82.12 201.03L82.08 197.1L82.2 193.13L82.48 189.16L82.91 185.25L83.49 181.39L84.22 177.58L85.09 173.83L86.11 170.14L87.27 166.51L88.56 162.95L89.98 159.45L91.53 156.03L93.21 152.69L95.01 149.42L96.93 146.23L98.97 143.13L101.12 140.11L103.38 137.18L105.74 134.35L108.21 131.61L110.78 128.97L113.44 126.43L116.2 124L119.05 121.67L121.98 119.46L125 117.35L128.1 115.37L131.28 113.5L134.53 111.76L137.85 110.14L141.24 108.65L144.7 107.29L148.21 106.06L151.79 104.97L155.42 104.02L159.1 103.22L162.82 102.56L166.6 102.04L170.41 101.68L174.27 101.48L178.16 101.43L182.08 101.55L185.99 101.82L186.45 101.87L186.54 100.33L186.99 95.92L187.62 91.57L188.42 87.27L189.39 83.04L190.52 78.86L191.81 74.76L193.25 70.72L194.86 66.76L196.61 62.88L198.5 59.08L200.54 55.36L202.72 51.74L205.04 48.2L207.48 44.76L210.06 41.42L212.76 38.18L215.58 35.05L218.52 32.02L221.57 29.11L224.74 26.32L228.01 23.65L231.38 21.1L234.86 18.67L238.43 16.38L242.09 14.23L245.85 12.21L249.69 10.33L253.61 8.59L257.61 7.01L261.68 5.58L265.83 4.3L270.04 3.18L274.32 2.22L278.66 1.43L283.06 0.81L287.51 0.36L292.01 0.09L296.56 0L301.1 0.09L305.6 0.36ZM275.06 268.62L273.74 268.78L272.43 269.01L271.15 269.3L269.89 269.64L268.66 270.05L267.46 270.51L266.28 271.03L265.14 271.6L264.03 272.22L262.95 272.89L261.91 273.6L260.91 274.37L259.95 275.18L259.03 276.03L258.15 276.93L257.32 277.86L256.53 278.84L255.79 279.85L255.1 280.89L254.46 281.97L253.87 283.08L253.34 284.22L252.87 285.39L252.45 286.59L252.09 287.81L251.8 289.05L251.56 290.32L251.4 291.61L251.29 292.92L251.26 294.24L251.29 295.57L251.4 296.87L251.56 298.16L251.8 299.43L252.09 300.68L252.45 301.9L252.87 303.09L253.34 304.26L253.87 305.41L254.46 306.52L255.1 307.59L255.79 308.64L256.53 309.65L257.32 310.62L258.15 311.56L259.03 312.45L259.95 313.31L260.91 314.12L261.91 314.88L262.95 315.6L264.03 316.27L265.14 316.89L266.28 317.46L267.46 317.97L268.66 318.44L269.89 318.84L271.15 319.19L272.43 319.48L273.74 319.7L275.06 319.87L276.41 319.97L277.77 320L279.14 319.97L280.48 319.87L281.81 319.7L283.11 319.48L284.4 319.19L285.65 318.84L286.89 318.44L288.09 317.97L289.26 317.46L290.41 316.89L291.52 316.27L292.59 315.6L293.63 314.88L294.64 314.12L295.6 313.31L296.52 312.45L297.4 311.56L298.23 310.62L299.02 309.65L299.76 308.64L300.45 307.59L301.09 306.52L301.67 305.41L302.2 304.26L302.68 303.09L303.1 301.9L303.45 300.68L303.75 299.43L303.98 298.16L304.15 296.87L304.25 295.57L304.29 294.24L304.25 292.92L304.15 291.61L303.98 290.32L303.75 289.05L303.45 287.81L303.1 286.59L302.68 285.39L302.2 284.22L301.67 283.08L301.09 281.97L300.45 280.89L299.76 279.85L299.02 278.84L298.23 277.86L297.4 276.93L296.52 276.03L295.6 275.18L294.64 274.37L293.63 273.6L292.59 272.89L291.52 272.22L290.41 271.6L289.26 271.03L288.09 270.51L286.89 270.05L285.65 269.64L284.4 269.3L283.11 269.01L281.81 268.78L280.48 268.62L279.14 268.52L277.77 268.48L276.41 268.52L275.06 268.62ZM384.89 251.64L383.55 251.78L382.22 251.97L380.91 252.22L379.62 252.52L378.34 252.87L377.09 253.27L375.86 253.72L374.65 254.22L373.47 254.76L372.31 255.35L371.18 255.98L370.07 256.66L368.99 257.38L367.94 258.14L366.92 258.93L365.93 259.77L364.98 260.65L364.06 261.56L363.17 262.51L362.32 263.49L361.5 264.5L360.72 265.55L359.98 266.63L359.29 267.73L358.63 268.87L358.01 270.03L357.44 271.23L356.91 272.44L356.43 273.68L355.99 274.95L355.6 276.23L355.26 277.54L354.97 278.87L354.73 280.21L354.54 281.58L354.4 282.96L354.32 284.35L354.29 285.76L354.32 287.17L354.4 288.57L354.54 289.95L354.73 291.31L354.97 292.66L355.26 293.99L355.6 295.29L355.99 296.58L356.43 297.84L356.91 299.08L357.44 300.3L358.01 301.49L358.63 302.66L359.29 303.79L359.98 304.9L360.72 305.98L361.5 307.02L362.32 308.04L363.17 309.02L364.06 309.97L364.98 310.88L365.93 311.75L366.92 312.59L367.94 313.39L368.99 314.15L370.07 314.87L371.18 315.54L372.31 316.18L373.47 316.76L374.65 317.31L375.86 317.8L377.09 318.25L378.34 318.65L379.62 319L380.91 319.3L382.22 319.55L383.55 319.75L384.89 319.89L386.25 319.97L387.62 320L388.99 319.97L390.35 319.89L391.7 319.75L393.03 319.55L394.34 319.3L395.63 319L396.9 318.65L398.15 318.25L399.38 317.8L400.59 317.31L401.78 316.76L402.93 316.18L404.07 315.54L405.17 314.87L406.25 314.15L407.3 313.39L408.32 312.59L409.31 311.75L410.27 310.88L411.19 309.97L412.08 309.02L412.93 308.04L413.74 307.02L414.52 305.98L415.26 304.9L415.96 303.79L416.62 302.66L417.23 301.49L417.81 300.3L418.33 299.08L418.82 297.84L419.25 296.58L419.64 295.29L419.99 293.99L420.28 292.66L420.52 291.31L420.71 289.95L420.84 288.57L420.93 287.17L420.96 285.76L420.93 284.35L420.84 282.96L420.71 281.58L420.52 280.21L420.28 278.87L419.99 277.54L419.64 276.23L419.25 274.95L418.82 273.68L418.33 272.44L417.81 271.23L417.23 270.03L416.62 268.87L415.96 267.73L415.26 266.63L414.52 265.55L413.74 264.5L412.93 263.49L412.08 262.51L411.19 261.56L410.27 260.65L409.31 259.77L408.32 258.93L407.3 258.14L406.25 257.38L405.17 256.66L404.07 255.98L402.93 255.35L401.78 254.76L400.59 254.22L399.38 253.72L398.15 253.27L396.9 252.87L395.63 252.52L394.34 252.22L393.03 251.97L391.7 251.78L390.35 251.64L388.99 251.55L387.62 251.53L386.25 251.55L384.89 251.64Z" id="j4GJOCI8J4"></path><path d="M303.33 450.36L302.89 450.37L302.46 450.43L302.05 450.51L301.64 450.63L301.25 450.78L300.87 450.96L300.51 451.16L300.17 451.39L299.85 451.65L299.55 451.93L299.27 452.23L299.01 452.55L298.78 452.89L298.57 453.25L298.4 453.63L298.25 454.02L298.13 454.43L298.05 454.85L297.99 455.27L297.98 455.71L297.99 456.15L298.05 456.58L298.13 457L298.25 457.41L298.4 457.8L298.57 458.18L298.78 458.54L299.01 458.88L299.27 459.2L299.55 459.5L299.85 459.78L300.17 460.04L300.51 460.27L300.87 460.47L301.25 460.65L301.64 460.8L302.05 460.92L302.46 461L302.89 461.05L303.33 461.07L312.42 461.07L312.42 470.36L303.33 470.36L302.89 470.37L302.46 470.43L302.05 470.51L301.64 470.63L301.25 470.78L300.87 470.96L300.51 471.16L300.17 471.39L299.85 471.65L299.55 471.93L299.27 472.23L299.01 472.55L298.78 472.89L298.57 473.25L298.4 473.63L298.25 474.02L298.13 474.43L298.05 474.85L297.99 475.27L297.98 475.71L297.99 476.15L298.05 476.58L298.13 477L298.25 477.41L298.4 477.8L298.57 478.18L298.78 478.54L299.01 478.88L299.27 479.2L299.55 479.5L299.85 479.78L300.17 480.04L300.51 480.27L300.87 480.47L301.25 480.65L301.64 480.8L302.05 480.92L302.46 481L302.89 481.05L303.33 481.07L312.42 481.07L312.42 490.36L303.33 490.36L302.89 490.37L302.46 490.43L302.05 490.51L301.64 490.63L301.25 490.78L300.87 490.96L300.51 491.16L300.17 491.39L299.85 491.65L299.55 491.93L299.27 492.23L299.01 492.55L298.78 492.89L298.57 493.25L298.4 493.63L298.25 494.02L298.13 494.43L298.05 494.85L297.99 495.27L297.98 495.71L297.99 496.15L298.05 496.58L298.13 497L298.25 497.41L298.4 497.8L298.57 498.18L298.78 498.54L299.01 498.88L299.27 499.2L299.55 499.5L299.85 499.78L300.17 500.04L300.51 500.27L300.87 500.47L301.25 500.65L301.64 500.8L302.05 500.92L302.46 501L302.89 501.05L303.33 501.07L312.42 501.07L312.42 510.36L303.33 510.36L302.89 510.37L302.46 510.43L302.05 510.51L301.64 510.63L301.25 510.78L300.87 510.96L300.51 511.16L300.17 511.39L299.85 511.65L299.55 511.93L299.27 512.23L299.01 512.55L298.78 512.89L298.57 513.25L298.4 513.63L298.25 514.02L298.13 514.43L298.05 514.85L297.99 515.27L297.98 515.71L297.99 516.15L298.05 516.58L298.13 517L298.25 517.41L298.4 517.8L298.57 518.18L298.78 518.54L299.01 518.88L299.27 519.2L299.55 519.5L299.85 519.78L300.17 520.04L300.51 520.27L300.87 520.47L301.25 520.65L301.64 520.8L302.05 520.92L302.46 521L302.89 521.05L303.33 521.07L312.42 521.07L312.42 530.36L303.33 530.36L302.89 530.37L302.46 530.43L302.05 530.51L301.64 530.63L301.25 530.78L300.87 530.96L300.51 531.16L300.17 531.39L299.85 531.65L299.55 531.93L299.27 532.23L299.01 532.55L298.78 532.89L298.57 533.25L298.4 533.63L298.25 534.02L298.13 534.43L298.05 534.85L297.99 535.27L297.98 535.71L297.99 536.15L298.05 536.58L298.13 537L298.25 537.41L298.4 537.8L298.57 538.18L298.78 538.54L299.01 538.88L299.27 539.2L299.55 539.5L299.85 539.78L300.17 540.04L300.51 540.27L300.87 540.47L301.25 540.65L301.64 540.8L302.05 540.92L302.46 541L302.89 541.05L303.33 541.07L312.42 541.07L312.42 551.26L303.33 551.26L302.89 551.28L302.46 551.33L302.05 551.42L301.64 551.53L301.25 551.68L300.87 551.86L300.51 552.06L300.17 552.29L299.85 552.55L299.55 552.83L299.27 553.13L299.01 553.45L298.78 553.8L298.57 554.16L298.4 554.53L298.25 554.92L298.13 555.33L298.05 555.75L297.99 556.18L297.98 556.62L297.99 557.06L298.05 557.49L298.13 557.91L298.25 558.31L298.4 558.7L298.57 559.08L298.78 559.44L299.01 559.78L299.27 560.1L299.55 560.41L299.85 560.69L300.17 560.94L300.51 561.17L300.87 561.38L301.25 561.55L301.64 561.7L302.05 561.82L302.46 561.9L302.89 561.96L303.33 561.98L312.42 561.98L312.42 571.26L303.33 571.26L302.89 571.28L302.46 571.33L302.05 571.42L301.64 571.53L301.25 571.68L300.87 571.86L300.51 572.06L300.17 572.29L299.85 572.55L299.55 572.83L299.27 573.13L299.01 573.45L298.78 573.8L298.57 574.16L298.4 574.53L298.25 574.92L298.13 575.33L298.05 575.75L297.99 576.18L297.98 576.62L297.99 577.06L298.05 577.49L298.13 577.91L298.25 578.31L298.4 578.7L298.57 579.08L298.78 579.44L299.01 579.78L299.27 580.1L299.55 580.41L299.85 580.69L300.17 580.94L300.51 581.17L300.87 581.38L301.25 581.55L301.64 581.7L302.05 581.82L302.46 581.9L302.89 581.96L303.33 581.98L312.42 581.98L312.42 591.26L303.33 591.26L302.89 591.28L302.46 591.33L302.05 591.42L301.64 591.53L301.25 591.68L300.87 591.86L300.51 592.06L300.17 592.29L299.85 592.55L299.55 592.83L299.27 593.13L299.01 593.45L298.78 593.8L298.57 594.16L298.4 594.53L298.25 594.92L298.13 595.33L298.05 595.75L297.99 596.18L297.98 596.62L297.99 597.06L298.05 597.49L298.13 597.91L298.25 598.31L298.4 598.7L298.57 599.08L298.78 599.44L299.01 599.78L299.27 600.1L299.55 600.41L299.85 600.69L300.17 600.94L300.51 601.17L300.87 601.38L301.25 601.55L301.64 601.7L302.05 601.82L302.46 601.9L302.89 601.96L303.33 601.98L312.42 601.98L312.42 611.26L303.33 611.26L302.89 611.28L302.46 611.33L302.05 611.42L301.64 611.53L301.25 611.68L300.87 611.86L300.51 612.06L300.17 612.29L299.85 612.55L299.55 612.83L299.27 613.13L299.01 613.45L298.78 613.8L298.57 614.16L298.4 614.53L298.25 614.92L298.13 615.33L298.05 615.75L297.99 616.18L297.98 616.62L297.99 617.06L298.05 617.49L298.13 617.91L298.25 618.31L298.4 618.7L298.57 619.08L298.78 619.44L299.01 619.78L299.27 620.1L299.55 620.41L299.85 620.69L300.17 620.94L300.51 621.17L300.87 621.38L301.25 621.55L301.64 621.7L302.05 621.82L302.46 621.9L302.89 621.96L303.33 621.98L312.42 621.98L312.42 640L182.42 640L181.6 639.98L180.78 639.93L179.98 639.85L179.18 639.74L178.39 639.59L177.62 639.42L176.85 639.21L176.1 638.98L175.36 638.72L174.64 638.43L173.93 638.11L173.23 637.77L172.55 637.4L171.89 637L171.24 636.58L170.61 636.14L170 635.67L169.41 635.19L168.84 634.67L168.28 634.14L167.75 633.59L167.24 633.02L166.75 632.42L166.28 631.81L165.84 631.18L165.42 630.54L165.03 629.87L164.66 629.19L164.31 628.5L164 627.78L163.71 627.06L163.44 626.32L163.21 625.57L163.01 624.81L162.83 624.03L162.69 623.24L162.57 622.45L162.49 621.64L162.44 620.82L162.42 620L162.42 447.28L162.44 446.46L162.49 445.64L162.57 444.84L162.69 444.04L162.83 443.25L163.01 442.48L163.21 441.71L163.44 440.96L163.71 440.22L164 439.5L164.31 438.79L164.66 438.09L165.03 437.41L165.42 436.75L165.84 436.1L166.28 435.47L166.75 434.86L167.24 434.27L167.75 433.69L168.28 433.14L168.84 432.61L169.41 432.1L170 431.61L170.61 431.14L171.24 430.7L171.89 430.28L172.55 429.89L173.23 429.52L173.93 429.17L174.64 428.86L175.36 428.57L176.1 428.3L176.85 428.07L177.62 427.86L178.39 427.69L179.18 427.55L179.98 427.43L180.78 427.35L181.6 427.3L182.42 427.28L312.42 427.28L312.42 450.36L303.33 450.36ZM459.22 427.35L460.02 427.43L460.82 427.55L461.61 427.69L462.38 427.86L463.15 428.07L463.9 428.3L464.64 428.57L465.36 428.86L466.07 429.17L466.77 429.52L467.45 429.89L468.11 430.28L468.76 430.7L469.39 431.14L470 431.61L470.59 432.1L471.16 432.61L471.72 433.14L472.25 433.69L472.76 434.27L473.25 434.86L473.72 435.47L474.16 436.1L474.58 436.75L474.97 437.41L475.34 438.09L475.69 438.79L476 439.5L476.29 440.22L476.56 440.96L476.79 441.71L476.99 442.48L477.17 443.25L477.31 444.04L477.43 444.84L477.51 445.64L477.56 446.46L477.58 447.28L477.58 620L477.56 620.82L477.51 621.64L477.43 622.45L477.31 623.24L477.17 624.03L476.99 624.81L476.79 625.57L476.56 626.32L476.29 627.06L476 627.78L475.69 628.5L475.34 629.19L474.97 629.87L474.58 630.54L474.16 631.18L473.72 631.81L473.25 632.42L472.76 633.02L472.25 633.59L471.72 634.14L471.16 634.67L470.59 635.19L470 635.67L469.39 636.14L468.76 636.58L468.11 637L467.45 637.4L466.77 637.77L466.07 638.11L465.36 638.43L464.64 638.72L463.9 638.98L463.15 639.21L462.38 639.42L461.61 639.59L460.82 639.74L460.02 639.85L459.22 639.93L458.4 639.98L457.58 640L327.58 640L327.58 621.98L336.67 621.98L337.11 621.96L337.54 621.9L337.95 621.82L338.36 621.7L338.75 621.55L339.13 621.38L339.49 621.17L339.83 620.94L340.15 620.69L340.45 620.41L340.73 620.1L340.99 619.78L341.22 619.44L341.43 619.08L341.6 618.7L341.75 618.31L341.87 617.91L341.95 617.49L342.01 617.06L342.02 616.62L342.01 616.18L341.95 615.75L341.87 615.33L341.75 614.92L341.6 614.53L341.43 614.16L341.22 613.8L340.99 613.45L340.73 613.13L340.45 612.83L340.15 612.55L339.83 612.29L339.49 612.06L339.13 611.86L338.75 611.68L338.36 611.53L337.95 611.42L337.54 611.33L337.11 611.28L336.67 611.26L327.58 611.26L327.58 601.98L336.67 601.98L337.11 601.96L337.54 601.9L337.95 601.82L338.36 601.7L338.75 601.55L339.13 601.38L339.49 601.17L339.83 600.94L340.15 600.69L340.45 600.41L340.73 600.1L340.99 599.78L341.22 599.44L341.43 599.08L341.6 598.7L341.75 598.31L341.87 597.91L341.95 597.49L342.01 597.06L342.02 596.62L342.01 596.18L341.95 595.75L341.87 595.33L341.75 594.92L341.6 594.53L341.43 594.16L341.22 593.8L340.99 593.45L340.73 593.13L340.45 592.83L340.15 592.55L339.83 592.29L339.49 592.06L339.13 591.86L338.75 591.68L338.36 591.53L337.95 591.42L337.54 591.33L337.11 591.28L336.67 591.26L327.58 591.26L327.58 581.98L336.67 581.98L337.11 581.96L337.54 581.9L337.95 581.82L338.36 581.7L338.75 581.55L339.13 581.38L339.49 581.17L339.83 580.94L340.15 580.69L340.45 580.41L340.73 580.1L340.99 579.78L341.22 579.44L341.43 579.08L341.6 578.7L341.75 578.31L341.87 577.91L341.95 577.49L342.01 577.06L342.02 576.62L342.01 576.18L341.95 575.75L341.87 575.33L341.75 574.92L341.6 574.53L341.43 574.16L341.22 573.8L340.99 573.45L340.73 573.13L340.45 572.83L340.15 572.55L339.83 572.29L339.49 572.06L339.13 571.86L338.75 571.68L338.36 571.53L337.95 571.42L337.54 571.33L337.11 571.28L336.67 571.26L327.58 571.26L327.58 561.98L336.67 561.98L337.11 561.96L337.54 561.9L337.95 561.82L338.36 561.7L338.75 561.55L339.13 561.38L339.49 561.17L339.83 560.94L340.15 560.69L340.45 560.41L340.73 560.1L340.99 559.78L341.22 559.44L341.43 559.08L341.6 558.7L341.75 558.31L341.87 557.91L341.95 557.49L342.01 557.06L342.02 556.62L342.01 556.18L341.95 555.75L341.87 555.33L341.75 554.92L341.6 554.53L341.43 554.16L341.22 553.8L340.99 553.45L340.73 553.13L340.45 552.83L340.15 552.55L339.83 552.29L339.49 552.06L339.13 551.86L338.75 551.68L338.36 551.53L337.95 551.42L337.54 551.33L337.11 551.28L336.67 551.26L327.58 551.26L327.58 541.07L336.67 541.07L337.11 541.05L337.54 541L337.95 540.92L338.36 540.8L338.75 540.65L339.13 540.47L339.49 540.27L339.83 540.04L340.15 539.78L340.45 539.5L340.73 539.2L340.99 538.88L341.22 538.54L341.43 538.18L341.6 537.8L341.75 537.41L341.87 537L341.95 536.58L342.01 536.15L342.02 535.71L342.01 535.27L341.95 534.85L341.87 534.43L341.75 534.02L341.6 533.63L341.43 533.25L341.22 532.89L340.99 532.55L340.73 532.23L340.45 531.93L340.15 531.65L339.83 531.39L339.49 531.16L339.13 530.96L338.75 530.78L338.36 530.63L337.95 530.51L337.54 530.43L337.11 530.37L336.67 530.36L327.58 530.36L327.58 521.07L336.67 521.07L337.11 521.05L337.54 521L337.95 520.92L338.36 520.8L338.75 520.65L339.13 520.47L339.49 520.27L339.83 520.04L340.15 519.78L340.45 519.5L340.73 519.2L340.99 518.88L341.22 518.54L341.43 518.18L341.6 517.8L341.75 517.41L341.87 517L341.95 516.58L342.01 516.15L342.02 515.71L342.01 515.27L341.95 514.85L341.87 514.43L341.75 514.02L341.6 513.63L341.43 513.25L341.22 512.89L340.99 512.55L340.73 512.23L340.45 511.93L340.15 511.65L339.83 511.39L339.49 511.16L339.13 510.96L338.75 510.78L338.36 510.63L337.95 510.51L337.54 510.43L337.11 510.37L336.67 510.36L327.58 510.36L327.58 501.07L336.67 501.07L337.11 501.05L337.54 501L337.95 500.92L338.36 500.8L338.75 500.65L339.13 500.47L339.49 500.27L339.83 500.04L340.15 499.78L340.45 499.5L340.73 499.2L340.99 498.88L341.22 498.54L341.43 498.18L341.6 497.8L341.75 497.41L341.87 497L341.95 496.58L342.01 496.15L342.02 495.71L342.01 495.27L341.95 494.85L341.87 494.43L341.75 494.02L341.6 493.63L341.43 493.25L341.22 492.89L340.99 492.55L340.73 492.23L340.45 491.93L340.15 491.65L339.83 491.39L339.49 491.16L339.13 490.96L338.75 490.78L338.36 490.63L337.95 490.51L337.54 490.43L337.11 490.37L336.67 490.36L327.58 490.36L327.58 481.07L336.67 481.07L337.11 481.05L337.54 481L337.95 480.92L338.36 480.8L338.75 480.65L339.13 480.47L339.49 480.27L339.83 480.04L340.15 479.78L340.45 479.5L340.73 479.2L340.99 478.88L341.22 478.54L341.43 478.18L341.6 477.8L341.75 477.41L341.87 477L341.95 476.58L342.01 476.15L342.02 475.71L342.01 475.27L341.95 474.85L341.87 474.43L341.75 474.02L341.6 473.63L341.43 473.25L341.22 472.89L340.99 472.55L340.73 472.23L340.45 471.93L340.15 471.65L339.83 471.39L339.49 471.16L339.13 470.96L338.75 470.78L338.36 470.63L337.95 470.51L337.54 470.43L337.11 470.37L336.67 470.36L327.58 470.36L327.58 461.07L336.67 461.07L337.11 461.05L337.54 461L337.95 460.92L338.36 460.8L338.75 460.65L339.13 460.47L339.49 460.27L339.83 460.04L340.15 459.78L340.45 459.5L340.73 459.2L340.99 458.88L341.22 458.54L341.43 458.18L341.6 457.8L341.75 457.41L341.87 457L341.95 456.58L342.01 456.15L342.02 455.71L342.01 455.27L341.95 454.85L341.87 454.43L341.75 454.02L341.6 453.63L341.43 453.25L341.22 452.89L340.99 452.55L340.73 452.23L340.45 451.93L340.15 451.65L339.83 451.39L339.49 451.16L339.13 450.96L338.75 450.78L338.36 450.63L337.95 450.51L337.54 450.43L337.11 450.37L336.67 450.36L327.58 450.36L327.58 427.28L457.58 427.28L458.4 427.3L459.22 427.35Z" id="d2zTWwpm90"></path></defs><g><g><g><use xlink:href="#j4GJOCI8J4" opacity="1" fill="#660033" fill-opacity="1"></use></g><g><use xlink:href="#d2zTWwpm90" opacity="1" fill="#660033" fill-opacity="1"></use></g></g></g></svg>